<mxfile host="65bd71144e">
    <diagram id="C5RBs43oDa-KdzZeNtuy" name="Page-1">
        <mxGraphModel dx="1640" dy="527" grid="1" gridSize="10" guides="1" tooltips="1" connect="1" arrows="1" fold="1" page="1" pageScale="1" pageWidth="827" pageHeight="1169" math="0" shadow="0">
            <root>
                <mxCell id="WIyWlLk6GJQsqaUBKTNV-0"/>
                <mxCell id="WIyWlLk6GJQsqaUBKTNV-1" parent="WIyWlLk6GJQsqaUBKTNV-0"/>
                <mxCell id="KgBlzZdilrDWfoYo20FU-3" value="" style="edgeStyle=orthogonalEdgeStyle;rounded=0;orthogonalLoop=1;jettySize=auto;html=1;" parent="WIyWlLk6GJQsqaUBKTNV-1" source="KgBlzZdilrDWfoYo20FU-0" target="KgBlzZdilrDWfoYo20FU-2" edge="1">
                    <mxGeometry relative="1" as="geometry"/>
                </mxCell>
                <mxCell id="KgBlzZdilrDWfoYo20FU-0" value="Start" style="strokeWidth=2;html=1;shape=mxgraph.flowchart.terminator;whiteSpace=wrap;" parent="WIyWlLk6GJQsqaUBKTNV-1" vertex="1">
                    <mxGeometry x="180" y="10" width="100" height="30" as="geometry"/>
                </mxCell>
                <mxCell id="KgBlzZdilrDWfoYo20FU-5" value="" style="edgeStyle=orthogonalEdgeStyle;rounded=0;orthogonalLoop=1;jettySize=auto;html=1;" parent="WIyWlLk6GJQsqaUBKTNV-1" source="KgBlzZdilrDWfoYo20FU-2" target="KgBlzZdilrDWfoYo20FU-4" edge="1">
                    <mxGeometry relative="1" as="geometry"/>
                </mxCell>
                <mxCell id="KgBlzZdilrDWfoYo20FU-2" value="Click on Forgot Password? Link" style="whiteSpace=wrap;html=1;strokeWidth=2;" parent="WIyWlLk6GJQsqaUBKTNV-1" vertex="1">
                    <mxGeometry x="170" y="60" width="120" height="60" as="geometry"/>
                </mxCell>
                <mxCell id="KgBlzZdilrDWfoYo20FU-8" value="" style="edgeStyle=orthogonalEdgeStyle;rounded=0;orthogonalLoop=1;jettySize=auto;html=1;" parent="WIyWlLk6GJQsqaUBKTNV-1" source="KgBlzZdilrDWfoYo20FU-4" target="KgBlzZdilrDWfoYo20FU-7" edge="1">
                    <mxGeometry relative="1" as="geometry"/>
                </mxCell>
                <mxCell id="KgBlzZdilrDWfoYo20FU-4" value="Enter email &amp;amp; click on Send reset link button" style="whiteSpace=wrap;html=1;strokeWidth=2;" parent="WIyWlLk6GJQsqaUBKTNV-1" vertex="1">
                    <mxGeometry x="170" y="140" width="120" height="60" as="geometry"/>
                </mxCell>
                <mxCell id="KgBlzZdilrDWfoYo20FU-6" value="" style="shape=image;verticalLabelPosition=bottom;labelBackgroundColor=default;verticalAlign=top;aspect=fixed;imageAspect=0;image=data:image/png,iVBORw0KGgoAAAANSUhEUgAAAdUAAABqCAYAAADqUsvjAAAAAXNSR0IArs4c6QAAAARnQU1BAACxjwv8YQUAAAAJcEhZcwAADsMAAA7DAcdvqGQAABXmSURBVHhe7d0LdFT1nQfwbzIhSDQ0LGiQNLC4RlJTUXygKFULK1YXtw+tz3VXCpaza3fbrsd9ne6pPfZ0u+7xtLtr62HdVbue1db6wIXiFiuiTWUFecrL4pqaCBIgSolGiMnMfn/3/u/kzuTezCRckiDfD97Mfc+dO+P/+//dzExKtm7dmiktLYUpKSlB1LgJzw8LpuPm54ubf7Tr7OxEOp1GJpPJDiIiw4m1v8FgbboNNp5KpdwacrgUqgnp6urKCVOFqogMN+H2OjyE23o5PApVERGRhKh7IiIikhCFqoiISEIUqiIiIglRqIqIiCREoSoiIpIQhaqIiEhCFKoiIiIJUaiKiIgkRKEqIiKSkD6/USkYgunwbb78+cWuJyIiMhwkkVsFQzXgj3Mef2b4LxCsE17X5E8H4uaLiIgMF17aeXmVic25KH2GasC+G760tASbfgE0bUzh3V0lyHT7y/yY9cfC4u+88EGJiIgMldIyYMyEDE6ZlsaZl9kcKzL9XCsUrLGhGrDQ3L8vjRf/cwTaWmzK7TB7E9xB7h0pVEVE5Gg3dmIGs+Z1o+pEZiPjq1Cw5iaok/0TZvwvnUlj5Y9KvUAVERE5lrQ1l2DFA6VeFlomhv/EZ5TIUDW2je3ELvm+81bsaiIiIh9pbS2l2Ljcz8Q+8tTTKy17UjiDdDqD32xSoIqIyLGtaQOrVWaiZWNf1WpMYpZ4G6TTaex/W6EqIiLHtneZhZaJfpj283eq3Mr+83aQdu/yFREROValu/xM9DLV+xEtMlQZqV4a+6WuiIiIWCZ6l375L07stV2vxO0jjUVERI4pFqgFcrFXqAYb6AM0IiIiuYJsjAtXvQtJREQkIQpVERGRhChURUREEqJQFUnY3HuAhRymuunBdN19vO873YSIDDqFqoiISEIUqiJDZRJQd74/1HI8SuUUt87ZHOd0DW/r+lEC19q2bn1vvI/7EpHDV7Jt2zbvfcHBn7MJ3iac7k7jww+78JNvnOBNl7j8Df/pt54/+2ZyP4SjP/0mxyq7/FvD21W3A5v8Wb3U3QJcfC5QlnIzqJ0rL7mPt2566leBGfVugjpfA/bWct9cYVHMJV67/FvV2rPcm94D7DyO243256Gb008DS5910yJSlJvufh/l5SOQ4v+4lnH5fyrVqFIVGWyzgZmsGC091zP0HufQxOCrZEU554v+KpW8PY+B2sX5q906u6sZjBX+8n45CRj9BrDiIaDxeYYzg7zm9xnsbrGIJEehKjLILmCglvO25VEGJqvTNg7Lf+xXqOMa/Mu8ZzNQy2wdzl/v1nlmCdDBef12AFi3CNjxMrDlMVapbZx3PDDWXyoiCVKoigyycWP4g+m4m0GZtY3ZZ4nJRJ1sN1X8YetwftZLDN5Dbrw/PgC2u1FzqIs/WK2O9CdFJEEKVZFhqNsF33H+ZFbKylcRGbYUqiKDbM9e/qgAai70pz1TgTH2+9I2/81NbXaJlqXkhKtsoa+S41WhNzaJyPCjUBU5EuzNQLcAs8LDDZzHRasb/d+NTvw8cMlngLpPA5+72ctZ7HzZNu5Zp/py4MbbgSs4XDPb3pXvLxeR4UmhKnIksMqc6D4Xmh3OdW8OeglY+SzQfhxQ/1mG7bUMz1HAvueBpc95W3vrLH6U89qBUbWsWMczcH8G7B3I71RFZNDoc6oiQ8i+zMEq1N3rej6fmjWJIfymd0U46+p7gXH74j+nKiJHjj6nKjLM7WSY7ogI1GpWr/PuAP7wr1jNToH3zUozOT4uBXS87VYSkWFHoSoyDLU+xrB9CyifDFzyNeBGDg0c72TlunKRW0lEhh1d/hUZzuz7gcf7owd3Ay0MVREZGrr8K3K0Y4jaNyHZoEAVGf4UqiIiIglRqIqIiCREoSoiIpKQgqFaqq9FExGRY1xpkd+73StUs+/adbcfq7Zv9o7gv0k4VvAuYhERkaNdkIVBssV9wiW2UvU24PDxhg/dHBERkWNT7RnMQmZi/MdFfZGhap8/9T+DU4L6i7tQdXJMtSoiIvIRVzWhC6df2uVlomWj/YsTXal6acyFpaUcgPOv7fB2KiIiciyx7JtxQ4eXhZaJXqHq/YjW6xuVAjbe3Z1GV1cXh26Od+O1xpHYteU4HNiTQqY7d31u4W575C4PxB+MiIjIUCtNZTD6pG7UfPIQ6i8+hBEjRqCsLOXdplIWrH7+RWVcr1DtWcm+sjDtfV2hhWo6k/GC1aZtvm0UtcOwyDsssI2IiMhQ8XLQuy31vo4wlUqhzAYb976e0K7gRgeqiQ1V75ZLMvzX7UI1ne5moJYwWO3W0txfN+6NvlF3GjVPRERkKGWziXlmo6UMUv+Srx+qFqilDFRLXFs3LssiQzUY7GMxHGOgpm0NhqpVqRaulrZcxnUC4fFAsfNERESGDeaUVaP++4r8yrSYQDWxoWo7Cj5raje2U3/av7WhNLTjqDspdp6IiMhw4KUcc8ofgszqGS+UYX2Gapi/Iy7jT7sk3DPPFx4PFDtPRERkOPHSzsurnquyxeRXwVANdpJ/a2w8qGbD8wPFzhMRERlqcfnUn9wqOlTzp03ceKDYeSIiIh8Fudd4RUREZMAUqiIiIglRqIqIiCREoSoiIpIQhaqIiEhCFKoiIiIJKQ0+Z2rC4/11ONuKiIh8FKhSFRERSYhCVUREJCEKVRERGXY63+PQ7SaOIiVbt27N2FcHBl8faF9HaOPhryXc+iNg1Vo37X2lvs+WXfQD4PTQdFj+tImalwR7Ag6NACpHuhkSbQOwaBEw8z6gwaY7gMYHgC1bvKXAWGD614FpvBURyXJtRxbb2/LjgRMvA2bNAirc7ES8Dvz7PdznF4Abuf+CuoB2tmWjRgNlbtaAHWabWHyl+rvA+bdw5/N6hvM5THCLh9rq7wFLnnMTUrSN7DBt2Q1c8Hd88f4jn9cansvvAjuOwh6iiBx5dV9ie2HDzcBZnwLefRJ4gkOiJgNX/ClwyUVuupDNwCN/DbzmJg/H4baJxYfqOGDqucCZocGmq9xizyH2Fg74AzsOuWwZq0nT0QJs55DFgw2288p963W4dcM63Drt3FeYzbftug+G9hHBqllv2/z7i+Cta+tEHIfHjrGvfcQs9x5DxPF3hE+YO76ceX3dn1tmq3e28dyylxcWnLec/TmtzXz9Xsvns5ZVPnt509gzrORjbnnLrSAiElJ9HtsLN0y7EriKbUbHCrY7bnkgrr3Oskyw5a6N7WKFmF03BYxhITem3E072XaZ62bZftw+OvOXUeQ2Trbt5T6aNwH72bYebptY/OXfklLcyko1fPk2PL5nJfDMkyXotM0+5GAH89USTHelbOsy4Ol1QO2IErS8yRl8Qhayt4NdwOP/DLTxwaVGMk84zLyK5ffzwOf+nk+gbcyTsfxuoKmV4yM4cP8Vnwau5gO3Sw5L2aPZaes5DXdyH96GuRrv4ombwo7AWp4ge/Js8I6TvZGg5A7dV4o9hu79nDeJx3IHj4VPtGnlsS17gk/WKKCcx9KZ5n3+De8zeKx9LF99D7CJtwtu8NcFz8WD7AXhMmAenzyPu8wy/fs8Np6PDr5an/ghb7kfD8/x5D8D5tS7abd+7YV8XC9xmvv3zl34sdi5tePg/Wzhc5G9/JuPgfwgj7HuW1znJDdPRCT/V0cBNz/b7gbtzj62f2wDLdQqP8M26bM9l4izbSTbshTbpRQLtLN4u208q0MGtbF2HQuBuWfxNrzPSm7Hdrn8fOA6ZlI727PFS7xNfEG2MCBX/wBYv437ZzvfzYwp574+v4AZ4Npyu4+D3E/7K9wn14/Mjn62icVXqn3ofBVY8lPgRD6QLzMgv/yvvHOG1waGwvag52EYoJ0zgfl8UrwHTS8wLPazR3A1t1nA9W++leX3Y/6yQCPnN7HHMpfrLPwXbs+yPPUiT+Sz/vK59iQzSCoZxgs5HhWogXZuV8b7Xsh9LuT+prM3tJ7HEITy9qcYvLyvOSz7F/wD1+HJrN4LrOR2Hj6eVXwxVF7PZf/EIOR+ZvKJ2v4cH1sRy0+bxieXPSJ2hjytWzh9Apfx1voMZgdfBDiV/9nvhzlz8b18vAzD+bxdyGEux5t42xhs4Ow/ni9IW8d1RuwyRhNfPN5j4XHM/wawL3gcEbr28L74P0cnn7tPKlBFpAitdtWR7cw41+5ae93M8euYBfPYBlp7DbbVy1/2l4PrL2cbX8miaD7b8wVssy5l6K1m0RVnJ7dvYkU5h/ueZ+0y27iRbDPXcV/VDOGFDF9jgR9ky/aH2bYz0OewDV/ANnAhhxMZkEuW+ssDbcylS7/D5RHZMZA2sfhQZZLf/xUOt/UMjz7jL9r6SyDNnsYfMDA8PMGn/zELpg+AzeETxQOewVDN/iKZVdobbUD9F/mEuJkVDJPz2HPI4jo7eOIa5gM1bp0yhvBsnsj2FT3hVLSzeZJ5gjzc3zRWjFU8hi3uYnz9TXwC+CKYzCfZw65VHSvC/VZdG4bmIfZoyizwnAY+iQtuZi/IJgosr2IXr5K9rGYXiG8yQMexBzeWT+yb7EmZFoZuFY+THTI0/4qPk+dtNjsMwXmr4XgD5+3gsrAzuZ9K1wOz49jB/di6wWMp44tiBiv8KB3sbT70Td4Xe3k3/jnv380XEQlrXcMOuw2NDEcG4mJWipVse7wLZ669PudPeqpBa6/Pm+FvZ4VFM287WAR96uKeNm0yt68NtZn5OlipgsuzV4O5/Y0M7JncdyS2f5sZ4nYZd3JQHrMdnHkF9/W/ublRzSo6296HDLRNLD5UzwCuZ5pfz15CMMyd5S96/13gBJbtOXhCq9jwd3JZVtDgB7jMTvKYvN7B6DFuxMSsU82TCoZTuz9ZtMr84+SZYoGHA+/4k3bJoJUnc/n9wMN/y7L/a+x5WccguPTKk3/2bK7zALDoDuBx9rg2Nvm/z/QUWs7HUTOWPa+tHOcT38ye04SpwHg+nj1vcB7DdjcfV417S3W7XX6u8TbLMYbz7BJIjvD55TI7b1Un+5MB77xF2Gxv8mKH52a+CLPBLCKS540nWSHa8DSrR1aLNbcydIJ36Lr2eu1dbDut/XRDI4PUllkcRLZpbHNG95Fadcyasaw6l7I9fpiV5woWVK1sP2O59q+Z7Xj4OJ6yQpDLwrlRFpOCA20Tiw9V9hLsl7Y5Qx89i6NNUFnaJYPFDMROPulT2du65ts8r+yphNVdA8znEzuLvavRe4A1HH+Y29mTWMzyyaxC9/PF2MEqtY0hN4nnciIr2N2cbmfYtnNeXX6KHmkjGMAxgSsiEpjBgsouwc77LtuyE9huRbzl9pQvsLgIDzcBF/A2XC/1C9vDa1jUXXc7cOqpwF6G6mIWLavyfgWWb/zlecfBgLR3LrN5L2yAbWIiv1Mdwzt+j/V0EBoe9iL28QGP7uugWEXZJc438942tiv87lW3zj67bh+y0y7Hct/j/MmitbMazDlO7td6T6PdZ5Bef5nP3y2swq8EzqznffNFc2Cfvyxgv3j3LguzFzPnK+ylXc95LwE7/MUFl1uApli9ruOxVLBKtfyceA7n8cW5jo+9nMuDTB1nlTXXC78Ry+zjvF5Vdxh7fRXsXe226jfEO28Rpv8FX7Qxl4ZFRHph+zKTQdX9Yuj9HWxH7WrrqLqedwjb0MA2zQa7fOu1aSwqcj6i0sG2apcbj9LFtptD1WSGOouV677FQD+elfJatzyfa/9KmRHh4ziT7e0nWNQUcyl3oG1iIqF6+kXc0SbgmV8xPOxEMVA3PAjsGQVMOcNfJxKTwx5oyw+BZfaWbO5j1UPcNhygXMd6JlZB7nCXO/czhF94lieGoRWEz/HsAnUweezEd4WfrHzcdlmjuxx7AFjB/XbU8gmf5C1FJV8U7VYx2j7sUjDX3R6+AM9j+wl7SP+zxu2DPzZv4C23856oQsvNFIYob7bwMdfYO9sM77+mnfnJEJzEgA1UX8jt+LhfeJKP23bIYQfHt3PeqVwWi5V3A5+XNq67ntWyaWdovxD1WV4+zhfY63wk/A46EZECKqazeGDbtuWnXi4CbEunsL3exDY9aK87GbhLvwk8+rQ/XX0p2zomz4q72N6zzd/OtnLZ3Wzfgt99Rth4P9une4Bmd8m3ncXHPu6/gvftYftvgW3FV5e1k679a/kPtn8u8Lu4/gru48F/4zH5s+IdRpuYuu222+60j8YEH48JxsPTezcCb/H2HAZAMN9kx/nATmGPYPMjJVizFFj7c7+ymvmXJai3X1jS+yzTXnsbqL+kBCz+sk5iz2Esw/d1huRvNvOxnM7ynL2R//PWhbeuBc9BLlv9Y+77Z3wCX2H4sZKcO8f/hI05+eN8chgga3n/e/jEnhZRxTWzR3WQQXwyezc//y+u+wvgHd73rNsZcm5HJzHtfu32s3YZQ469nXpWy618EZxrb8T6GDCej2njo8ArPOFrn2EPK81ezdd5n/aiKLTcOcgT1PwOcNa13unLzmvanTsPx/Hcnsbj+G9gzWJ/f/a28obb2GPjOfdwm7V8TBPn8vjdLDOW5zLNIF3LF7ydt1e38jjYs2x+NW9dVtavPOW/qO2zx/349YGIHCui2hm2izW/w7aF7dJvWZ3+3rje7fWGlUCG7cpVV7M5szKObe1pFwAfsljZ/ktmCwuJCX/ECpZB+Vu2aWdwP+bX3Bbcztry8axy32H7veYJ15YxiCsuB66c7TKAFUs528V1vM/1zKtaZsdEtn+jWFCsYuFk26xnQfFeDTD7S7wv196H7yPHYbSJRX1O1eRPm/C4sWn7MG13GUOPB5O/3PSaZxVh3hHbZ1oX88nLfk41wF6KfTh4JEOrPOZRdnJ5eczver3PqbIKtM9B2SXaQ3xIdpxRwo8jEo+7/X3exq1TaPkAeMfMW7sk3S/uvCXyFV4iIsVgxWhfuJBi+1eR3/BEtPvh9jmOfUHEB9xvbAZwWScjJmdZ0BYzFwbjfUB+Uiaowt7A1I8QafwOS2xWht7lVsMwW/M8z/cpeYFq7KRw/3GBauICNV85g6mv4yz4OHgM3pu14tYptHwAvGPub6Aad94UqCIyaKygYLvTK1Bb2ObfDqwIvcGpfR2r1l0sONnu96WM7WmfGcD76rUsaIsHIVBNTqUaNXgrRUyHbwOFpk3+vA6W/EvuZZltJZhT/gng0gWhzxclpJiekIiIHFlNTwPPPcsiMiimGHxj2S5fySHhZn/QDXmoBrzLrTZiVdUg9ShERGSIuMvDpq9f6R1tEr/8O1De5dZBLNFFRGQIucvDfV7OPQoNm1AVERE52ilURUREEqJQFRERSYhCVUREJCEKVRERkYQoVEVERBKiUBUREUmIQlVERCQhClUREZGEKFRFREQSolAVERFJiEJVREQkIQpVERGRhChURUREEuKFatzfOD0SMpmMGxMREfloUaUqIiKSEIWqiIhIQhSqIiIiCVGoioiIJEShKiIikhCFqoiISCKA/wfajwKxVbIl9gAAAABJRU5ErkJggg==;" parent="WIyWlLk6GJQsqaUBKTNV-1" vertex="1">
                    <mxGeometry x="-150" y="57" width="278.75" height="63" as="geometry"/>
                </mxCell>
                <mxCell id="KgBlzZdilrDWfoYo20FU-10" value="" style="edgeStyle=orthogonalEdgeStyle;rounded=0;orthogonalLoop=1;jettySize=auto;html=1;" parent="WIyWlLk6GJQsqaUBKTNV-1" source="KgBlzZdilrDWfoYo20FU-7" target="KgBlzZdilrDWfoYo20FU-9" edge="1">
                    <mxGeometry relative="1" as="geometry"/>
                </mxCell>
                <mxCell id="KgBlzZdilrDWfoYo20FU-11" value="no" style="edgeLabel;html=1;align=center;verticalAlign=middle;resizable=0;points=[];" parent="KgBlzZdilrDWfoYo20FU-10" vertex="1" connectable="0">
                    <mxGeometry y="-1" relative="1" as="geometry">
                        <mxPoint as="offset"/>
                    </mxGeometry>
                </mxCell>
                <mxCell id="KgBlzZdilrDWfoYo20FU-13" value="" style="edgeStyle=orthogonalEdgeStyle;rounded=0;orthogonalLoop=1;jettySize=auto;html=1;" parent="WIyWlLk6GJQsqaUBKTNV-1" source="KgBlzZdilrDWfoYo20FU-7" target="KgBlzZdilrDWfoYo20FU-12" edge="1">
                    <mxGeometry relative="1" as="geometry"/>
                </mxCell>
                <mxCell id="KgBlzZdilrDWfoYo20FU-14" value="yes" style="edgeLabel;html=1;align=center;verticalAlign=middle;resizable=0;points=[];" parent="KgBlzZdilrDWfoYo20FU-13" vertex="1" connectable="0">
                    <mxGeometry x="0.24" y="-1" relative="1" as="geometry">
                        <mxPoint as="offset"/>
                    </mxGeometry>
                </mxCell>
                <mxCell id="KgBlzZdilrDWfoYo20FU-7" value="is email&lt;div&gt;entered?&lt;/div&gt;" style="rhombus;whiteSpace=wrap;html=1;strokeWidth=2;" parent="WIyWlLk6GJQsqaUBKTNV-1" vertex="1">
                    <mxGeometry x="190" y="220" width="80" height="80" as="geometry"/>
                </mxCell>
                <mxCell id="KgBlzZdilrDWfoYo20FU-9" value="Display error message&lt;br&gt;&quot;Please enter your email&quot;" style="whiteSpace=wrap;html=1;strokeWidth=2;" parent="WIyWlLk6GJQsqaUBKTNV-1" vertex="1">
                    <mxGeometry x="330" y="230" width="120" height="60" as="geometry"/>
                </mxCell>
                <mxCell id="KgBlzZdilrDWfoYo20FU-16" value="" style="edgeStyle=orthogonalEdgeStyle;rounded=0;orthogonalLoop=1;jettySize=auto;html=1;" parent="WIyWlLk6GJQsqaUBKTNV-1" source="KgBlzZdilrDWfoYo20FU-12" target="KgBlzZdilrDWfoYo20FU-15" edge="1">
                    <mxGeometry relative="1" as="geometry"/>
                </mxCell>
                <mxCell id="KgBlzZdilrDWfoYo20FU-17" value="no" style="edgeLabel;html=1;align=center;verticalAlign=middle;resizable=0;points=[];" parent="KgBlzZdilrDWfoYo20FU-16" vertex="1" connectable="0">
                    <mxGeometry x="-0.275" y="-1" relative="1" as="geometry">
                        <mxPoint as="offset"/>
                    </mxGeometry>
                </mxCell>
                <mxCell id="KgBlzZdilrDWfoYo20FU-19" value="" style="edgeStyle=orthogonalEdgeStyle;rounded=0;orthogonalLoop=1;jettySize=auto;html=1;" parent="WIyWlLk6GJQsqaUBKTNV-1" source="KgBlzZdilrDWfoYo20FU-12" target="KgBlzZdilrDWfoYo20FU-18" edge="1">
                    <mxGeometry relative="1" as="geometry"/>
                </mxCell>
                <mxCell id="KgBlzZdilrDWfoYo20FU-20" value="yes" style="edgeLabel;html=1;align=center;verticalAlign=middle;resizable=0;points=[];" parent="KgBlzZdilrDWfoYo20FU-19" vertex="1" connectable="0">
                    <mxGeometry x="-0.4261" y="1" relative="1" as="geometry">
                        <mxPoint as="offset"/>
                    </mxGeometry>
                </mxCell>
                <mxCell id="KgBlzZdilrDWfoYo20FU-12" value="is user exist&lt;div&gt;with&lt;/div&gt;&lt;div&gt;the&lt;/div&gt;&lt;div&gt;email&lt;/div&gt;" style="rhombus;whiteSpace=wrap;html=1;strokeWidth=2;" parent="WIyWlLk6GJQsqaUBKTNV-1" vertex="1">
                    <mxGeometry x="170" y="330" width="120" height="130" as="geometry"/>
                </mxCell>
                <mxCell id="KgBlzZdilrDWfoYo20FU-15" value="Display error message&lt;br&gt;&quot;User &amp;lt;email&amp;gt; does not exist&quot;" style="whiteSpace=wrap;html=1;strokeWidth=2;" parent="WIyWlLk6GJQsqaUBKTNV-1" vertex="1">
                    <mxGeometry x="370" y="365" width="120" height="60" as="geometry"/>
                </mxCell>
                <mxCell id="KgBlzZdilrDWfoYo20FU-22" value="" style="edgeStyle=orthogonalEdgeStyle;rounded=0;orthogonalLoop=1;jettySize=auto;html=1;" parent="WIyWlLk6GJQsqaUBKTNV-1" source="KgBlzZdilrDWfoYo20FU-18" target="KgBlzZdilrDWfoYo20FU-21" edge="1">
                    <mxGeometry relative="1" as="geometry"/>
                </mxCell>
                <mxCell id="KgBlzZdilrDWfoYo20FU-18" value="Password reset token sent successfully" style="whiteSpace=wrap;html=1;strokeWidth=2;" parent="WIyWlLk6GJQsqaUBKTNV-1" vertex="1">
                    <mxGeometry x="170" y="500" width="120" height="60" as="geometry"/>
                </mxCell>
                <mxCell id="KgBlzZdilrDWfoYo20FU-27" value="" style="edgeStyle=orthogonalEdgeStyle;rounded=0;orthogonalLoop=1;jettySize=auto;html=1;" parent="WIyWlLk6GJQsqaUBKTNV-1" source="KgBlzZdilrDWfoYo20FU-21" target="KgBlzZdilrDWfoYo20FU-26" edge="1">
                    <mxGeometry relative="1" as="geometry"/>
                </mxCell>
                <mxCell id="KgBlzZdilrDWfoYo20FU-21" value="Now find the reset token in that email&lt;br&gt;and&lt;br&gt;click on Reset Password button" style="whiteSpace=wrap;html=1;strokeWidth=2;" parent="WIyWlLk6GJQsqaUBKTNV-1" vertex="1">
                    <mxGeometry x="170" y="585" width="120" height="75" as="geometry"/>
                </mxCell>
                <mxCell id="KgBlzZdilrDWfoYo20FU-23" value="" style="shape=image;verticalLabelPosition=bottom;labelBackgroundColor=default;verticalAlign=top;aspect=fixed;imageAspect=0;image=data:image/png,iVBORw0KGgoAAAANSUhEUgAAAgIAAADPCAYAAACHrLmPAAAAAXNSR0IArs4c6QAAAARnQU1BAACxjwv8YQUAAAAJcEhZcwAADsMAAA7DAcdvqGQAAC//SURBVHhe7Z0JtFdV9cfPY3jMCAgCIoI4Ic6YqGRkWo7LSNMkx7Q0y7KBjMxl6l/NqGywNFMzNUxN0tScZ3FaooioiCKCwAMVZJB5/r/P5rd/nXf5TW/68Xz3+1nrrjufYZ9zz95nn3PvraiqqtoQhBBCCJFKWmTWQgghhEghMgSEEEKIFCNDQAghhEgxMgSEEEKIFCNDQAghhEgxMgSEEEKIFCNDQAghhEgxMgSEEEKIFCNDQAghhEgxMgSEEEKIFCNDQAghhEgxMgSEEEKIFCNDQAghhEgxMgSEEEKIFCNDQAghhEgxFVVVVRsy2yIlLFiwIPzkJz8Jc+fOzRzJTYsWLUK3bt3CbrvtFoYPHx523nnnUFFRkTn76WbevHnh7rvvDl/84hfDgAEDMkdz88Ybb4SLLrooLF++3Pa7dOkSLrvssrD99tvbfpIVK1aESy65JLz22mu2jxy/+c1vhmOPPdb2P62UUm+8zvTv3z987Wtfs7rTXOpMc+PFF1+0eupQx/fff//MnkgT8giIvKxfvz7Mnz8/PPXUU2HkyJHh1ltvDWvXrs2c/XSCMicf3/72t8Ojjz4a1q1blzmTn1133TUcdthhmb0QFi1aFO688868snjhhRfC66+/ntkLpgzj+5szXmdefvnl8LOf/Sz87W9/+9TXGSGaOzIEREnQwKP8aOA/zTzwwANhzJgx1msvFXq09Ob79euXObKpsncwEv7973+bvKB9+/bhlFNOCR06dLD9NIEM8Lo888wzmSNCiKaIDAFRMqtXrw4PPfRQWLNmTeZIeujevXv4+te/Hlq1amX7yOKOO+7YxKB47LHHwnvvvZfZC+YJwKOQVjAG/vvf/4Zly5ZljgghmhoyBISNkz/44IObLHfddVc4/fTTQ2VlZebKEGbOnBmWLFmS2UsXn/3sZ21x8Ag88cQTmb0Q5syZE+69997MXjAPAp6E5jpGnqve3HbbbTY3gLkCTlVVVfjwww8ze0KIpoYmC6aQ5KQvGnTmAOSCHi+TiNwN3rFjx/DLX/4y7LjjjrbvECYucdzAjBGjCHr16hWOOOKIcOSRR5qLPAm9RYYa7rvvvvD2229nDQwMj549e5rSPfroo23yWS5qE+fUqVPDz3/+87B06dLMkZrsueeels927dpljuTm/fffDxdccEH4+OOPbb9v377h8ssvN4/B9ddfb65wwHOAjD//+c/bfszs2bNtmOWll16yoQTS3aNHD8vvV7/61Zz5LVZmyQmKyfyMHTvWxuuBc+ecc0645pprwqRJkyyt++67b/jud7+bV9ZQar1h3sXo0aPDuHHjbD9XnWGuBsM0jzzyiBkK1AWfaEha8L4gkyTch1cKA2zWrFnmmYFOnTqFbbbZxuoLcoyNV9iwYYPVsXvuuSdMnDjR5A7ESV3be++9wzHHHGNhQFKehx56aPjhD39Yw6i79tprLTxAhpdeemnYa6+9bB8++OCDcN5551ndhO9///tWL5261IN4gl/v3r1t+/bbbw/PPvuszcUYOHBg+MEPfhC23XZbuwZ5cZ75MMRBfdhvv/3CGWecEaZNm6bJgsKQR0DUChrYNm3aZPY2QsN67rnnmgfBGz0adnrIKB+UDo1ODI0WioiGCGMg9jLQuNPI04AR7jvvvJM58z/qEmdD4L18Gm0gnfSEMTRobB0ac5YY8nzjjTfaREUUoCsj0k2Pmbx861vfCo8//rgprsYCWf/2t781GRI38kbJJ8u1sfjoo49MQVJOyI80AGvKEnlStijuGL8Pg4uydSMAyNNbb70Vfv3rX9sbHfFQBLLEQMNoYeKryx2IE8MGo4Q4n3vuOTuOwvzMZz5j20D5xnUUQyEeAqJs33333czeRmbMmGFyBZQ6k0ahoeoBQ3TXXXedGUXIgvsxUL0ckRHPAcaGx0G6kQFGH/NchAAZAiIvn3zyiTUib775ZuZIsB5L165dM3sbe8goFe8h54KeEQ00DblDg0uD70ogH4RLzytu2OsaZ0PBuL836kA+rrzyyqy3gdcLjz/++Ox8AqBB/89//lNjImEuaKivuuqq8Pzzz2eONDwosNi4wrijx1vfCY3kkTK55ZZbsgoVYuMRbwHDB65E8Zggk/vvv9961MgOUFxc5/NRuO/vf/97DeWbj/Hjx2c9MzBlyhR7U6RYXUP2GBk+jMHcDvcqYbDEcfP6KZ6MGF4zjefPuKEFvKKKt6oh6wFGUzx5F+N02LBhYauttjL5/e53v7PnIBfUVYwQIUCGgLAJbrjTk8sJJ5xgjXHcYNFLwg0LNM40aq6QafDPOussc/Un5xcwtyBueGjAPFxcxjTA9MpY8BTstNNO5mbFHfuLX/wiq6TqGidxYNTwPr+Dy5rGFkX+q1/9quiwgENaeBPAlQSNLnE5uJiT3yagt8jkQs/zlltuaYqPdLPQ0yU9QO/ur3/9q3k3GgtkNGrUKFPAuLcPP/zwzJnSSdYb3N4nn3xy+Ne//lWjzrgSBJQnrnAgv7jAkSNKDPf87rvvbucgno+yePHiGh4CvmvBcAdlh/wYsiCOL33pSyZX6q6DIevfgMCQxYgk39x70003mTucb2SceeaZNqSBIgWGCRj6AXrxPkwAlKf39h08AKQTSDcGiMNwDDJv6HqA3E477TS7lzzh8mf4AgMiNlx4nniueL4oH4Z13KslhGqCKBkfR3UWLlxoY8wOPeWvfOUr1hNGqdLIH3zwwZmzG5V/7F51aGz79OljDRjLdtttF/74xz+GK664wsL0XiI0VJz1JfltAYcxWpRicoIgbl73GKD4eMceo4p0s5Dm733ve1kvAj3OxvQKHHTQQdYbb2xlgPJjKMWNM8au6Z2jhDHM4nkDLVu2LHl4AoPBjUNkdsghh5jH4Mc//rHJtXXr1nYuCcYChonnm/kBjI3/4Q9/sHSy72WHwUuddxh6oKdOrz42ChyMU8b9ASMGzxVQ3v7mSEPXA+SAUeTXA8Yy3giH5we58FyRN/LFfIXBgwdnrhBpR4aAKAqNJorj/PPPr+E+xoUa94ro9cQKkIY97uHRqKHIAYXpjTFjlvT8H374Ybsm7k0mqU+cDQlxJr8tgLI79dRTsx4TB+UR985Qfrm+SojS8R4o4L6nUW8MknJrDDDMGHePJ9AloaeNlwDvwoUXXpj3mwP0kmNZM+yDFwdDL98EUAdZuyHCpFcm0+FNIF7iLwRyciXL8AD1ifhcyZOuPfbYw7ZjrwFGw8qVK22bMsW70Bj1YJdddtnEk8UwmhskwPPgkyAd5CFDQDgyBERBcLUyaQ83clLB0dP2xg6YpBW7ill+85vfZM6GsGrVquz1GBYHHnigbaP4aezolaFImfnNJCdc/cnefH3ibGh4UyDu0eLmjZWVgwLwCY2AezrXMAS92M6dO2f2Ns7RiCfENSQ+rNHQoGDw7lCGuLXpqScNDsqbOQQYf/RmmRjHHAuUer78Ei7DDj7EwHVPP/20GQ/Mx8AoY5tZ9UnljiIkPW54otCZqEi8xM9w0c0332xKPgmfSiY/gAGKa59xd58fwLmjjjoqayz42y/MF3BQ7Dw7jVEPcs3rIP9xncfLgoGchLcOhAAZAiL7PjhjjH/+859tPNFhJjy9r4Zwr9NT8d48DRjGBW8NDBo0qIaLGkVBz4l5A4x/8kGaQrOnCxHHKTbStm3bTYy6uuD1Jl6Yb3DDDTfYrHQUXRKUoc/sR2lS1riumV/w+9//3gzEfNB7vvrqq01x48KPIVwMCeoTccdvjKCkuQdjg1fn3DsAxM8YPMbuN77xDZvNHxsSW2yxhc0fcOjxY7S6FwJ3O/XX5xVgZPCGgcdP3HgVGotCr3sKUSoyBEQWlDGNLe98x2OjNLCM18cz9wGFEo9NMtaaVAzJJX5PmfiGDBliDTQKhLcDaLCJ23tKNPAYBP4dg/rGuTkgL3gPHHqe5CsJM87p/Tn0CmOl1VAgv8YItxSYKOjfF6D8Tz/9dJszwJg1w0Vx2eYCT8Zxxx1nk/zwGFEv8QbE4/4oY7xLsfGKV4LwL774YnujAIVPnEOHDs0aRRgFzOZnHN/hvgMOOCAbNi5/hrIcvA0YC+7Kx+jkfjc+Oe4TRxujHuTy7CQ9CsghfpvBkYEsHBkCYhPoreO29Y+SwKuvvmoeg7hnjps2nsg3YcKEOvfcUQC41WnkMUQY/3W3J25Rf92tIeMsFyiA+C2CuMcYg4xRYg5KJpdLF5KNO4168nW2pghGJQoX6NXHs9cpRz9XCsiV+QfM9sdTwJscDu77fK/OER9ucbwQDCcwm949DMQfu/WBXr97NygfP09vfIcddjDF66+Tcj/v9Xs+GDpyQ6Mx6kEuMA7cQwF4XpJvHmDUM7QiBMgQEDmhIfnRj36UfZUJeO0p+U2B+H16JvsxE5xeDo06jdx3vvMda2xpHP2jJpxjhjXXM5uZSYi8euWNJ40UY71xb8l7PnWNMxeMo9JAEi+KtTENCuZDeB54lc0nuuGGZiGtDMu4W5qeZOzJSPYmURaMs5N2JlDyGmQ8/vxpgLR7mQPpRznmArkwQY+ePGP7rOP6RDkiE4cetL+BQO8aLwR1ghn5eJdczhhTeCniCaXJcXfkHg+XOZSRGwhM2sNbFYPBgTchniNR33pQChgNfMzKDSzkhOeEZwNZUdcxfuK3b0S60SeGUwi9x1I+FUujgZLltSyHHg2f1PVeOb0N3K2FFK5Dg4bSpwHkM73xDOpCMAmPOH0iXl3idNdq8h/sDuO48Sd5S4VhDWa8A71M3lHPNW7LrO+//OUv5lUpBmn96U9/usmXCeNP2hYjmZ/4E8MYd7k+E12MUutNIXiP/U9/+lNmL4QRI0bY54RRxLwyGitz5IgCwzPFccq81MmTXu5AGJR7KSB74omHxgAFHU9CBSYann322baNscGrgNOnT7d9wMvAdwni+Qz1rQfJ+ksZ5zIUMIx5Zl555ZXMkeLkC0s0f+QREHmhJ8OMaH89ClDefJDEe89MpKKXVUyB0ovnTQAaN3+v2cdVC4HS4hW0eDZ+XeJ0cPMmJ5oBDXmucdSGgl4aHz5i6MN7arkgT+SXseskjIXHwzUxyJSJcE0dvl0QK1km6aFQmaiHsqe37PKhTPzLkD4EUIqhRv3wcmdhO/Yi5YNr8Tbket2RIYDYwCON8XW4/5OGFV6E2IsDDVEPSsHvj4ciYoj7y1/+cs5nQaSPltUW/cWZbZES6C3wxT2f+Uxjka/BoXFEYeOG9t4YxgAK1d9NRjnxmiHQa3Q3PY0RjSPfVKehj4cZaFT5IA/3cg+v+Xn4NFKEzRguPU4a4SR1iRPYRxHxwRcma3EPjTiTFvfZZ5+8H6LJB99rd88G4fCp3nzKCiXAu9soQ3qG9ILxjpBfhmKQB71KPj6TfOUOcFnTY2NIw9+BxwBADvTUkYH3qJlLwQx8z8/kyZOz5yhTXuvD01IbalNv8kHcuMuRO+588kL+qU9MFKXcGH5imIBhA67zyXooVvJKGHzBj3v9/Xovd76sRzg+Lg8YF3gvMBBIOzL31+tc9pQJdY0fHuWSPWGQLp+Hgez4y6LXL+5BPvHHf/i6Ya7vBNSnHvB9gHhsnzJOfiPAob7wgSKGLEg3cSA73nIgrxiOeLO8PAuFJZo3GhoQQgghUoyGBoQQQogUI0NACCGESDEyBIQQQogUI0NACCGESDEyBIQQQogUI0NACCGESDEyBIQQQogUI0NACCGESDEyBIQQQogUI0NACCGESDEyBIQQQogUI0NACCGESDEyBIQQQogUI0NACCGESDEyBIQQQogUI0NACCGESDEyBIQQQogUI0NACCGESDEyBIQQQogUI0NACCGESDEyBIQQQogUI0NACCGESDEyBIQQQogUI0NACCGESDEyBIQQQogUI0NACCGESDEyBIQQQogUI0NACCGESDEyBIQQQogUI0NACCGESDEyBIQQQogUI0NACCGESDEtR44ceXFmu1G5+eabw9y5c8OOO+6YObLx2P333x/22GOP0LZtWzs2ffr0cPXVV4e+ffuGrl272rGmwMqVK8M111wTFixYUCMP9WHRokXhyiuvDJ06dQq9e/fOHBUiPdTlGaDduO2228Jjjz1mS/fu3bP3cu61114Le+21V43tfLz66qvhxhtvrNEGlUIpYZdCXeMvF3XNZ1PPV5KmqnfKRdk8AltttVWYOnWqKVRgvWrVqrBhwwYrBGfKlCmhc+fOUozNCBoTllw8+OCD4aqrrsrWi6ZGobSL8kIdoa4sXrw4XHLJJWH06NHh7LPPDnfddZcpnsYEg+Xyyy9v9HhKJZke2tDLLrusRlvaXGlqZdEcKJshMHDgQFP83uDjHYDddtstfPDBB7YNH330kfW4m5oVSXrOPffccMQRR2SOCCHKyVtvvRWWLFkSTj311Gz7sN1224WhQ4eGcePGbWJMnnbaabYIIQpTUVVVtSGz3ahgxV1//fXhuOOOs4cXa27SpElh2LBh4dFHH7WHG6677rrwuc99Luy99952D+6aTz75xM6NGDHCjifBCh47dmxo06ZNqM5P9jp6cpMnT7ZrBg0aVKNRoCf61FNP2XafPn3CWWedZY1LvjhpZEgbRgrGCnh4xH/rrbeGk046yfKWL2wg37fffrttc46G7cgjj8yZr/haOOigg3IaIuQTI2vWrFmhR48eFh+GFq651atXh8rKynDGGWdY2oD0+rntt9/e8ka+vvCFL2Tz6PF4b9jzmi9vLh/kDy7v+PpkGSRlQViE0xhlHucZ4nDzlXmhtHv8Z555ZujSpUs2/8XqblyPkjI+4YQT7NwWW2xheUjG6ffiXZs2bZqFnaxfcf7jcs9XPhCXg9+DezR+XpN1PJn/fHLneLJuotBLfQZiXE6xTJLE1ySvz5VG8v7AAw+Ec845x2SIjCCWaVJ2lCVtl3dsOF7oGUuei/H4eQ7ZBq8rcdqQsZcBZfLII49k03P00UeHp59+2upDHFeu/ALH8aog9+Q9Sbg2zifeWk8P5GsPcqU9KQ+8vsg1+cx4XWA/roOQqyy4tlCbmyTXtbSXyJaO6QsvvGDnks9fPnlCvvjjfIOnF/K1EZuDsnkEqAw0YLj+gQeJ8SMaHColBUEhA4XO9i233BIGDx6cdQEynwDB5gJh0rhyrVcMdyGysM0xoJJOmDAhnH/++XY9De8dd9xRcpyke/bs2VaQEA9n5AsbuJ6HgwLnHOn1SpCEaxn/JA1cyz2E63EmmTdvXhg5cqR5LcjHP//5z3DsscfavazZ514WtulFcW7ffffNPlTFKJS3J5980vY57vLmepQdD03ywQHKCePGHxyI5U+ecfvWt8yRx3333ZeVBzJFtsiiUJkXSjtljRHiaaP+0mDmqrvF8pHE85CM03nzzTfDiSeeaNeAlwHy9nuJd4cddgjPPPOMnctXPsl6hoyQFY1Y/LyyJr/xPud5rmO5Uzd4NvxZg2TdLPUZiOE+4iDOupCvbjiEj4IhPaQzViJs01HhGSfd3lhj3KCEXdbIjXD8Gcv1/OWC/FN3uLaUukI5xOk58MADrT4wz8IVeillwj3JtOcCoxNlzbXbbLON1W2uLdQexCTlQdvDPmEgb3QBkGeMhHifvMbDxLnKIk4H+YVc6YBCaaYMkBnHeR7effddux4KyTNf/OSvLu3O5qCsbw3wENObRggInUbEDQSEgxAoGI55w3rAAQfYvVRuJnJ4Q5SECsPwAxA+8xGovFQcFrZ9jgIVjQpNPECDy1JqnBwHLzTy5HERNoXrYePx4LznD/x+4qFC54L7zzvvvOy18fBJLuL8EA+Nwi677GL7rNnnuKfB88g5FHEpFMob8OAQPnKgMfUGs1SQP42ilyNpoxdZ3zKnTMHdx8gU2ZKP2tYzh/DjRixWjLXNRxLCJfx80HCTTs+jG6XI25UY+aThislXPvRW3GCIw/DnFQgLo5G1yxqD2Lc9zeSfOuLPGiTrJpTyDDQUyTR6/t0jw/kbbrjBzvuxUvBygNhAIY/5nr9coPx4lqC2dSUXpZRJvrTngvbB80I6qdvU8WLtgZOrzIHjvXr1ytYp2jjqGLBP+MWeBeA6r2NcGz8TSeJrwdt+oD3xcqCD6vEWk2e++P35a8h2p7EoqyHg8wS8YrilR4OCMKkIXikpxPnz54crrrgijBo1yhbcMt4wFQKh4/bC/ej3ss0xCoclV+UvNU6vCKSZewiPgiRetnER+f3XXnutPTgLFy60/NEgeAVjzX4uCIuJUR7OG2+8kTlTHOKhl3/RRRfZvazZL2ZMFKJY3mhAsfQ5xrkLL7wwb8OXD2RZUVFRp1m7hcqcCanucXCZ+ATF+tQz6rM3fKypx1CffJRCXHepiygSQN7InTwwmYqycfKVD/fjvqXh8vzjAgXP34wZM2zdv39/W3s98jqPjGnQS6E2z0AM19FJIP7aUiyNGEIoAXp1lF19qe3zR968rng+60Nty6QYpMfLi3QiK9rxQu1BTLLMY6hDrhPwsPTs2TO7z9qN6XyQ13zteZLaXBtTSJ4uh1xhIqfGaHcag1aZdVmgEiGEDz/80ITkFYPGCIEiBLfIOMZrQT4GWRsIl4qXb9wxX4NSKE7SHUMFRTlPnDgx68UAtvP1LCh8GhvCIo1ewXLhE6NwNxE27idcqqVAhY3HqWLc1VVbCKdQ3oDjfg5lglvMH4RSIJ8obRqSpPyLUazMgV4gUA6MzeEupxzrWs98eIA6QGNAowb1yUcpxHWXvPj4I716enrew3GF7uQrH9J4wQUX2HEaYMY0qSf0AilzDAEaOgwB1nGdpw4j93xKLgl1s9RnIAmGFs8AeY7l6s8GBk0uvG7kSyMeCcr/nnvuscXlV1cKPX/FQB51UVYxxfJbH6jTtNXU+0LtQdzOJMs8hnIkr64TeIaob2+//badj4cFckF4pKMUBVqba2MKydPlkC9M7m3odqcxKKtHwAv9nXfeyfaewAubB8AtY29kfeIGQqSXE49z5QPhU0HjmcQ0fG6NEXfsOiJMznXr1q3kOD19jz/+eNZ4AcKOexbcSxjsu6Lw8Gl0415bEtLKg8eavJQK8dC4YkwA8dAD9MadSu1p4BqfI+APiru8SDNycgrlDfnGiodyJizCLBVkSqPs7jHSxlhmsV4BFCpzGhnS6Y0T1yIDGqiGqGd+ree1UD64ppCMS8HrrteL2NXJM8RxypyhACdf+eCijF874/kj7YRHWpHN+PHj7VrwtPvz6zKI80Md4ZjLI6a2z0CM191bMmPUQHwYAbGLOkkyjZCUBwwfPtxkGyuxulDo+csF+Y+fR68r5MfLEqhPKOFi1LZMiuFDSoCxSf2gjhdqD2K8zD0Mz6sfpy4+++yzVtdIH88lacdVXkp64/ac/CafiZj4WiDNtBGF5FpMnvnih8ZodxqDsn1QyMH9w2QnxkZc6bdq1cp61whq//33zx7beeedw7333muTKKgozKxlBmkShPj6669bgXiYFBIPzp133mkTNChorK+OHTtaISxbtiyMGTPGzvGRILfM8sW5du3a8Morr4Qtt9zSwiZ93EfBM+GNfUiGPWfOHJvcwnHyR+Um/IcfftgszPbt24cBAwbY+RjyQfqxHp9//nmT18yZMy1uz6PDBz/AP/rh8TAhh3hefvllG7diScrV08DDSNg09M8995wZOAx9kP9169ZZ2IXyRsNFOpno5DI95ZRTLC30jskHjdyee+6ZlRWwTXwoGxpzznvaqBPHH398dnwypjZljuUdywN3JvuHH374JvJI1rNCaQf2kRPy8XQmw0zmI5+MmbEc17EkXge5/6GHHrL7aZTpwRJnHC4KnvjoqZBuws5VPpQdjdNNN91kx8n/kCFDsmO15P+ll16y55Jrly5dajI+9NBDrWwhlntSfvnqZq5ngHLko10MdSSfByCP++23X40yJr5jjjnG6jbE8cXbybpBHMgN9ywNPHnm+ad+o+yoV54/YBtFRl2gHLgOPF8oS2S6zz77WBuT7/lLQv55rpHBP/7xjxp1BXnQXhInaWafOs3kVeQTp2f33Xe3e9mnvhNXqWUSpz1Zv7m2Q4cO5ram7hRqR+P2gHzFco3lEV8HxImMKCMW2lSU58EHH7xJWwfJsiCvng6e7fiZSJJMM/kmP2vWrKnRnpAG2iTSwz2F6ngcZhx/sh7Upt0pN2V7fVA0TajwPls6l4tPFAaDJPmKU2OhshJCNAZlHRoQorlBzwQXn/duhBDi04YMASHqCGPMuEt5lzx2IwshxKcJDQ0IIYQQKUYeASGEECLFyBAQQgghUowMASGEECLFyBAQQgghUowMASGEECLFyBBohvjnKuv7qVQhhBDNHxkCQgghRIqRISCEEEKkmLJ+UIjPsfKLU/9tKj/PyPXLT1za/FGMn6H4n/H4sY9/Xx3XN79z9L+WjRgxwn49y5+b+MmKh+l/F4v3+blO/J12/347x6dNm2ZhJn8hyn38dAP4WckZZ5xh35X3ez2NcX7IA//DB7+Hn1nE36VHHrfeems46aSTsvtjx47N/gApjjcOm+P8/IMfkvTo0cPSyk9xPD7Sz9/PCv2SVwghhICyeQRQmvz//Nhjjw2jR48OZ599tikylF8uUMj8XIVrUfT8OY1rCYffkPKnOg+Hvzdxjj/gYQhgKLDwS9Z4n+18v7Tlj4gnnnhiuOSSS2z/jjvusDUKnXA4Tnz8752/kwF/v+KPbxznPNdxPXHxZyvSxjnyTN4xLDA4+IsVsOY79fE+5zECMGo83vPPP99+cxn/opJflY4cOdL+dY1MMJyQE/Eht1J/7SqEECLdlM0QQAmitLyHirKkV5sPfuXIr3cBxYjCBH6vyn1+jp40v3ZEifovK/mHPwtKlXNsYygU+jkMCp6wSCe/tfT/S5Ne0s1xFC7KOcb/1Z3MH14PNxjiMEgTBgkQFr97ZU3Y/LaT32D6Ngqde8g/ho//Dxvi/227MUX6AdkgPyGEEKIYZZ0jgEt71KhRttCLd+VeG1DO/EP8iiuuyIaF+xzlimL0HjcLvXUWtvk/tivWXHCfQzi48wEle+GFF1o8zMSPe9oMMQwdOjRce+21dp7ruJ77zznnHDMmPI3kHdxrMWPGDFv379/f1qQPUOYoe1z7vXr1smPF4F6GUTxvrNkXQgghilE2QwAFyVCAu8sZF68LKNnu3bubu5xwfPHxc3rUKFZ62ShdV7zEnW9YALjGwdjweQz06vEWEMell15qHoYYjAFPA9cxBIAiJ50XXHCBHSfPeA4YNsAjgXGCIYDxgSHAeuLEiXac+1yRu3FQDAwGDAf3FrghIYQQQhSjrB4BXPooWUDBFhoayAeKFE/CCy+8YPuER0/dx89RpCh9FDtDBSzuzi/0z3gfCkCJjhs3robr3V33GDModIdevvf0AYWOMmf44rLLLsu67EkDrnpX8qR//Pjxdi2w9mEB4Bq8Fz4UQLomTJiQ16PhQwIuE+LVHAEhhBClUDZDAGVFj5mZ7bjK+/XrZ0rNDYNS4Z5TTz3VFCPhMESA0vY3AVD2Pj7Ota446cnnUqIOs++vvPLKcNFFF9n+CSecYOthw4bZxDyO09vfZ599soYB17Dt7n/SNHz4cMvrUUcdlR0yII277bZbVmGj8BnecNc/azwQfh7IDwYC8SbzmAQDg4mOTKgkPiYq4jUB0nnVVVeZN0IIIYRIUtbXB5siKEpeAaS3nU/RCiGEEM2Vsg4NCCGEEKJpIUNACCGESDGpHxoQQggh0ow8AkIIIUSKkSEghBBCpBgZAkIIIUSKkSEghBBCpBgZAkIIIUSKkSEghBBCpBgZAkIIIUSKkSEghBBCpBgZAkIIIUSKkSEghBBCpBgZAkIIIUSKkSEghBBCpBgZAkIIIUSKkSEghBBCpBgZAkIIIUSKqaiqqtqQ2S4Ld08OYczEECbMDWH12sxBIYQQIqVUtgphcO8QTt4rhGMGZQ6WkbIaAv/3ZAh/fSmzI4QQQogafHtICL/4QmanTJRtaABPgIwAIYQQIj/oSfRlOSmbIcBwgBBCCCEKU259WTZDgDkBQgghhChMufVl2QwBTQwUQgghilNufanXB4UQQogUI0NACCGESDEyBIQQQogUI0NACCGESDEyBIQQQogUI0NACCGESDEyBIQQQogUI0NACCGESDFl++lQn9GZDSGaIe0/mhlaL12U2fsfazp2Ccu32jazV15arVoe2s+dHirWr8sc2cjmTFND0GrZJ6Hdgjlh2dY7hPUtW2WOCtG8qBqV2SgD8ggI0UCgYBcP2CO7LOuzQ2i1fIkprsaizcKPQsc500LFhprK3tnQoqWlw9O0pN+g0LLaQOA+IYQAGQJCNBJr27QPa9t3CpXLNvUUbC7oQa/u2C20XrEkr/EghEgXGhoQogFgaACSLvfkcXribRd+YNvr2nYIy3r3DxsqWppS7jB3Rmi5cpmdS7rv46EHP4enocOHM+xYHJbD0EC7D2eGFT23NaPEIQ0YAn59HDYehOW9t7PrC6UpjtvvWd+qMnT44L2wovs2dn8yftufPzss6zXA7usw593QYs1q217Ws39Y26FzNs71rVpbmjzOZP7xamhoQDRnNDQgRDMAxcfQwOoOXTbuVyvPyqULzD2Pmx5l125elZ2rXPSx7XP8k+12DS3WrskOKaC42ee4n+MYinNl1145jYB8tFi31tKwpl0nu544PGziNg/G4vl2bb40EUa7RR9khxyW9+gb2n48t9ogqAjrWrcNLZcvtftt3aJFjX3Oc137D983zwT3YwS0nzfL5OV4mtzgQfEjN0+HEKLhkCEgRANBj3WL9yZllw5V74ZVW/QwhQ0MEaD8vBe7eovuoeWalaZYweYTVCs8FPTSrbfP9pDpva+sDofjLGyX6tpnoiDp8DR1en9yWFfdO1/VdSs7TxzERbiEl1SyudJkrF+fNRjiMMwQqM4TtFi/Jqzq1M3Wng+MoparV4WK6njWte9o161r3yGsr/yfAQFuqAByI83IzfMvhGg4ZAgI0UDgsqaHy0JPfX3ryrCmczc750qWYYHYUKhYs6b6+GpTzBgNrrQ7z3jTFHDF+g2hYt0ac8Nn76ve5hjnipGcLMgSDzkQB3ERbqf3p5iCdvKlCYWMW55euqfJh0BQ7hgCXNdy1cqwvm17W6P8gf2wttrwqajeblVpxwrhcsPAyNKq2pBqoaZLiIZCT5MQjQBKlF4sLnCUGT1Z3OwYCLFS/qT/rtnxe+7x47jocbdXq/KwoWVrc5/H9y3pO7BBxsfp1RMXYZKWdSjqiFxpIj/ETRo4Hr8dsa6yTfW5ytBi5fLq/Le1vLFutWyx5d/SjCKvtmEwgIrhcnMvg4EhsX59ZkcIUV9kCAjRSKzccmvruTPWDrjFGZ/3oQDG+TvNmmL79Ki9Vw30gDcqztbmJm+7eJ4pYOC6Qq8M1hZ63IRFLx6F7uRLE737TjOn2PVAz35D69am4FHcG6p7622WLAjrW1Qf43z1unU0VwJjYQPhZOcOLAstVq/MDhUk4T4fooCm9BaGEM0BGQJCNBL0fpkTwHAAvWXG0tlnnB53eptq5b5iq23tuhU9+phCdlc7BgOGBNArRwF3nr7RhY9LfnnPfqZ0UZ4o0Y6zp2YNjNrAPAXuJ2x6+6s7d8saBvnSRC9/RfXahwzIz+r2XbKeDRS3KfbKje58W29Yv3FYoBrSTfoJj/sZ6mDCod+fBLnFQxQVeAM0NCBEg6HXB4UQQogmhl4fFEIIIURZkCEghBBCpBgZAkIIIUSKkSEghBBCpBgZAkIIIUSKkSEghBBCpBgZAkIIIUSKkSEghBBCpBgZAkIIIUSKKZshUFn//6MIIYQQzZ5y68uyGQKDe2c2hBBCCJGXcuvLshkCJ++V2RBCCCFEXsqtL8tmCBwzKIRvD8nsCCGEEGIT0JPoy3JStr8POndPDmHMxBAmzA1hde3/miqEEEI0K5gTwHAAnoByGwFQdkNACCGEEE0HvT4ohBBCpBgZAkIIIUSKkSEghBBCpBgZAkIIIUSKkSEghBBCpBgZAkIIIUSKkSEghBBCpBgZAkIIIUSKkSEghBBCpBgZAkIIIUSKkSEghBBCpBgZAkIIIUSKkSEghBBCpBj9fVBsVh5//PEwd+7czF5NevfuHXbZZZfw/PPPh6FDh4att946c2Yjq1atCo899ljo0aNHGDJkSOZoYeJ7ttlmm7xhx9QlnkK88847YdKkSeGwww4LL730kh075JBDTBa+3djMmTOnpLwXoz7hkHdkAW3btjV5dOrUyfaXLFkSHn744bBy5cpNztWVWO71DUuI5oQ8AmKzgtI7+eSTbUHxs/h+ORSi2DyglGfOnBmGDx9uZd21a9fwzDPPmNEFGAkc83NuMG1uMFDGjh2bNWCEaA7IEBCfWtq0aROOOuqoOvfS6cEed9xx9eoR14WddtrJ4t2cvdKGyntdw0nKoG/fvmHFihVh9erVpmwXLlxoxwCvEMdY6kNTkLsQTZGWI0eOvDizLcRmZfr06bYeMGCArYHGf9asWWHdunXh6aefNtfuvHnz7Bp6j7iPFy1aFPr06WOuddzUXMM9/fr1C61atcqEtBHCee+990KHDh1CRUWF3d+lSxeLh216qS+++GKNeOJ7iIfe4IMPPmgu6y233DIT8sZe7JQpU7LpJz3kKd6fP39+WLZsWXjyySdN0VVVVdk5rsmVf4f03XfffWHChAmWNo87mRa/bunSpdl4yMezzz5b4z5c+p53hmbGjRtnaZ84cWLo1q2bKctYni6LJHE4hWRYDOJt165dGDhwYPj444+t/LbffntLB+G+//77oWfPnpsocfKfK4+E52mPZeVy59q33nrLziPTyZMnZ/MdX4ex6Xmk/MePH2+ypdw8XMqd6wkrrndePzlfG1kIUW7kERBNnrVr11pvETfxwQcfbA0qjXUM+4wnH3/88XYdjfRrr72WOVsaxNO6deui8dCo49KmhxnDnAOUli+kJ95n4ZragkLBbb7ttttm00YaUFCkAY8I+4TvLnX3kpAG8sV9HEPpcV8SlNugQYPCiBEjrHdPOC5PFrY5VoxSZBjDuTFjxth19PwdFKkrfdZJgy6GtGFEECfyIJ0ocfYZapo6dWp2yCEGeTG3geuY//Hqq6/mvM4hX8OGDbO6hSyJi/THQxycw8gA6h/7HHcZFpKFEJsLGQKiyYMScCVRSCngTqbnCMwvqO2QQbF4UKAo3HyTzfyYK/2OHTuaUmabXjeKhB5kbaGHvGbNmmzaUNSEO3v2bNtHIbF/zz33mAzifMd5oqdKGv2+GBQWShNQhijmHXfc0XrELGxzrJCihFLLyiHtKMrBgwebsZPLSCkGafc48UzEeclVTg7K34c0Cl1XCDwAGGh+P+nw8gdkRp58GIv8CtHUkCEgmgU0sChAeoP0MFkauvdFjw5wKecCZcCComWhl8rCNsMXKB4UQm2ht86Cove8YVi4sgEUEEp3jz32qKHUOOb7xI2SLAbj9HhgYlmy7WP4jUHSSMGz4PljzX5TA6PIe/kupyeeeMKOkWbqI0MBHOPc7bffXidDR4jGRoaAaDZ475KFbXeXNxQ06riScQXna9BxSRMnSpNhAB8uWLBgQZ2GBQDPAou7n33xtypQSLi1UfLJPMcK1RVXMSorK82AQZHF8TXmRDs3PujRE0fSkxAbNE0FN6ziesfiwysQy7CU4QchNgcyBESzgB7r/fffn21kUSgoM5RaQ0IDjys4X4OOwsY9Tw8excXiyrcuwwLAfQwruCcCxc4rbOQZfC7EEUccscmrdhgC3stm2IR7ixkkKDiUVjy2zsTBWL71hV40eXAjxfOGS9/l5sdY+7FyQBkiN/++BfLL55HA8MMw9Hwge88XMmNxSD+GQ128QkI0JjIERLOAnheN7J133mluWCbF7b333o3S6OKGp/eaazIiShsDBDBC3BBhRnpd08J9TFJD4ZA3hgh8QiCKhzcaPK8cwxBxYwCZME7NfRxjLN57q4VIypMwSUNDyZNeNAaVD3eQB7wtruw9Hx43++UC+WAIIS/ip6yRBZA+N7ZYCuXjwAMPNCOQ4yyUn+eDe2MjQYjNib4sKEQzhV53ocmNQggB8ggIIYQQKUaGgBBCCJFiNDQghBBCpBh5BIQQQogUI0NACCGESDEyBIQQQogUI0NACCGESDEyBIQQQogUI0NACCGESDEyBIQQQogUI0NACCGESDEyBIQQQogUI0NACCGESDEyBIQQQogUI0NACCGESDEyBIQQQogUI0NACCGESDEyBIQQQogUI0NACCGESDEyBIQQQogUI0NACCGESDEyBIQQQogUI0NACCGESDEyBIQQQogUI0NACCGESDEyBIQQQogUI0NACCGESC0h/D8CA1OqeXYFvAAAAABJRU5ErkJggg==;" parent="WIyWlLk6GJQsqaUBKTNV-1" vertex="1">
                    <mxGeometry x="-40" y="595" width="161.4" height="65" as="geometry"/>
                </mxCell>
                <mxCell id="KgBlzZdilrDWfoYo20FU-24" value="" style="shape=image;verticalLabelPosition=bottom;labelBackgroundColor=default;verticalAlign=top;aspect=fixed;imageAspect=0;image=data:image/png,iVBORw0KGgoAAAANSUhEUgAAAb4AAAKYCAYAAAAMkJ1fAAAAAXNSR0IArs4c6QAAAARnQU1BAACxjwv8YQUAAAAJcEhZcwAADsMAAA7DAcdvqGQAAK9xSURBVHhe7J0JfBzFmfYfSaP7vk/rtg5LtmTJh3xiG4NNgBBIuENgyYZkwwaSOIEk602chBywYRPIBxvIkpCAA4EFc2ODLRsfWL5kW5asw7rv+741kr56a7ql0XikGQnbeNzv37/2dFdXVVdVt96n3qrqGbvCorJxAWibwHifYRiGYWwFOztlh3bt5CZEDWJv4pxdVVXNuE5nLw8YhmEY5kpCrx/DiH4Uw8N6qXskgPYsegzDMMyVCmmcq4sj3N2cxZEdxsbHwarHMAzDXPGQALq5OsppPRY+hmEYRhPodA5wdtKx8DEMwzDawdHRgYWPYRiG0Q7k9bHwMQzDMJqChY9hGIbRFCx8DMMwjKZg4WMYhmE0BQsfwzAMoylY+BiGYRhNwcLHMAzDaAoWPoZhGEZTsPAxDMMwmoKFj2EYhtEULHwMwzCMpmDhYxiGYTQFCx/DMAyjKVj4GIZhGE3BwscwDMNoChY+hmEYRlOw8DEMwzCagoWPYRiG0RQsfAzDMIymYOFjGIZhNAULH8MwDKMpWPgYhmEYTcHCxzAMw2gKFj6GYRhGU7DwMQzDMJqChY9hGIbRFCx8DMMwjKZg4WMYhmE0BQsfwzAMoylY+BiGYRhNwcLHMAzDaAoWPoZhGEZTsPAxDMMwmoKFj2EYhtEULHwMwzCMpmDhYxiGYTQFCx/DMAyjKVj4GIZhGE3BwscwDMNoChY+hmEYRlOw8DEMwzCagoWPYRiG0RQsfAzDMIymYOFjGIZhNAULH8MwDKMpWPgYhmEYTcHCx1w2NDUPK3sMwzAXDxY+5rKARO8Pz5Sz+DEMc9Gxq6urG1f2GeaS8b1Hzyp7hJ3YjB/DyeNNGwOw+Zoguc8wDHMhYOFjLjk//mkRvvvvsQgOcprw9H7z8yTlrDj/M3H+QcP5U3ndaGwaZPFjGOaCwcLHXHR6evTKHvCrJ87hG/8ShT+/WI20VE/knurGmpW+ytlJDnzagYx0Lxw70YlbbwlDS8sQ1l8VoJwFPD11yp7GGdWjv7sPcPWGm4sSxjDMjLDwMRednR83o7t7VIpY6gJP5J/tRXy8G0rP9WHpEh8l1vkcO96JefPcUFndj/lxbugfGMW8cFdERbli+QzpPjMjXag8moODpxvQ3lyPTs8wBPmGYvHaLGTEe8NRifb504J3f/AjvFQqdh3m4Z5ntuHGEMOZOdNWjSNFrcqBAd+kDCT4KwfT0F+VhzO1kx0cocSIyExGOIsxcxnCwsdcdEj49n7Sju8/FIs/PluBr90dgb++XDNleHM6aNjzi9cFY8c7jbjrjnDk5XUjMcnjIgmfHnUfPoOf/28eOkeVIBOcojbgOz+9G8stCMEloXkXHn3gNVQohxkP/RE/2uCmHM2RY3/Gbb/KUQ4U1j+M1x5epByYoxqvfuvneLNROZQIIf7TBRBihrkI8KpO5qKzZ28b7ro9HM/8qQL/8rV5VoseQfHe+bAJX7klFK+8XgdfX0ecKehWzl5Y6nY8hu89N73oEcNV2XjyW7/GzilG/nMiaA3uuNZb7jpFXY9bVn5G0ZuO/QdwZFDZN0fFcRy6HNqDYayEPT7mokILWTIzfHDqdBe+8S+R+NMLVVNEr+eTp2Bfc1Ts0UrOUfH/uPjnIA7tYOfmi57ljyA4bJ70/G69ORz//L86LM30hoeHw4Vd8NIovKdvTXpP4dc+iB/cn6EM1enRWboff//Ndhxsk6eBVQ9i+w8zLqNhzwuEkcfn5u6G/r5+ub/8h89hyyrz86olf/4Otr5viEe3TtxGAXt8zOULe3zMRUNdvXk8txO33BQ6RfTq6+rQ93//Bl3NIYxkfRfdGx7H0KofYWjJv6N3w2/Rt+5XsOtrhEf2j9FcZ0j3+o46rF7hh2MnuhAS7CKHUC8UzUcPT4geMu7Dr76tih6hg0/8Bjz0q9sQo4Tg0AnkK7vnMdKPzo4uufWPKGG0CEUJ6zRa7EOM9CjhHf0YMedtDhrlZ+J5TZvWqAwzbyKdksQUz4VJE/U9svMwOpX9KYwW4uA+RfSCMrA80rBrEePy9U1tD4a52LDHx1w0SJgOfdqBtDRvubDl8V8ae3r/T3h6h9Cz4XfyjT2vI08AAx2wGx/D+LgdBlf9EP4xi9D/7veB7ka43f0Pme7RrUVYvtQX7u72+ORAG35t5ZCpJZp3bMO//63GcDDtnFYXKg+VoUnum1m8MdKAnU/+AS/ntGLiNXwHb2R884f40aK8SY8y5jb8v99vgsFfbcG73/sRXpInzHtJxmWLufe3ePzmQLk/Y1pzc3VmycKP3/oGFitHU9Ktvx63FL6vzN3F4f4XfoLNpnObZ7bjvv/MBkmf2/X34ctnX5yxLugpw7vPPI9/GrcR4T4Pm7/9IO5ZFXjledHMZQd7fMxFRT86jqNHO/Gdb0UrIUBTfY0QvRwMrvkZQsLC4d6SC/sBWklohzF7R9g7OcHlxPOoq6tFZ+YWIYT2aKsukmm/ekc4jhztQG/fmDy+UDi5eyh7gqMf4d0qc16IN6JXCa9GbiaiN1qNV7+3FX8xNeijXch99r/w9OEuJcCWiEfWavUVkjLs3d+i7KvohSdoED0iIz1e2ZuG2l3Yev+v8ZJpGxF9Ndj5Xz/CI38unMiPYS4WLHzMRYPEaWhoHBvW+ykhBpz7GsT/o/CPMnhrjmdewri9M4SvJ/6NYVQ/CrvhbjjY2SFMCKO9vR66jomBSNxycwiOHOkQgqgEXAB8Vq3GcpqfIvoK8dLDD+I7217DzjMN5w0vmqPkL3/Am7XKAXl5tz2IJ57/b/y/392HzVF9OPi3XZNDqZeC2E3Y8sMHz9+2XI9UI8GOufeGSW/PDNGZi6AumanYdQCVyr5kMA8HVafSIQtrMmZ4t3K0DH/5z9dQooyrhl97n2yf5//63/j9TzchQXHz6t7/M/6ey0OfzMWFhY+5KNA3spCn5+JCi1amYjc6tU8/nP6vGNcPws5OeHv2LrDXOWHMyVd6gxIvIX7DUz2mqzf4S1G9YN/t6Z6Ff9u2AeGq+AlvpunULmGst+K+O76Or97zazy9IxeVPcppYwZz8e7OyfIt/+5j+NFdGYgO8kZQ/Brc/9/bcMfE5OAlwj9S8UynbhFNechXhTz+Njz0xVDlYBqSs7DWXdlvPIIcI/UeOXYYR9R5xaxMpE603fl07tmBnR2Gfbc1D+JX314j28fH1xvhGbfhsZ9uUAS2C9k7pplPZJgLBAsfc8FRv4bM1NNTseuth73jpNvR65sCO+EBOowNwE7fjfGRAQwv/ZZyFhizcxIexfmPKonqhfxia7eFd+P3L/4M37puHtxMjPhwT5nw2p7BI/d9H7/9sGHqgpCKQpxRBcB9A25cY/JagUMobrwlQzn4/Og/9mf8/GVlHtM3Cz/++SYjoZ+OOGy4Th3ubMXO3WXKfhcOfJSr7AuxX7lohrk5PfJzC5X9AGy+KWPCi5xg4RpsVhfpnilCsblFPgxzgWDhYy45jkVvQR9ztXIEhIeHw+2r/8SoezDGXPzQt+E38ItKlufq6uow3lWLoYA0eawyfiHHOY3xjMSGb27Di689hxef+gEeuncNUqPcIKTXAM3ZPbcVW3fQcK2BkdbOyXmpjGQkKLvGOM6Pn1wR+nlQuws//22O4knNwx2//AYWq56cBaJXLUewst+/LwcltDNYiJNnZJAU+01ZM32FXD1qy5VdEs/fPIrvPGC6/QE71VdFUIdm0+lEhrmAsPAxFxz6cmn6kunsve1KyCTtlXnCt9NhJChdCQFa6qrQ886PYNcvvD17J3F+8rF0HW6F3Rgw5GC0+ERhcHBs4susLzgOOrgJ8V1983346VN/xMuvPoZvrTG8LE5UvPzmxEvdHa1GVlp3GX6HaF8env7P11CheFEx934Tt0QY9q0iZg2uVVW77xyKaZXnmTM4YgiB29qMGYc5IeS22ejNk/62VuGlm25d6Gcvj7lEsPAxFwUSo2XLfIQ4TfXMXMregB0c4HLwl0oI4NRVDrvuBoy5ecHeU12qb8Cx5F2Mxa6TXqEx2Xvb4Oxsf4FEz+gdu+nea3MJxYYt38Ut6nDcaC5OKr+s5BtgVOaB6d+L+3zox8E/PoWDyvyaz/qH8bObLczrnUcg1lwbp+zX4GReF0pO5SnHAdh8tcE7nx4fBE1810Ay7v+TYVHL9Nsj2Dz1MWCYCwoLH3PR8HC3F+JkN8Xz60h6ACPpX5XfztJxzrAkcMRrnvhfdPcdhVenH6ZxTBneUF8Hu65qDEWslscqb77VKETVl77c5QJxFv/7L9/HA3J7YoavI3OEk6uyKxhWPBTHAJ/JOaszZWbnp0bOlVqxqnMAfb3KrhGdrRNjgLOmbscTeFpdeRlyPX7y75OrNGeDT9YapCr7+WcOIv+sMrgbshxZFt5iAMIQEavsogWdvYZFLdNvbnC0OPfIMHOHhY+5qOgc7KTn98c/GRbCk+fmevpZsWcHXadBCnS9QuDsnaHrqhIK0SfOGHAYH4G9nf2UYc6XX62TL7CTqF44opC6UNkVHs27/8w1O+zWn/MedooiGpiHmChlN2EhMlRD3ZeNl96ZnP+TjFbjje2TC0Gm4oTJVwhbkb2ncKrH2JeLneo3o8wSuZhFfSmffr1h6y2Inqug+K7AplXKfu5OvKOoePDaJZh8Q3M6dEhNUz3GVux8W7SvcjTBaBleffR3ePovu3Awt4Hf5WMuKix8zEVj1+5WfPnmUBw/0Ynbvxwmv2+T6FnzOMbEozcUskQe+yRdhYE1P8aYgyvG/WOhHzN4fDr9gAhzmRjmpPRrVvjhyLEOmfdtIs8LgzfW3LwG6u89dO59Bvc9IIzwP7Jx5FAujuzdhT/95/dx38TiEEHWZlytDt85LMIXb578rcCKv23D957LxsnSBlTmZuNPD5v+coEx3kjNII/XQOeHv8OD//kadorrHtzxZ3zvvmeQ7zQ5t2g1UxazCHmNDETdOy/iT8+abu/jpDIMOjM6ZKxUVqb29SvCFIfrN1n3HWU+196OzcrPLvYfeAbf/dWbOFmlDC9X5eIv338CbxYX4uA7r+HpPQ387S3MRYWFj7lo/P7xBfjb9lokJ7rjzbca8K2vR0nxGtW5C09uFC6fbEX/9tvR//JXxf42YVvt4bHy3xARYVh5MT6uB8YMrhelu+3mcBw43IahkTHce3cE0hd5yXMXAseM+/Cz++MmV2+2CSP82nY8+V/P4MmnXkP2GaP3CCM24KffyZoyZBh953dxz8SQH/280Xb85gdb8cgvtiO71hur79007arOoOtuwQaj3+LtPLMLfxHXffpvOajzyMK/3WNpDu18mo8dnljMQgxX5CL7owNmtmOoHVIiWcAxawM2G68ETc5ClrU/z+QQh/t/eRtiFI+z89j7+M3DyvDyw88IT1p5aZ1es/j2Ffjl38xlBQsfc1Eh8Tt1pgcb1vnjhRdr8I37ovCH5/rgfvc/4PHVf8LtbrF99WWx/zLcv/w/SioD/tEL4fGVP0rRu/nGULz6f7UYGRnH6izfCyp6KuFf/Ame/83dWJ1o9PqCMe7zsPqbP8GLT92NVNNXAehdvd/8FluuC52a1jEAq7f8DA+tmMFrc1mEbz39E9yTFTAlrVv8Bmz53Tew2FMJ+LxxSMaytZNyn7o+c8JLtoqITXj8xfPrKXFwQ8x1D+L/PW/9axYMM1f4S6qZiw59WTUNTZKX9saOBnz1rgi8OJsfov1CCHa83YCR0XFsWOuPoGDni/sL7AT9mkJ33+R3Sjq5w8fdylcV6JcHemmmzhHuXspCDeOfPZryJdUmKNeFhzfcrmS3Z6KNCKN2YphLAAsfc9Eh4evuHsXhox1IiHdHecUA4uPdUHquD0tnEDD6RYd5EW6orO6XL6xTWn8/J0RFuV584bvQWCt8DMNcdFj4mItOj9Hvz/30l8VyUcrb7zdhaHCMFndOvL4wBXpXQQYbzlGa1AWTY36enpfhi+IzwcLHMJcNPMfHXHRIpNTt90+k4LU3G3DHV8Lw4DejcNet4XBychD70RObk7ODDKfzJID3fnUeViz3nZIPwzDMXGHhYy45tODFw90woePrq8NXvhSKP//V8L7Zn1+swVduCpXhxIMPRF2UhSyXHHtH+AYFIJg2X16zyDCfJzzUyVwWqL/ocNG+e5NhGEaBhY+5bCDxY9FjGOZiw0OdzGUDix7DMJcCFj6GYRhGU7DwMQzDMJqChY9hGIbRFCx8DMMwjKZg4WMYhmE0BQsfwzAMoylY+BiGYRhNwcLHMAzDaAoWPoZhGEZTsPAxDMMwmoKFj2EYhtEULHwMwzCMpmDhYxiGYTQFCx/DMAyjKVj4GIZhGE3BwscwDMNoChY+hmEYRlOw8DEMwzCagoWPYRiG0RQsfAzDMIymYOFjGIZhNAULH8MwDKMpWPgYhmEYTcHCxzAMw2gKFj6GYRhGU7DwMQzDMJqChY9hGIbRFCx8DMMwjKZg4WMYhmE0BQsfwzAMoylY+BiGYRhNwcLHMAzDaAoWPoZhGEZTsPAxzBXM+Pg4hoaGMDo6qoQwDGNXV1c3ruwzDHOFoNfr0d7ejp6eHil+hJOTE/z8/ODh4SGPGUarsMfHMFcYJHo1NTXo7u6WokeCZ2dnh+HhYTQ2NqKjo0OJyTDaxCY9vpHaQuRWDShH5+MUPA+JUYFwc1QCNITltolDaow3HB2UAOZzYfI+uSIiMxnhLobwC0F9fT36+/ul4IWEhMjPsbExdHV1oa2tTcaZN28enJ2d5T7DaA2bFL7mHdvw73+rUY6mwcEbGV99EA/dHAc3Jch20KO/ow/DYs/J1RtuszCKVrWNYwCW3/9dPHRdKDTYN7gsmLxP83DPn7bhxhBD+GdlZGQEVVVV0sOLjo6Gg8PUHk5zc7P0BL29vREYGKiEMoy2sPmhTjf/AAQHTW4TXt5oF3L/9mt899k8jChBtsNZ/O+/fB8PiO3nH7YoYbNn2rYZacWR57Zi644GJYC5UqDhTIK8OVPRI1xdXeUnLXhhGK1i48I3D1/+1eP44/OT24uvv4Dt/+8+LPc1xOj8aDveqDDsawvzbfPib25DhtI2FX97Du82GvaZKwMa0pwJ8gQJS/EY5krmilzc4hixBlu+v0EZ4mzFoUPVcs8sg/3o7OiSW/+gEmaJURqKNKTp7Oi33qO0eC0138k8h/u6J69zAVakuyVvwo8m2qYGBw9P51Ga1NHKa4/0qWmsb0/LaYzK0qdXwoyxcN7ofk1bJqN7Y/4aKmbymsjffDuN9Cj5zuZZYRjmomHjc3wzzY/k4ekvPYWDtLv+Ybz28CIZqjLSmIuXfvdX7CztV0IMuMVvwL/94HYsD9EpIUaMNCD72efw9/016Dc2cOp84hfj4GZm0Yj11zIq83lYNxdkVduM5uLpLz9jvm1GWnDkL8/gfz4yqSN0CF9/O/7tXzcgwV0JMqI/90387vldyG+cKhpOURvwnR+bb0/r07Tg3e/9CC+R5x50PZ54/hZEG04YaNyFR7/1GqRjn/UNbP9R1tS5y2N/xm2/ypG7y7c8hy1rJssy3b1xCsnA7Q//C25MNp0hnrxHMff+Fj+L34v/+MUu1ElFm9rm/UW78D9/eBNHjOvnvwjf+vnDSD124eb4xvvKMda6B+PD7fJ9PRrutLe3g7Pz+ZPD6nkaBqVFL7BzhJ1XChwCN4p9XvHEaANNvs7Qf+xFPPjgMxPGzskzAD6KMe8vzcaTD27DX85MNYQYbcC7P96KP+1VBMHdW86byXTqfOL/y4NJqrld62LjYEbUib48/OlbP8KTHyp1dHCDj1pH4enU7d2OrQ+9hhITr6ZfCMt3f/G+ImA6uMk5RTcIs4rhKqrjY3i3VkadYHZpArF87TzDbnMezpgMz3bmnTGIHnHsDPJNyldyKk/Zy8DypZN17z+zHY8Y3RtjhkkQxf3+7UczzIN2H8D/bFNFbyqyfj96baroEW2ijf/zzzjSrRx/Rsb7qzBa8muMtx8GeovhMFAK19FqOI9UyWPTTT3vNCxajMJ68jFe90/oq/+m5MgwVz5XrvCdOYNcZTfY30fZE/Tl4n//cACdZBxpSPRPz+Hllx7H89tfwPY/KXODQuR2/vdrOGk0LNa5ZzteKqU9byx/6LfYvv2/5bzZ89v/iMe+YjDKnUIY3jGeT5z1tRbhobdewGtvPYzVdCggr+I1GfbZvIIpNDagTtl1c5t030r+8SKy5Wp34cHe+xO8+Nof8bys43P4/VcV4WnbhVf3dBn2JWV49Q856KTd+Ovx2EvP4UU5p/hHvPzCN5Q61uClV3KNhvlmnyZo4SIEy70alJybKiYVhYXKnmA0DydLlH1JNXKPKcIm8khVnaDBPPzvb7NRR/fGMQ63/OaPSjsb7s1qf4okOjTCw59uHrRix/s44rMI9/zyt3jxVVGHvz6CzbRQUuT992eV+jmEYsMPxfMykfeD2OCeg5d2WFh5ayVjnSfof8PBZ2C8gzxi/i4LRhtcgcKnRyd5Uv+drXhfAVi1KlLuEZVv/xMH+8SOQzK+9XMhPkZDcI4hQpz+43qDge04gHf3Txr4SeOajA0bAo2G0tyQcOc38dOHf4Df//Vn+HKMEiyY67UuLv04+c9dEx5SRnqcsgck3PcYfv/Lb+Cebz+ILfQayMTIlw7hX7kftwQZjvILhTeh0liKYqqjIGbVGiR4GvYl/ln4+qMP4se/E8LwnYzJNptLmvglWKVc/0juWcOOpAwnj9JnMlavDxCf/ThTYOSlNRfiZLNhNyYjCWoXqPLN7YZ7I+7f6kcewR1GQ5p0bx564j6kyvoLAX7JWLSNcMjAQ08/jBsXBsLNRXitvm7y/cjO/R8hW3lHPPWbP8S3Vk0+L44hGfJZMOR9ARidbtJydtiNi87EuImrzDBXKDYufDV44z8exXceULavfwe3fembeOAH23FEMTw+195tJEYtOJPbathduhprZK/ehPgVWB9l2M0/U2bYEQSFhyp7ecj+qGWqIRS9+tT1yQgnw6cEfZZrXRgGUHEiF0cOGW0fvoknH/4efrNXEdn423DHUsOuxNEN4QuzcOO1cUb1UBgZEV0KMwQGIlzZrdi/FyU9yoGCT1IGFseTMCgBxFzSIBIZSxVxOnoGE05d6WmcJAELisXmlfEyqO50qcHbEowUlyoiPw+rV6jvrRndm6D1+KLR8OcE/iuwKUvZz8lDvrI7hZUrsHrSYZ6g+IzaScrAhrXeyr4R/mtw41pl/yLTN+iAfXneqGiY0pgMo2ls3uPrb2tFU7OytRnN1dBL2vf+BH/49iIjI96ACjlcCTg1ncALz76IP5237UK++opTbQsUZwHh6zcpvfR+HHn2R7j71u/ge9v+jFc/zEV+lbnVenO/1oWhFQf//Aye/C+j7bn3caRKka+IDfjpzzdBcaKmMNLXgPxD2XhVlPHpbVtFp+I7+Oqtv8Y75goovJ7N1yvGvWIXtt7zddz39V/jyb/swsHcanSac0jmkkaQkJVlWI3al4dcpW2bz+ahiXbS45EQn4RU2j8jhErJIz9XGfAOWoSFE0PFk/cGKfFTF8pMoENMvDK8O1qJWnPDnTpzc6XiPqpzkzGiTNPoTXikkvdFZGjEDv/16jy8vi8Ev3s9CidKjF1rhtEuNi58AVj9jQex5YfK9vAmxKhDSMKw3zPDt7YMV+QKz+2A2S3fnJETvfSfPv8gNscrOY70o+5UDt587hn84uHv4O67t+HlXPOLVGZ9rQuE6QvstIWnr8E9P30M25+6G6mm3kpfGd791fdFXbbiF/+1HW+K8h081SA6Ff0Ydp9clGNKwjcew2P3ZiBY6WH0t5XhyDuv4elf/BwP3PFNfIfm0kx6BnNJgwULkSHvbytKyslr1aPkrGGubPnCBYBvEhZL7150RuRoaDWKC+gTCF67ZBqBm56gCNUvtU3OVrmjpXvya8k+yTOa62YYDWPjwueKmMwMLF+lbOtvw9c3q57Ea3jpgHkhInyufxjP//W/Z95+cfVUj8g/A/f/7o/Yvv23eOKnd+OWNckI91R6/X01eEcY7VdVT8KIOV3rM3P+C+y0/X7bfbgxI9TMd3V2Ifu3v8ZLx0hQdAhO34T7f0jzlv+NF199Aa9t/wFunLaAbki4+UH8kRZ4PPUDPHTvJixP9FbmCPVoytmO7z2ZY7LidQ5pHBYgQxmazc8tFF72WeQfo6NkLE6l+xCIhZk0zwcUnK0GGtX5PTcszpyc57WW5lp1CZBtEuxLwwmTC1ZC/fjbWhiGuOIWtyTcdRuWK0b9yF92mCy9D0WMMt/X2dYPd19v+My0qaJmgqN7IKIzNuCOLUIYaEXij7KURROt2LlXnau7MNe6ZDTnYNcZw27wV/4Df9x2GzavonnLWXxXqIMOblHJWH3zbdjyOAnmY7jDMO0G5BxEjrkfBZhVGp3s4EjOlKGitBQFdH9jFiJV+Taa6MxF0stvKq5C8zllfs89C8sSaEdF3Bv1GgWlqFR2TamrVlZeOkQjwuoVtYHCU1R2K0pRYnbYVniqxRdmVedMhPmPYO0itQHH8eU1c//6O4a5krjihI+M3D3q0vuObLzwjvEfu/AIlho8AuTsPO/dMsloNbKffQ3v7i1E3cQ3eHShcu8uvPzk7/CLHed/C4zb0kzD3JKgv19Zrjjna01leNR8+AXHaEX8/EQz3lHbGRwxflVDgX5lYOc/XsSTj76II6ZG3jEUy7PURUG96FMcjrmkUXFMXWRo675CHNxTLuf3gjOTJ73lBGU49EwR3jtbZAhbJoRxiocr7k2Gcm+a9+KdY2bauI1W2ir7Wco1rSRxYbKyl4t3zX3XauMevGt4n/6i42TUn3Jy5NcVGIa48oRPEHTdLROr7Spefm2KcY2+6WbFI6zBq//5DLJrjYzeSAuy//AH/OmjXXjpqd/h1VNKuKA8+zW8c6AQ+S//Ba8WGg3Ajfaj5JV3Jr5tJTVZWaYpmOu1hHrDQyl/3aFcw1yXEMAL8ZVl0+IjPBVFHA7+8/2p82s9efjLz7ZPrqQ0wrEnF6++dgBHig/ghT8eQLNRupHGA3j1feXVAvf5SFS8prmkmcB3EZZJXWnAzo9o9WQAVmUZCbXDIqyRKyZzxHnDfVq+ZIH8NCb6ptuVZ6QfB594Yso9pTI8/ciLyovw83DHnUavVViBz9U3Y7PigVb87Td4Mrth4t6N1Iq8/0P5lhmGYT4XrtivLOv86Hd44FnDsvLgr/wMf/zqpHGkb1P57m+VF8sJRzcEe2HKqlCf9Q/jDw8bhs0ktbvw6MPCYClp6BtYfF1H0NPWNfnVXvG34fePb0K4kXcxp2sJSv78fWx93/jdvgDc8rvHJ4cBp+Gz/NzNlGvSt7b4u8FZCLssq28yUr2E8NMrfFO+5qwfJ5/aOvmKhJpuoBNNParQe2P1fzyGh9TXEeaUZpLJOgrcN+Cx7XfDeCRz5MAzuPtJ9esLMvDQqw9itZnhWvrmlv/YprzEbhZvZHz7h/jRtaoHSsz8VXgq5913Y3yz8ON7gN88TW7fZ/vKstGaf2C8dbdydD47j/oJ7zIQ7s56PPHNmV+Z0aU/LyzC5zzkzjCXgCvS4yN8rr4NtyjGpGnHa8o3khhwW3ofnnlm6grNCSFyn4fV3/zJeUKEiE14zCjNcA+9QqGInmMAUm97GC+aiB4xp2sJEu7/GR5aHyC/wsuAupLx4pFw/2P48RfnGRaYCMHrVF4RcYrahB8/fTcWm31a3LD4341WaKrpFAFzi8/Ct556wkTA5pJmkslvcREsWzhF9IiJ4VDC+NtaTHBbeDeeML43RtB3dd7zm8dMRM966L7/4Ve3nf8dpfRdnb/8BhZfojcL1izqwvVZLbhvM/8EFcOo2KTHd0ERQtTZq4y16dytW2RC3+Q/oI7POcJ9yovrMzCXa9E3/3f3YdhJxHe/RL1x43LO6rr0KwWGH9AlrPsR3bmkuQgY39ML3Nb06xN9VEFr7/ksGK19FeMtHylHnw3d4j+L/016bgxzBcLCxzA2zFhzNsbqXlaOPgPOwdAt+I1ywDBXNlfsUCfDaAH7oLWAV7pyNEccPOEw71+UA4a58mGPj2GuBIaa5e/xzRp7R9i500rkSzSMzjCXASx8DMMwjKbgoU6GYRhGU7DwMQzDMJqChY9hGIbRFCx8DMMwjKZg4WMYhmE0BQsfwzAMoylY+BiGYRhNwcLHMAzDaAoWPoZhGEZTsPAxDMMwmoKFj2EYhtEULHwMwzCMpmDhYxiGYTQFCx/DMAyjKVj4GIaR6PuGoB9VDhT0PU0ozitCcf2QEmI+zBaw1XIzFx7bEr7RVux7+tfY+lIBBpUgYxp2PoOtP3kDp82dZLRB4dvY+ujbKFYOLxtG9RjsOV9YpnCJy97xyQvY+nQOOuigOhtP/uJJPHe4S54jBkV5nnzsBbz+/h7symudNuxzRT+EHmpX5XA6LrtyM58rtiV8DgFYd8tK+ObvxLsFJr22thy8ub8LsV/ahDQXJYxhLhc6j+OFx15GTqdyfLkRvgpfu/823LrEWwkAqvIK0JNxG7b++EE8tDl82rDPlXM78fhjO1GmHE7HZVdu5nPF9oY6I9bh1lWOOL1jN4qHlTD04sSb2WgI3YCbl3koYQLZG+w19AhNe9rmeoqmvXKjOPquJhRX9hrCTRkW8foMOen76Hq9GJymC6qe75kSga4r0kzUh1DCjKPJ8s2ct8xDiWe23gr6QaUcpm2gMlPbEdOcl/kqbaEiw0wKLdvBTBvItpvSDoRRvYd70VBch56JaxqlM1sRE0zvaVnrlPvdUVuK8iaTNjFKM8E0HtxEuxq3gUw/iFHxT5bVpH3MMZHPtJWaqb2mYabnwsEBvmEh8NKJfeXe0qWDvF0N+31mwoyvq6Qxm/fE34e4flMVikX7TjJDPYzaXW2PKXEoX9k+Sh7m2spcXZQ8Jv5eRJzmslI0G48UzVQf43JZ+wwxlxV2dXV148q+7TBcitd//RrKM+7Fo18Mx+CpN/DYK53YuOXrWBdkiDJYlo3n/5qD5jEddOIR1NsHYPW/3IvNcc6GCDSs9CJwz+M3IdEQIr3GZ54oQNojX8dqf3Es4+iRuaIOJw4L0QvfgC0PZcHXEHsCGjJ68nQMNofnY+fJEbiMDWEQHsi855u4OVm53mgrTrz8D+w4OwgXHwcMdg7BM/0mfPu2FHg6COH+89P4MPhebBX1kdTuw5N//BRY/3Vs2RxsCFPKc+svv4w0J0PQJF04+PQzOB2/AWGns3FiyBm6AfHH5xOPm79+GzKVdpksR68oh+gkkCHwTMM937seiYqn3Hz0Nfz1rVIMuHjDdawLPfpwbH7oXqxW8pjpfM/R7Xj8gwA8sG0TImXsJux+/AXsw0o8+Og6hFLQqLh///ka9Lc9gjvThaUdrMLO//knDjbqoXMUtmNEh6A1t+OBG6JgKJKI/6iIvywT1SdOCNELxma6R+6T6VxcdcK4ifCrfbBzp8l9NUa57+s2NiHnsLB0wqAOembh/vvdsPuP+9Hs6QB9uzDMMRvw7W9kIchhMs2Mz4rx/fUTpe7qhT5SyaOE0hcY0hHTPEfqdTbe2Il97zZB5yoM+oBpWwjU9mpxgKfLqBAVIHLj3fjaNeGTcUxpPo2XXngfxZ060VYiX+c0bE5rxM7SFKUshjbGfT/BrTApryB0URwa8qb6VaFfeBAPXuU9+bem84CLXrQnwrHugTuwMdLw7Bv+PgKQ5VSMnAohB8Lzeuz2eMv1MG6PD1qhsxd/V+LZiLzxfjywOsCQ7wdN8hoSNV9jZB4mdZHlhuHvJTgTjmdOoHoESKO6J1tvO2b1DDGXFQ5btmzZpuzbDg5+iPNpxu4P8uGUFoyzr+xB36o7cFea4u0Jo/TcMwdgv/EB/OBfr8GGq1cg1S4Pr/9fHpzSMxDpJuK0FiP7lHjYr0lCgCEVMFCLY4daELLKOE4hMP9OfPeB63Htigi4GmJOYbDqJA7n1sF57f14+K51WLtuGYJbc/DRsVEkr4qGp/jjKd7xF/yzdREe2HI3bly/EhtWBqLhg7eQPZKAlXF+8BwuxycnRPzVFF8Yi5N78GmjHXp73bF4ueG61YffxwnnJbhxWQiUP0EjhlB95BhOne1H3H3fwgNfWoN16xfBu/YQdhwYUMoh8s3ZgX/k++HGh76OO65dIcqaDPtTH2BnWyzWJnqJTkUR3vnTIXjfsgXfuXMFVou6hLfk4INaP6xc4Ad7C+ddPUZQujcPY8nLECuyQ1s+PhRtatffCw+17auPYcdRJ2R9KR1hzkKw/+cFZNuvxUOP3oXrN67B2kV2yP2/d3HSeRGWRZIJbMfZ3QU4YxeD+x6+Bzd/gfLRo+Cff8IHg8vwwPe+hhuvXYW1aXY4/OYhtAwHTb2vxsh7WgD7Rf+Kh78qrnWVqP/pt/H2gWEs//cH8dVNK7EuzREFu7LRGrEGKYFqmpmfFX3+h/jTJ164+T+/gTvWL8faVaFo2f8x6gKWITl5ATZkOKLwUD9WP/Iw7ltv/jlSy9bishYPPvRlbNqwBivnj+DUWx+gKnAFFgbTAI2hvY4F3IjvPXQTNqwX9RbtdfTVt43imCI6H8/8EwXh1+Phh5V859Xjwx1F6PWIwUr5fBnaGOmizslJ2HDNGoS3H0DL4gfxI/E3tGxR6vlh0eLeyL+1kwi49Vt4+A7Rnhvob+0k/vlaNYLXLJBG3/D30QLva76OB++9BhtT/USZrKiH0h4D4bfgoW9uwgbK274EH33UJPOOjMvAhoh2ESdIdEq+gdtkviYEmqkLlVv9e2nwwobvfB1f/eJVhnttte2Y5TPEXFbY3lCngkv6Jtwc34R9z76KHGTi1msUr0jQcOwEGkI24K71AaLHRohe8/qvYHNIE44cM+ohWkUK1lEP1FKvLWQJrk5XhNfBGSnpoufZ1oVuOh4uRu5RB6y+aR2kHSfck4R3Eo6O3EI0iEPPhESEtpehrI1O9qK8pAmJm8UfY10ZynsorAklhUOITYuTAjYtaVdhc7QiizpvZN6wCpFtJ3Ci0hDku/JubP3xl5Hpb2gZmjddsDBAGKcawyKHoSEMjApvccKjdEbi7Q9i65fjDW1p6bx3PBaEd6G4zLBIoqesDA2JV2Fjsih/mWGouKGoFIPxqUigitSexJFa4andtRJBSpF0wStx16ZgNBw6KdtGJW2DaD935UC0aV4eidGGiTCdv/Bi1kw+B9OTglUrlHulC0CoSKKPW4Is1SsOSkZaiHCSmicXelhiYFD0/J2EN6UcwyUetz6yRXj8SqWsJhirNqfBV0nmEr0O1y1zRsGRAsjHQLZXPDZ+mUYKZBTZXjLO6WLzw2u1hTjdFox1X5ia78Y0w/5nQf6txV+Fm9Vnn/7W1m6U3l3eWaPS0N/HEm/l71FgdT2Uvz+5L/JOT0HoaCc6ZGN8doJWXTX5tyCw3nZc+GeIuXTYrPCBhhKvWwnXgSGk3HA1Io2EqbtLPGzBASZDSd4IFA9nR9fs/2J0lkSPcLCHo7J7Hj09oj/dhePbn8GTj09uz38s/pDaFXH0j0GivyIOw1UoKY1CbGI05oVXobxWnG+rQHF7MBLiVANjntAQk+6lt7dohyH0dKqmRI+e2tPY/cYbeJ7K8Ysn8PTOVkAd8PZMwcb1nijY/iS2/eJveOW9HBTU9k4aIkvnRTvHJXujoaRSGGo9yourEBsXh9jIYJRXNIrzXSgr6UJogsEDRU+XENwABNJwoRG+QcK3UttGxfhplW0ajFDV0CjIdHPBSYi5sjsXPNPXYZ13MV4R7fnYM29g5ydFaOgxMvxWY6YtfH1EW3SI7pBAtlclPnxq6rP0+qkh8XD3GMTRlGnaOCjEmk7CzMi/tfLdeMaoLE/+7m2cGqbb16fEEpj+fcyiHlb9/c0RB/upf7WfyXZ8xmeIuXTYsPAJXF1kT1DnbAuPmzcSr7oam68z2r70Rdx5dxbC5PlgpCzylkIxWFaKgnAhFp5CRBK8UXyuzuA5hacgxcR4WYvO0dBGHQf/hsef/QTVztFY9aWv4P7vPYyHvmBsAHWI3PwAtv78AXztxkT4dhRgx7NP48m3ShVxs3ReiG9yCnxLS1E+WCm8VINY+wrx8y0sQ3WPCKsLRlrq5OrBKwKncGz83vex9fu348ZUX3TkvY9nfvMs3iuei/iZwckJk/Y/GEuMnyOx3XDLLbjzuviZRwMuFhGLp5Rl83XX4uY7bsF1yap7Ph2XWT0YzWDbwjcNsidbVTtlmIyGCmuqzveIpqzYGhg0+37gZ8bTB34Og3ANThLiZrQlCS8vJXjijzw0KR4uZbU4Lsrumxwje52hqSlwLavCCbH5JhjCZqKhutbI+xLU16JaiK6v1JkuFOQ2Ieiau3D/DZlISQyGr6czejumrrGnF5nhEoDYxVnYfM/X8YNb4tFzuGBiybil84iYj0TXStQcEdf2iUMciXVEMtJchfd6tBLlfkoYESS8NtSipl45VmioFW5ueDBMHLpJZJuKe1ozVVhkuovEjM8KrZgUAS7BUUi7agPu/M6/4+b4XuScUsaYrUa0xZQq6MUtbBKOoDfkDJb04AGfqKnPUqJ4NhLnq8NzJsg00+T7GfHyowfLG5FGZUlZFC86bPGIVceuzTGXelwCZmM7GNvlihQ+3/QliO38FG/urIIcbdL3onzne9jXGYWsdMXTiIhGokMBdr5bip5hPfRdVdi9J2+qaFwonJKwKssROa+8gRPNhivoe8T1nnsS214tmrxmdCrScQI79wNpyYoXRiLSdRInqr2Fl2TsmU1D4R68frzLkGdfHXa/8Sk6IjKRGUEB7vAVgtMsRLRDRtALT3Ifdh8XQqZSvw9P/eI57MhThi/1QiwLawB/b9BaFYvnJeFYlAHk7PoUWJRsWMkpevcJyT04cVyIepoaJvBPRVZ8F/a9sQ/lhpsly/Tm3i7EZqVOL/SyTT1Q8N7bONEmS4LByn1495OLMKdixbPSkP0cHvvd+yhQhjf1bUUoqRbPop/SrfH0FMLViYa6Iej1xilN6cLB9/ahWo4S6tFx/G28l+eBzGWJBjEIW4J18XV47+9qe4lYzafx+u+exFM0dG4OmUa08Q6TfKcudpwToctWI7Z6F/6u/q2JDkCzyPupnz2H3SadmSnMpR7m8CQBbUVDk7gvM7ardVhlOxib5/PqWF1cvNNw17cG8Pr27Xh8rxLmE4/N37oJmeqz65mGL91Wief/7zU8flgcu0Zh479ejdizOYbzF5jI6+/HnWP/wOtPPoEdSpjngg144MtJRjchHPOThWAUxiNBChVBYV0iLNMobHpCr7kW844/h22vG4yALiQL9/+bunReh5QbbkLas2/jyf/YZQiJWYkbVwajulQeCoO0Dvd8uRl/ffVpbNtuCNL5p+DWbyqvIlg6rxA5Px44VIrEpEmxprAOEZZlFCbnau+5FwP/fAN/eUwIJeHggcRN9+JW43cyzRB5/V24ueMf2PGE0qY+abjnSyl46XV5+sJhxbMSuuF23Fz/D7zy2BNKiA6+GTfhgQ1KXZ1ScPWNx/Hs9idx2iEF9/zyJiGmhlNTScGNV/XhlV/92vCuIrXFl0U9E9WnxEx7iWsFrbhl8lrnQWnuRsv//BPP/8KQRhezAbde04lXzsjDuWPub80xAFlfuxcbDWP40zCXepghYgVuWJaHl/77Ceye7jWR2WCN7WBsHtt8j28W0EuqA3CBp/v0Gq8XvXid0yXqA9CQWP8g4OwBl/PexfssKO/xpRnerZL1dhD1djFfL4vtopRzxHGaPCydnwv0QrJwPl3dnGe3oEFN53nxFxdYfFZkWUbg6Crur7loot304zroLBWUXpIesNAWMs4M1zIDvQg+MDrz38NckXmPOM7+PsyhHuchvD29nWjXC7gQxhrbwdgmV7zwaYepwscwDMOY54qc42MYhmGY6WCPj2EYhtEU7PExDMMwmoKFj2EYhtEULHwMwzCMpmDhYxiGYTQFCx/DMAyjKVj4GIZhGE3BwjdL6NspBj/7VwIyDMMwnxMsfLOh7zRe+dnTeOxt9YstLxGFb2Pro2+jWDm0LUrx+qO/xuuFyiFjlo5PXsDWp3MMPwbMMMxFhYVvNrin4IYHbsEDG+OVAIZhGMbWsD3hoy+07RmSPwlDw449PWI7b+xRj0ERLoOHe9FQXGf4pnsF+vLZ89LRly6raaaghA/Tvg6eIREIcpUnJpFlojxFuYx/s40wKu8E8lrnx52oT995hZhAxjF3nr4c2fQ6E5ivG7WDoV6TWCzDTHVVmP6+mMOobMZ5G05ORblHFMe03CqWym/1vTd3j9R7aRwm253yNFNmOifLIfJqqkJxk9HPP03UZfp2tKatGYaZPbb3lWU07PcisPHGTux7twk6V2FABnQIWnM7HrghSv4iu2F47TXol2Wi+sQJIXrB2PzI17HapxUnXv4HdpwdhIuPAwY7h+CZfhO+fVsKPB2asPuJF5CTdC+2fjFc5iLpOoHnf70PYQ9swQ1x538R9GBZNp7/aw6ax3RCFvXQ2wdg9b/ci81xzvK8Wt57Hr8JiYYQoC0HzzxRgDQqE/0g66hRufxEDbp6oY/cgG9/IwtB9G3zRnnE5b2BbdsHcfPWu5Fp9DPV5W89ib80rsOj38o08+vVhvbAfT/BrclKkOmXWlsqg2CirjoPuOiFUCAc6x64AxsjlbpiCOXv/Q1/P9AKvaszdAOjCLtxNXzf3WdybWOUsm3egI492ajXOUM/MCR/Tulr/7YBsYYbOnltOMPXaRQdfUDkjffjgdUBhgiWyj9YhZ3/808cbHGgn3DDQPsQXJfdhoe/HC+emTq8t+1vaP7CQ7hf+Skk/SnRzq8UI+XOR3BnuuHb+Wk48smcODz4qOEnmJqPvoa/vlWKHntx70fEvfeJx81fvw2Zyq/nyvinA5DlVIycCiGAGbfhsdvjRcLTeOmF91HcqYMLPb/Oadic1oidpSkTP6uj5j3g4g3XsS706MOx+aF7sXraX+ZlGMZabHSoswBHqtLx8K8ewdZtP8HWf1sGh0+3Y0fe1D53Qb0z7vyPn+Cxx0lg9Ch+SxjG7kV44Oci3Y+34LGf3oLYsrfxfDb98GUwlq8Jx2BuPsqNetcNR3NQ7Z+JzDglwBghYC+8kAOHqx/Atl8/IreHrnbAwRdexsE2JY4V6As+wY7icNz8U1GuRx/C1p/ehpTuQzhUcp4PAV3KEmS5VuFEfq8SIhguwpGjQ0hZmWZG9KzDYhlkXfMR+JWH8Ng2cf4xqqse+/70HgoU70uf9x7+csABWf8m2nbbFmz71TeRWXUcpw2nZ+T0oTpkfk+0oUj32E+Fgdfl4C9vKD/Sqy/F7tdOwmG16JT8fAu2UBm/lojmd3fhRI9MbrH8DQfew8GRJXjgF1vw6KOibFs2wLfgEI7L3zwNx4J0Z5QXV014bWXFxfD09EBBsfoL6r0oL2mCS/J8KXr64vfx1zcaEXu3KK9oi22/3oI7Yxux43khaMbeaF0VepZ8E9seF88hiR5EB+vF91EVcT22qM/vne44fdDox1fF/dwjRC/yFlHOnz6IR0Wb3LOwF/sOlJ7vVTIMM2tsVPiCsWpzGnyVn8lyiV6H65Y5o+BIARQ7KEnbsA6R7srBcDFyjzpg9U0iTPEi4J6EzVeHoyO3EA3i0DM1HbED+Tir2jphpApOdiF0+eIpP7Kq0nDsBBpCNuCu9QHK748Jz3P9V7A5pAlHjln/K9IDg4OAk+j9K8dwicetj2zBzclmfgfMIQqLMpxRfbp4oq76ogLRFUhBRsrcfzfMUhlkXeOvws3p6o/Dirqu3Si9mbyzZI71KBBlQsZV2ByteIA6b2RuXma27UwJXbMRmf5K+d3DsfELmXDJO4HTVEldPG4QHZUHN4fDRfE+XZIShQddhWrlV74tlX9kQJx3cZk8H5SFB0hgld88jU0UolRYijLZ6anDucIALN+8CL6FZaimoOEqlJQ6I30RjQaIuh49jZ6ML+DWFKWuDs5I+coXkNZ/GrmyPRRCluDqJd7K8yGoLcTptmCs+8LU53djmmFfMjSEgVHhMU/8XqMzEm9/EFuFdzqRD8Mwc8ZGhS8AgTREaISvrw/Q3iH65UYY166nB+3owvHtz+DJxye35z8WAtXehW6K45mC5YuGkHNcWbUpjVQ4MtPN/75dd1eX0OAAk1989kagMKYdXcYSPDOe6euwzrsYr/ziCTz2zBvY+UkRGnqm79tHLsmEb8UpUTY6MgiOy7L0aX7R2zoslUHWtXw3njFquyd/9zZOCe+mvatPxOhDT4cQsJBAQwIV/wBYMzoXFGTSxj7eol07RTsqx8OtKP4kG6//7/Pi2k/jsf98U3qS+jHDaUvlj1y1EYl9+/D0T5/E0//7NnYfrkKzsWcWlyi6DqU4VyP2a8+hGFGIXRyByOFaVFM7l5WiwCEe8+dR5Gnq6hAowtT2UHCwh6OyK+npQoeZ5zcoxOhXx8VzuHG9Jwq2P4ltv/gbXnkvBwW1veztMcwFwkaFbxqcnDCz7fdG4lVXY/N1RtuXvog7785CmDyvQ0qW8DROn5bDd9W5J9CRugSiw35xcRIezve+j63fvx03pvqiI+99PPObZ/Fe8TSmLmwxlocLrzJXiHZPAU7keyNrSZRyco5YU4aIxVPb7rprcfMdt+C6ZNWtvtA4Grye4VLseOJ5vJLbg9DMtbj5vvvxg223wNhJslh+/zTc88gjePTbN2GZaKrqA//E00JUctQhaad4LEgeQnFREzrKytCRHIdIh2gkJDehpKwX1edEZygt5TN1LqxHh8jND2Drzx/A125MhG9HAXY8+zSefIuHOhnmQmCjwleLmlplV6JHfa0QgQBv+Ckh5+HpAz+HQbgGJyFlkdGWFIPElODJubHoJKTT8F1RKfJyh5CSljjt8JLspVfVymHSSZpQU3W+NzBlVd7AIAaVXQmt8KORuOAopF21AXd+599xc3wvck5NjLma4I20peHoOFmI4sJ8lPunICVCOTUTindkQJRhQNklLJTBy4/U3xuRxm23KB5xCfGIDaIWcoev8GIaqmunGud64TEpuzNRXTV1aFhfVyfa1R/kyKNMiHtPCm596CasXpyE2GAPuAz0TX3nzVIb6ocwOKqDZ0Q8sq65CfdvuRurPetEp0F1KXWITYxCR00FCqqbkJIcLcNSFiaivCxPbOJZSKQwwuDVN9Q2TK3rcANqGs14r8Z4kyc7zfNrhL5vSFQmQHidWdh8z9fxg1vi0XO4AGXKeYZh5o6NCl8XDr63D9VyREmPjuNv4708D2Qum16k4JSEVVmOyHnlDZxoNpgrfU8Vdj/3JLa9qiyiIByikLnKGwU7d6EYmVg+w7yZb/oSxHZ+ijd3VkGOqul7Ub7zPezrjEKWOjwaES28hALsfLcUPcN66LvENffkTTGYDdnP4bHfvY8CZWhO31aEEqEWvn7TL1XxzFyClLYy7M6pQuSaJRbm0UKEUQdOvy/q1CXKMEzl/AQnRpTTAktlCF22GrHVu/B3ta5CaJpFuz/1s+ewW86zCZFYlQnP/D14/XiXoX59ddj9zlGrXsruOLgTuysNy/31bafx+jvF8FyWhhTy+BSxqChXXgcYbsWJDw5NEdSZy69HwT+fxGPPfYoGZXhzsKYYZe2An++kt+qZnIrY0mzsLEzEgiTDfdfFCWGvPokTjSJsweSzkLhc1DXvI1HXVkOnhsr0+kcocBPPTIIhjlnClmBdfBf27TB5fgvkWQP1+/DUL57DjjxleFPfhYLCGuG1esNLRmAY5rNgs68z3HyfDrtfOm14P8/BA4lfugv3LFOWtptdvi8Y7UXBu//A64eFsVKCPBcI7+D2rMkFL4QwPE8+9SkGVpm82mD6CoBgsDoHr2/PRnGnPAR84rH5buGZTCzxB3pOvY3n/68AHSQ0rlHY+K/paPljDkLPe51BnaHUwTfjejzwFXrNQhyaeyWCjPn2J/BKXtR5rzaYpasArz/3Pk63iZo7OCP2mq8is/kFHAwxfZ1hmjIIzqurYwCy7rwLN6SoC16Mlvgr9yXznqugf/F9y68z3HobdB+/hhNK3p4Lrse/fDVNeZViCNUfv4q/7K4z3DeRb9ptq4BXdk3ma6n86usMjcqdpzZYfwfuuiZ8csGLcn93ul6PR7+hrpA1F2agp2AX/vrKCTQrHQhdSCZuvX8TUpQ+j+F1hslXFCYwKYsuZgNuTSzAK2fOf51Bff9UJ7z6m795E9JmcCYZhrEOmxU+KQL0gu+A0BI3Z+hmM/dCw2L9g4CzB1wmVs59NujF6AFhQj3dp/cQ9cLj0zlNf16+8Dw0AkdXUa4ZoqnId/f6rse2u5Om93RNIa9TlGHa+FaUgV4SHxhxhKunaHclbApq+1pVD+NOikjXM8N9kffbQvtYKP9E2Wf7zEyLocwjjuLeW3PTjJBlGZ3hmVHacS55MwwzPba9uEXnDE8yvrM1YA46uHhOY1zniM7dY0bRI2YUPcKJ6mNZLPR6IV5Nn+LDo0BW1ixEj5hJ9AgryqBzEXWdTvQItX1nVTDCwn2R99tCvhbKP1H2CyJ6hKHMcxEmWZaZnhmlHVn0GObCcmWt6tQEXch59gls++996M28CRvNvVjPMAzDTIvtDXUycjhv0N55Dh4VwzAMwx6fLeLEoscwDDNXWPgYhmEYTcHCxzAMw2gKFj6GYRhGU7DwMQzDMJqChY9hGIbRFCx8DMMwjKZg4WMYhmE0BQsfwzAMoylY+BiGYRhNwcLHMAzDaAoWPoZhGEZTsPAxDMMwmoKFj2EYhtEULHwMwzCMpmDhYxiGYTQFCx/DMAyjKVj4GIZhGE3BwscwDMNoChY+hmEYRlOw8DEMwzCagoWPYRiG0RR2dXV148q+zdHW2o7urh4MDQ1hfNxmq8EwDHNZYmdnB2dnZ3h5e8I/wE8JtX1sUviGh0dQV1MPJ2cn+Ph6w9XVBfb27LwyDMNcSMbGxjAwMIjOji4MDw0jfF4YnJwclbO2i00KX0VZFbx8vODv76uEMAzDMBeTtrYOdHd2IyYuSgmxXWzOTaLhTfL0WPQYhmEuHWRzyfaSDbZ1bE74aE6PhjcZhmGYSwvZXrLBto7NCR8tZKE5PYZhGObSQraXbLCtY3PCR6s3eSELwzDMpYds75Wwgp4VhGEYhtEULHwMwzCMpmDhYxiGYTQFCx/DMAyjKVj4GIZhGE3BwscwDMNoChY+hmEYRlOw8DEMwzCagoWPYRiG0RQsfAzDMIymYOFjGIZhNAULH8MwDKMpWPgYhmEYTcHCxzAMw2gKu7q6Opv6jYnCgmIkpyQqR7OgLQfPPJGNhtSbsPWeFEz9Rb8uHHz6GZxOexAPXnWpfuTWcM2ddcqhwMXHG0GxWdh8QyYi3ZXAK53Ct7H1ReCex2+C+buqx+mXnkDJkp/g1mQliGGYz4052+DLCO15fPk78W7B5fNDir7pm3Dn3bfI7ebrsxBWvwfP//5tFA8qETRLF3Le2ofqPh1cnIIRGqRHR1429hXrlfMMwzBzQ2PCF4y0DB+c3rEbxcNK0IzoMdjTix6xDRrHHzWEDxrbYBk2BP2ockzoh0RakzATXMLikbIoSdkyccNDtyNLX4Ddx7uUGAb0fYZy9PRNY/jltSjONNcze16px5S2mK5uJmEzXU+tN+12NaG4stcQLjHkJdt0mqpIRl0QFTGEt/7rabx1rhOHnn8Kz5+0R2iAcp5hGGaOOGzZsmWbsm8TtLa0ITBoDtZvoBbHDrUg/q4bEHHmQ+ztjMXqRC/l5BCqjxxDU8gyLItWBkEHq7Dzj/+Ll3flIu/4UezedQiliEZKnBd09g3Y+ZvnkeOxGIvDnWR0fd4O/OLZd9EStAILQwz9iY4Df8N/7ehDyppoeMoQY8xck7C3Q3PeMZwai8GGVD+lHM/j7+8fw4n8XBzauR/7yhyxYHEE3JVuS/PR1/D//ud97D9ehFOf7sVH2eVwSk2fGC6d/nw/Tv/9afy9MRZr1bao3Y+nfvd/ODaegJXxHoaw4nex7elzCF6/ACEOokhl2Xj2D6/jowMncOTgIWR/UojhqFTE++mU+O/jl08XCZHejVdeOYK8BncsXh4BV7VNPziME8dOIDu7FE5BLigtBdKuScKUu2qvg6e3K8bbKpBf3YNhxxAsW7ceS2LceGKaYT5H5myDLyO0Z0McgrHupjTg0Bt4r1IJO48uHPzzdpwOuh6P/nILHv3pI9j2/dUY2fs37MgjNyUcC9KdUV5cJb0aoqy4GJ6eHigoVjPtRXlJE1yS5yNUCbGK0U50tgOh4YHiQI/ij97Gcd0yPCDKsPXRLdj281uQ0piN904oXtRwEfa8VYrIW8S5nz6IR7dtwT0Le7HvQKmhbDOe90BCajgGC8+hQWYmxLqsDAOiHh0lFehQwqrPCWWKj0csaXxbDl54IQcOVz+Abb8W7SK2h652wMEXXsbBNkN8A8Wod/kytv76J3jsoSz4iqsVvLEdBx2WiLr8BFu3ibTfS0fNoQIlvgn6Krz39PtoSLkdd2YEY+NXN8Lj5N/w3N5WJQLDMMzc0GTnWZe4EV/KAHJe24cGc8OCtSdxpDYeG7+cAk/h4RC64JW4bpkzCk4XS0GJTYwHCktRJtPX4VxhAJZvXgTfwjJUU9BwFUpKnZG+KJyOpmV0wDDsJ7eOJlGmt5EzHIWshbTIRofELz6Erd9ZN7nYxSUJCxKB8ppGw/HQEAZGnaEzOJ4CZyTe/iC2fjlepBZYOO+ZkIjQ9jKUSdEyiHXi5quQUleG8h4Ka0JJ4RBi0+Kk19ogPLWGkA24a32AIX/xf9D6r2BzSBOOHGuSIQZSsO6acLgo7YfhYuTlkWe3YaIuOv80bF4TbDgwRReFGx55ADcvEu0w1oSOoXCsvvchPLiWxzoZhvlsaHTUSBj/m65FWv+neHO/GQ+ip0t4O5X48Kln8OTjk9vrp4aES9QDqQdxicK0l+JcjdivPSf8myjELo5A5HAtqklEykpR4BCP+fMo8vQ0Cy/y8ceeNmy/fQG7W6Nw88O3I1NdXDqqR3NxDna+sh1PizI8vu3XeOWUCFddTc8UbFzviYLtT2LbL/6GV97LQUFt78Rpi+f9Y5DoL8StTHiQUqxFPRKjMS+8CuW14nxbBYrbg5EQZxj27O7qAoIDhAdnjDcChX51dMmWmUCnih7R04N20CIV5VjBd6YhEyU9if91cYZ9NYxhGGauaHe6RHhON34pEQ0fv20yRKcSjCXXXY3NRtsNt9yCO6+LN8zXOcVjQfIQiouEN1JWho7kOEQ6RCMh2SAicngwLQWJFgx16BcexGOP/2Ri2/qdm5AZrMyVCXkqfutZPP1SHnrC0nH1V27Ht3/4CO4U3uokOkRufgBbf/4AvnZjInw7CrDj2afx5FvKUKfF88FIEV4VDdsOkliHxyHW0xtxCd4oPleHHlG3hvAUpPjLyJ8LOncPuKhNwjAM8xnR9DoBl/RNuDmmCTs/OAnjdYfw9pYejU+UutrSsCUmCO9o/uQQX2xiFDpqKlBQ3YSU5GgZlrIwEeVleWIbQorwnD4blcg72ou0Ox/ArVcJ8YkLgKf7IHrUyTcFfZ/wRF0ChMeZhc33fB0/uCUePYcLUGbl+dCkeLiU1eJ4VS18k2Nk3UNTU+BaVoUTYvMV9VY9vKAQ4dqJeOqcoIEm1FSJNCE0LzkNnj7wcxDxaiZ8TUlDLbmVDMMwlw5NCx/ggcxbNiC08FMcVKbMJGFLsC6+Du/9fR/KewyGWt98Gq//7kk89fHkPJZncipiS7OxszARC5IUOYyLR2z1SZxoFGELPqub4glf4WlVnxPeGM0l0rDn8T34RE4iKtTvw1O/eA478pThS30XCgprAH9vyHWals4T0alIxwns3C+c1GRlzi1iPhK7RD2qvZGWOjkP55u+BLGdn+LNnVWQTaPvRfnO97CvMwpZ6TO8/O+UhFVZHih4722caDO06WDlPrz7ydTXNhiGYS42mnudIWRVBiLdlDDCLQLznUtwuKgPnvPVVwucEJYSC6fSfXj9jb3I3n0A+w5XwC7zS/jXzdFwVrsLzq7oKzyG0sAs3LgsBM5qWO4B5AcbhZllmtcZpuCBsHmjKHr3A7z78QFk7zmEs04rcVVwMUrsUgyvO3hGI967Cnv/70N89JGIky3KM5qEL39zM+IpW0vnJV4YbzqAvI5UXPvFeBjki8J240iDcZjAJQTJ8x1R9tE7ePsDyu8ITnaGYvP9tyBLHaJtLUb2qfNfUfCOj4N31afY8ZahTfeX+uGL1wcg76yZ1xkYhrksuRJeZ9DOV5bNFXoZe2AEjq6f5zwTvfQ9iBFHF3hOVwh6ybx/hjiWzs8Beql+ACI/91nmNyzadAhw9XRWho0ZhrEV+CvLtIDOWb6f9/kurtDBRZRhRsFysBDH0vk5QItOZi16hBO1KYsewzCfDyx8DMMwjKZg4WMYhmE0BQsfwzAMoylY+BiGYRhNwcLHMAzDaAoWPoZhGEZTsPAxDMMwmoKFj2EYhtEULHwMwzCMpmDhYxiGYTQFCx/DMAyjKVj4GIZhGE3BwscwDMNoChY+hmEYRlPYnPDZ2dlhbGxMOWIYhmEuFWR7yQbbOjYnfM7OzhgYGFSOGIZhmEsF2V6ywbaOzQmfl7cnOju6lCOGYRjmUkG2l2ywrWNzwucf4IfhoWG0tXUoIQzDMMzFhmwu2V6ywbaOXV1d3biybzMMD4+grqYeTs5O8PH1hqurC+zteZ0OwzDMhYTm9Gh4kzw9Er3weWFwcnJUztouNil8Km2t7eju6sHQ0BDGx222GgzDMJcltJCF5vRoePNK8PRUbFr4GIZhGGa28PggwzAMoylY+BiGYRhNwcLHMAzDaAoWPoZhGEZTsPAxDMMwmoKFj2EYhtEULHwMwzCMpmDhYxiGYTSFTb/AXltTj9bWdgwNDmFkZEQJNY+joyOcXZwREOCHiHlhSijDMAyjNWxW+E6fKkBPd49yNDs8vTyRlp6iHDEMwzBawiaFjzy9yopqeHh6ICoqQn46OuqUs+YZGdGjt6cXVVW18jM6JpI9vysMvV4POzt7ODhYN4JPX8A7Ojpm8dlhGObKwibn+Gh4kyDR8/XzscpwURyKS2kINQ9rGBwcwrGck3j/nY/w7lu7sC/7U/kF2Z+FpqYWZO8+IIdpL0dIFOjb2G3l1+77evuxb89B5J8pVEIsU1R4Dtkf75/zyAHDMLaJTQqfKhbk6c0WNY21gkNexMkTeeJzBGvXr8TV165FQIAvTuaeQU/PlWswe7p7cXD/EflpC7i5uyJzaTrmJ8QqIZaJi4vGkmXpcPdwV0IYhtECNil86kKWuQxRqWksLYZRIU+Cfo8qOSURnkI03dxckZAUL/JxREuzZa+PfjuQRJYEdDro3Exx1PPkgRn//BLtUxgN11Gc9raOKXlMl84Yc+Wj/IaGRRrxjz4pjjEz5Utx6Tzl0dHeOSWtzFdJN5MnaVov8q7VfOhcf9+AzJvOq9DPp5CAqb8VRufU8qnlNa4joRP3kO4ppSVMy073XWVocFiWwzQPOjZtH+NrE3PJl2GYi4dNzvEd3J8jP1evzZKfs2U26Xt6enHsyEkszlgoh0oJMmqfHjqO+fNjED4vVIaZQoYs71QBGuqbYO/ggLHRUYSGBWNRegp0Op0c6iw4U4TgkEDUVNVhTBjJcSEGJLCxcVFT82hohrMw6MMjeri7u2Hp8sVSgMmYHzp4FH5+vmhsaBIp7LBi1RIhAG4zppuSt5ny0S8tHz2cK+MRAYF+Mi2Vu6qiGoVnz8kf/tWLNG5ubsLTWiQFhPKktnJychIGvkMY+CEsW5GB4ODAiXQOdC1RT5qHW7o8A94+XspVJlHrRW1D5RvVj0oRSVucimrRVt1d3UJERkV5HCbyUK8dFBSAOHFfrGlfNc6q1cvgIPKi9K6urugS+VMZqHOUkpoonoE+1Nc1yjRUjnTxLISEBsnjsnMVaG5unWgf4kLkyzDMxcNhy5Yt25R9m6G6qlZ+RirzdbNlNunJQyQPgwyup6e7MNrjwoAXSy8hISnO7C+/k2E/m1+Mjs5urF6ThQUpCYiICENZeRUGRW+fjHNfXz+qK2uEqARgWdZiwxCdyJPKFiSEgjyXKnG+pbkNWSuXIHlBAmJiI9EkBK6/X+QRHCAFoaa6jqwmslYtFXHmw8XF2WI6S+WLiY1CSEgQWlvapZDGi7JRPZsam1FYeA6LMxcJgVwg41HHgMoQFh4i606GnOq2LCsDC9MWwEN4YXR85nQhkkT5KC0JT3//ADrF9QOD/Cc8LhW1XvZ29vL61DYkDEVnSxAZGS6HJ6NFnWietre3T4oF1YmuTQLv5+9rVftSnBYhWpQn1Y/SU/2XrchEYnK8yMtdtpOXl6do3yWIi4+WYt7c3CI7CZSGPDjKJzwidOJZuBD5Mgxz8eC/MAuQEYqKmSfF5dCBo3JBConKvMiIiR6+KTSURb3+BcLQ09wTQZ8rhTglJSfIY8JVeF9R0RHyGmT8yTOC8L/1wkMjSFiuWr9SelMEXY8MOa1KJQ9HJSYuWngULsqR5XTWls8YEpbamgYhkKFSrAjyuGLjIjEkPGDjuUASUfXaBKUdGx8T9XSQx1RfEkUSz5mMfKRoGyo7tQ15dTrRCQlWPCIKDwz0x4AQUOO2MMZS+5qDBJw6D4SH8JzpmrT6l/KgLTg0ULYfifNsuFj5Mgwze1j4LNDd1YOcQ8cRJDyg627YiBtuuhaLlywUPfYi6VmZgwwreSsuLpNiRDg7O5231H6qrzMV8nLahUeRd+qsXEn68c59ciUihRtjZz81F0vpZlM+FRKv4eFhUedaZH98YGI7cjhXis+w0ZypvUl5yAsjI38qNw97Pt6P/DNF0lMyrYclSCB0DgbxtJaZ2tcaqJ3ouheai5UvwzCW4b88C9TXN8LD0w1x8VHSwyHPISgoEPOiwuX803TexoWgorwax4Sw2AsxojmhtetWyKFLS8w1nTXQnFlySsLElpKahIwlafD2Pn+uToUMfFLyfFyzaR2SkubLea7Dnx6X82AkqAzDMJcSFr7PwHQeC301Gnlhvb39SogBOR9kEjYdJKg0pxYbH43UhUlyeJHyHRycXBFoDmvSzaV8JF40VEdDjDQPpW4khHQNdRhvOugLBBydHOVioMylaVi4KFkuChkxWRFpm0x9DvTDF68zxDDMZ4eFzwK0EKWrsxelpZVyWTotSa+va5IrBYNDgqQQmEIiQItISopL5VApCSR9njqZj5raeiXWzKhC09HRJcWM8qDFD4bVm9NjTTprykdzUDROSOJIdaZ8I+aFy3k++vYb8tQo/5KScuzfe1gu6JiOjo5O7N19QLYbXYvSNTe1GIZWhRdty/j4eqNbPB/VlbWyXl2d3aioqBIdC/7TYpjLFZv866R36AjyImaLmkbNwxK0QjBj6ULU1zZg1wfZ+ODdj+VrALRkPpoWvUxDYlK88IQCcOCTw3jv7Y/kJ62UjI+PUWLMDAkNraak1Y8fvrdH5lFeWoWQMMPqyemwNp2l8tG8HH2tG83LfbL3kPz2GvLs6HWH4rPn8P47H8v8G+ubkLY4RcafDl9fH3G9OJw5XSCvRen6egcmXu2wZegVF/Kui4pKZb1OnywQ7RYFHQsfw1y22OR7fOSZ0ApFml9S362zFhrOK8gvkt/gkr44VQm1DurR0+sM6kvS1kDekn5kRL4sbe13SJqiviA9m+sS1qSzVD51Do4E1Zi5lEl6ibSwRlzH1gXPFPJkx0Rb2roHyzBawCa7pfTTQgQNuZGQWeP5URyKS2kINY/ZQMZ6tuJDYkJzanMVPYKuOdvrEtaks1Q+EjxT0SPmUibKx8nZ6YoTPcLOzo5Fj2FsBP5ZIoZhGEZT2KzwEfxDtAzDMMxssWnhYxiGYZjZYpNzfAzDMAwzV1j4GIZhGE3BwscwDMNoChY+hmEYRlOw8DEMwzCagoWPYRiG0RQsfAzDMIymYOFjGIZhNAULH8MwDKMpWPgYhmEYTcHCxzAMw2gKFj6GYRhGU7DwMQzDMJqChY9hGIbRFCx8DMMwjKZg4WMYhmE0BQsfwzAMoyls+hfYa2vq0drajqHBIYyMjCih5nF0dISzizMCAvwQMS9MCWUYhmG0hs0K3+lTBejp7lGOZoenlyfS0lOUI4ZhGEZL2KTwkadXWVEND08PREVFyE9HR51y1jwjI3r09vSiqqpWfkbHRLLnxzAMo0Fsco6PhjcJEj1fPx+LokdQHIpLaQg1j9nQ3NyK99/9GPlnipSQScbGxjA8NCw/p4OGZLN3H0BTU4sScvGxplyMbaLX63H40DGUnatQQiwzOmp4HsbHJ/u75sIY5krGJoWPBIQgT2+2qGnUPGZDfV0j3N3d0dHWIQ2FMT3dvTi4/4j8vJy4XMvFfD60trbh4IEjU55fc2EMcyVjk8KnLmSxxtMzRU1jaTGMKX19/eho78T8+TEYEz3jjo5O5Yyhxzw0LHrM4h99Dg/PLm/quZMQz9TrpjxlnGnylmVQ8lC9u9mWi65N6SkfKpMx6jnKc+JasyjLdFBc03qbeqlUFrqWLIPSDqblM85HbU/TOCoz1VPNh67d3z+Azo4u5YyB6a6vol7btE4qat0oDl3LHJauYYnp2p/yG5lox2F5bC7MmOnKorYhXYvOtYvOoGkchrlcsck5voP7c+Tn6rVZ8nO2zCV9XU0DSksrsGLlEpw9W4JxYVDSFqfC3t5eDl0ePZyrxAQCAv2wdPli6HRThZkMyKGDR5GyMAnBwYEyrKqiGoVnz8l89KOjcHNzQ+bSRfBUPNNBkSb3+Gkpus7OThgSxiYgMEDGUfNX83BwcJCGzsHBXlw/A4NDQ1aVizC+jp0oC9UvLj4aCUnxsmxq2cPCQ1BbXSeM3JjsPASJehiXpbm5BadO5EvDSJtO54D0jIXi2v7yvCnUdgVnirBq9TK56pbo6uzGiWOnRb5p8PbxkkN5jY3Nom1c0dDQLOPY29khecF8RMVEymM1n+CQQFRW1MBBlHlUtKdxHQi1np3iGjrRXlSH+YlxiBcdGvVenjl9Fj7e3mK/GX7+vrLNiLxTBWiob4I9tbPIOzQsGIvSU2TdyejL86J8zk6OGB7Rw93dTaalchPGbUPXovJR24SEBsnzxnk4OVIeIwiPCEWqeF7M3TOKf+zISQQFBSBOlJ+Yqf2pHc8WlMh4xLzIcPGcuZ8Xlp6RarEs6vPg5+eLxoYmkdIOK1YtkfeLYS53HLZs2bJN2bcZqqtq5WekMl83W2abnnq1xUVl8Pb2RKgw/MLmorKyRhisYDgJI+fh4Y6QkCC0trTLP/74hNgJQ2vMqH4UNUI0goIDZJomYcwLC89hceYiYUAXICY2Cj09vTIOCYyduFCROE898hVCGBKFAacFObSwhwyaj4+39ETPnC5EkhAByic2LsrgqQjDHhMbiVBRRkvlIiN38sQZeb01V61AUnI8AoUxLVIEmeZG1bLrhQHMEuJP1yODWyY6AzT86+Xlge6uHuSeyJPnMpakSWM8LhyOkuIyBAlBorYyhcrf0tyKSGFwVeNORpUEhtrARYghiXFtbYPIIwhLly1GghAq6gQUF5bCL8AXrq4uMp9qcU9IZFaKtiKx8/H1Rom4b66urrJ8aj0p/opVS6XgUT0L84sn4lA+NeL5oPtMnYeoaMMzclbE6RBtunpNFhakJCAiIgxl5VUYHBiU7VAlrt3S3CbbJnlBgmz7JiEI/f3ivLjfBiE5K+5HEJavyJRtQ21LwkJirV5jQNy7VWuWy/LTNUpLK0Wbj8rXcEyhTo5h+N1NCrSl9g8W7Udt0tnZhfUbVslnidKZhlG+lsqiPg9CXZEl2pI6IXSvGMYWsMmhzktNf38furu7peEgfH19hJF2RMtnWKRCxqVWeJERohcdGGTwhkjMYuMipVdHc3IkRAsXJUsjTcaaIMPuKw1VtzymfMaEdbO3d5DHZEwXpi2QQmpO5MxB1yLBJYOtDgXTNUhE6+sa5IpYlZi46AnPzFMIhZfoDAwODMjj+vpG+AoxJs+AoPJHRoVLD6mzfeqQ4Wyh+kdHz5NtRPmGhYcK78IbdbWNSgzRi3PQiTJHTwgoCRJ5ZXVCNKnzQvUkYZufEDcRh+pJcchrobYkXEUbk+DRtYgBIW7kCS4Qxt3N3eC90edKcV+SkhPkMXVarlq/csJTp/zJM6cVxCR6Y2M0BDsq20IlVnijy7IMHjhdo62tQ4qx2r50jRhRjhbhxRnfg+m4UO0/m7LQ86A+mwxjK7DwWUGb8JjIOLm4OklvRHRyhbflKYxhmzRmc4GMLM2pVFXWIvvjAxPbkcO5sqdNQ0tqPDK6p3LPYO+eg9j1QbboadeLnrxhhJp6+9RLP5Wbhz0f75crTslDomEua6FrkUia9tg9hLDRHA8N66nY2Qt3dxoGB4bQ0tKGfXsOTdSHFk309/djcHBQiTU3yLiqQkTQvhz6FfdDFSwnZ8fz6kDphocNcaie1LaHPz02pc1JGOleqPkQxrXUC0Nvb0ftM9XA0/VpWJmg9m4X7U5e3b7sT/Hxzn3SW1fvA3m70THzUC68Jjp3+mS+9BDVa9I1qC50n43Ldq6k4rx7MB0Xqv1nU5aZngeGuVxh4bMA9dbr6hqlt7Bvz6f4SBitj3buleLT0d4hPKW5vUSvQsNcySkJE1tKapIcpvL29pJGkeatTufmix63GxYJT279xjVyHkaFBCspeT6u2bQOSUnzpcE6/Olxmc7YkF8qaDjYuD7kRS7OWCiH2i4GJDyWPFuKI5wfCX2DD3kyxmWkeToaPrXWQzZHRXk1jolOi724VkpqItauWyHrbkyU8Fg3broKaRmp8pjmMY8fPS2fMcJBiDl5jsZlSxUef+qiJHHu/Dk+c1yo9r8QZWGYyxUWPgvQEOBA/yBWr12OG7+0aWLbfP3V8PB0R7Pw+uaC6mGRJ0lDbepGQkhDn3SO5vaoB68aZv8AP5mOhkKNoaEnR+FRhM8LlQtCaHiU3jmk9Nbg4uwsRbJfGbJU6ezolh4TGUFroCFCewednDdT60MLN6g+6hDgdBj7p1QWGr41hoYojetNYtHX1ye88EkvjM7T/KYK5dPd3SO8LWfZbuR16Rx18PMzDG+qG5WP5rqmEz4a7iPPpre3XwkxQJ51nwijstB8LQ1d0uIPyo/SmHpZFI+uQQubaGHUkmVpcgid8qBy0eIkT5pHNilbQID/FG93Oj5L+xtzIcrCMJczLHwWaGpsEQbFRc5nGUNzYYFBgRNzHmQsaHyMjON0y9SNIQMYMS9czvPRt8mQkSbDWFJSjv17D0tDT4JDw2ltbe3i3KiMQ3Nu5Gmq0GsVe3cfEOFNcliN8mhuajEMw4n01pTL3cMd3l5eKCookdelfGh1IC0WoQUm6nyYJcLCg6QHTKtfqRxU3urqOjlMZvz6hzHubm4yXum5CtmO/X0Dcl8UQolhgETtXHGZzJfaoqy0SsYNCwtRYgihGx2Vw4s0R0V1oG/4aWpsFe0cKtvb09MTnh4eyD9dKOtJ0IKQA5/koKS4XB6bgzohtEClpLhUxqe86fPUyXzU1NbLvClOR0eXLJ/afobVjgboenRfy85VKvd6VH6JAqWle0RD1nQN8tQpbzXNsZxcOSxKaSxhTfvTCk0Kpw6C+jyYhl2IsjDM5YxNruqkFX/0xxcqjJ46x2ItZFzrhLGiIS9LX1lG7ykVni2Vi1pooYQpdO3K8mr4CA+CFkmQrc7PO4s6IU5UNlPBMF3VSQaGhjBpVSG9jlBaIoy/8NJoYQotCyejSItZSoUY0nlajk6enauLizxHvXl17qsgv0iuwqQ8aKELLUmnc+TlWCoX5UUr9dpaO5B/plCuYG0Wgj8/IVYOz9EiCdOyE3QPjFcVOgvPkYZoaR6r4EyxEKpy+R5c6qIFZtuPcBIC7eToJMWupKhUvkIQExsN+h5WancpKMKzIlHz8vaWxpfypUUj6Zmp8roEGWYSnsjIMDmESG1B75bRasNw5T6fV8/CUlGnWoRFhAqP2rDilfIxXWVK+Pn5SEGlJf7UPpSOhpypjcg7Iu+/uqpOigWtoqRnx09ciz5psQnVw93TTZbLcK/LpUdI3xlLq3PPu4YoG60Upfak11/oeTVlLu1PHSLqMFD920UHijw5ek5Mw6idZiqLueeBYWwFm3yPj3raZPhoPoyW2s8GMqIkEvQNLumLDXMtFxK1N0xGdDbQogHC3JJ/8iBIEGn+aDrvi64rF2FME8facklPQfT6yQuZbR2MUfMhoSbhtAZKY67sJPg0dKu+T2cuX/U9vlWrl4myk2E2eOHT1YE8G3o1g+LOpvNkKd1M95FQ76Uo/LRxLN1La7DU/uaeh+nCPmtZGOZyw/q/+MsI9Z0mGiIkITNeXj0dFIfiUhpCzeNCQ0ZjLoJBRnA6Q0iGizyjmQwPXXOmONaWi9JTPnOpgzFqPtaKHmGNYbUmXxIkS3WgODQPNxvRIyylm+k+Euq9nCmOpXtpDZbaydzzMF3YZy0Lw1xu8M8SMZc9xh7fdAbY2ONT3z1jGIYxh80KH8E/RMswDMPMFpsWPoZhGIaZLbOb4GAYhmEYG4eFj2EYhtEULHwMwzCMpmDhYxiGYTQFCx/DMAyjKVj4GIZhGE3BwscwDMNoChY+hmEYRlOw8DEMwzCagoWPYRiG0RQsfAzDMIymYOFjGIZhNAULH8MwDKMpWPgYhmEYTcHCxzAMw2gKFj6GYRhGU7DwMQzDMJrCpn+BvbamHq2t7RgaHMLIyIgSah5HR0c4uzgjIMAPEfPClFCGYRhGa9is8J0+VYCe7h7laHZ4enkiLT1FOWIYhmG0hE0KH3l6lRXV8PD0QFRUhPx0dNQpZ80zMqJHb08vqqpq5Wd0TCR7fgzDMBrEJuf4aHiTINHz9fOxKHoExaG4lIZQ85gNzc2teP/dj5F/pkgJmWRsbAzDQ8PyczpoSDZ79wE0NbUoIRcfa8r1eUJtQW1CbcNYRq/X4/ChYyg7V6GEWMbcMzA6aggbH7fZmQ6GmTM2KXyqkSRPb7aoaeZiaOvrGuHu7o6Otg5pNIzp6e7Fwf1H5OflxOVaLubSYe4ZaG1tw8EDR857jhlGC9ik8KkLWazx9ExR01haDGNKX18/Oto7MX9+DMZEL7mjo1M5Y+g9Dw2L3rP4R5/Dw7PLm3rxJMQz9cApTxlnmrxlGZQ81J79bMtF16b0lA+VyRj1HOU5ca1ZlGW2TNcmFG56XQozLS/FMQ6bqW5UXrWs/f0D6OzoUs4YoLzMpVNR60sb7ZvDUh6WzltiuvrJspk8A3R+RHzKNCLM9JrTlcX4GaBz7aIDaBqHYWwBm5zjO7g/R36uXpslP2fLXNLX1TSgtLQCK1YuwdmzJRgXRjJtcSrs7e3lcN3Rw7lKTCAg0A9Lly+GTjdVmMmYHDp4FCkLkxAcHCjDqiqqUXj2nMxHPzoKNzc3ZC5dBE/FMx0UaXKPn5ai6+zshCFheAICA2QcNX81DwcHB2m8HRzsxfUzMDg0ZFW5COPr2ImyUP3i4qORkBQvy6aWPSw8BLXVdcLgjcnOQ5Coh3FZmptbcOpEvjSStOl0DkjPWCiu7S/Pm0JtV3CmCKtWL5Orbgm1PqMkmiIPdw93ZGQugpe3J6oqa1BZUYMVq5bCyclRzt0eOXxcplu+Yons2FBdPhVlTUyMR/i80Im6dXZ2QyfaiMo9PzEO8aITo96/M6fPwsfbW+w3w8/fV7YTkXeqAA31TbCnthX3JzQsGIvSU85rezs7O3lMdab6hoQGyWPja1N56f5FRobLZ0DecyEc8hoNzXBydMSwKFt4RChSxXlz94niHztyEkFBAYgT5Sdmql9LS9t5z4B/gB+KC0uVEGCeKE96RqrFsqjPgJ+fLxobmkRKO3EflsDbx8uQEcPYCA5btmzZpuzbDNVVtfIzUpmvmy2zTU893OKiMngLwxsqDD/ZuEphgENCg6Ux8xCGOSQkCK0t7dIQxCfESqNmyqh+FDVCNIKCA2SapsZmFBaew2Jh1BelL0BMbBR6enplHBIYMqZF4jz1zlcIYUgUIkQLcmhhDwmKj4+39ETPnC5E0oL5Mp/YuCiD1yKMYExsJEJFGS2ViwzeyRNn5PXWXLUCScnxCBSGtUgRZJobVcuuF8YwS4g/XY+Mb5noDNDwr5eXB7q7epB7Ik+ey1iSJg3zuNCukuIyBIUEyrYyhcrf0twqxYCMK7XJmbwi0R6pyFxC9YmWbVJRXi3FxNnZEbWiE+IvxMnV1UUuVJLlEnWg8rgI8exo75KGOW5+tOwEUN0oLoklCQLVrTC/WIS5ynJTGWrEM0H3ljoMUdGG5+KsiNMh2nH1miwsSElAREQYysqrMDgwKK9F9T1bUCLvS4YoK7UviUGFuD90/6gjUlZahb7ePtnJShDXpnRVFbWyTak96BoD4n6tWrNcdjLoGqWllaKdR+WrN6ZQx8Yw5O4mBVq9d9PVj4Ta9Nkk4fPx9RbPSBfWb1glnynK11JZ1GeAOiNZ4lrJ4j5TezOMrWGTQ52Xmv7+PnR3dyNYGBDC19dHGGlHtHyGRSpkaMiAR4gedWCQwRsiMYuNi5ReAc3HkBAtXJQsDRoZNsLNzVVcn4xWtzymfMaEutjbO8hjEqqFaQukkJoTOXPQtUhckhckTAwF0zVIROvrGqRXpRIjhEj1zDyFaJAXNjgwII/r6xvhK8SYvASCyh8ZFS69pU4hRpZQ2yQkLEgIR7AMozYhYRkbG0WbMN5kzKktaJiNIOPtIzwOuie0T7S1tQtB85LeM9WNhG1+QpwUVoLqRoJA4kjXJFxFu5Lg0fWIASFu5AkuEMbdzd1VhtHnSnEvkpIT5DHVff3Vq2UHiupKkEc1KjzDocFBeUzeF4mvei9IcNauXyG9JLpGm6gHiZXapnSNGFGOFuE5G7f7dFhbP0vMpiz0DKjPI8PYIix8VkAGl4yKi6uTHO4RHV5hbD2FYWwTPe5RJdbsIINE8ytVlbXI/vjAxHbkcK7sddMwkxqPDPCp3DPYu+cgdn2QLXrd9cKTMoxQU8+feuyncvOw5+P9csUpDVfSkJu10LXIMJv23j2EsNF8Dw3xqdjZGwy8OQYHhuTQ2r49hybqQwso+vv7MagIwUyobeIpvGFjSIzI0FIedB/8/P2Eke6U3g55MjSMSuLX0dElw6j+/v4+UnCobtSehz89NqWd62ob5LWMhcG4Znph6O3tqE2mGngabqZ8VUgwyKM9JOq5+6NP5OfwkGgz5f6QmA6J44937UPOp8flaAO1KUHXoOeJ7q1x2c6VVJzX7tMxm/rNxGzKMtMzwDC2AAufBciQ1tU1yp71vj2f4qOd+8S2V4pPR3uH8JTm9hK9SnBIIJJTEia2lNQkOUzo7e0ljRbNf53OzRe9bzcsEp7c+o1r5JyMCglWUvJ8XLNpHZKS5kvjdVgYWEpnrdG7kNBwsHF9yItcnLFQDnVeKIKEh0xiSkON/cLboSFfGvajYU8KG5TzoJNzivStPeTJGJeL5ulo6NFar9gcdK2Dn+RIoY2JjcaKlUuxcvWyKUO6NFe7dt0KOYdJ3l55WRX27z0knifDc+MgRJ2GuI3Lliq8/NRFSeLc+XN85rhQ9bsQZWEYW4CFzwI0BDjQP4jVa5fjxi9tmtg2X381PDzd0Sy8vrmgeljkwdCwlLqRENLQJ52juT3yoFQjRnMzlI6GQo2hYShHYWxpIUfm0jQ5PErvHFJ6a3BxdpYi2a8MWap0dnRLT4sMojXQcKG9g07OMan1oXk5qo+6WGcmqC0oj24hCsaiTfWle0DtTdBiFwfRDlRHqre7h5t8TYXSk3fsKMpLHQWCREjnKLxEP8Pwn7pRmUgspxMGGu4jz6a3t18JMUAi16eE0dykhyctRkqTQ7NUjhHRUaKhThWaH6a60NAmdVBIGJ2FF9nc1CrLRfOAnjR3bFK2gAB/6elaYq71M+VClIVhbAUWPgs0NbYIY+wi57OMobmwwKDAifkPMhw0VkaGcrol7caQQYqYFy7ntOjbZMg4kndZUlIuPILDct6GBIeG1mjOioZUKQ7NuZGnqUKvVezdfUCEN8nhTcqjWRh/OSQn0ltTLhISby8vFBWUyOtSPrQ6s7qyRi7SIEGxhrDwIOkB0+pXKgeVt7q6Tg6ZGb/+MRPh4aGizVtRU1Mv09Mw27niMlkXmscjyNj7CqNeVlopvSgqH90PEj9agUnenjpX6enpCU8PD+SfLpR1I8hTOyA8tZLicnlsDup40CKkkuJSGZ/ahD5PncxHTW29IY6rq8hzQHidhg4D5U8vllO5CfrMO5WP40dPydcACJqHJC+V0tIwNV2DvHPKm6A8juXk4rS4jprPTFhTP3PPAK3apPxpIRSFXYiyMIytYJOrOsm40R9iaBitnJuddpNI1QnDRcNDlr6yjIxV4dlSuaiFVuOZQteuLK+Gj+ht04ICmlbLzzuLOiFOVDZTwTBd1UnGhjwTWoFHS+JLSyqkl0YLU8hDIHGkxSylQgzpPBlV8nBchcdA58ibIo+MeuMF+UVyFSblQQtdaHk6nSORsFQuyotW7bW1diD/TKFcwdosBH9+QiyioufJhRumZSfoHhivMHQWniMN0ZYLQSo4UywEq1y+E5e6aIHZ9iPIuBqv6jRtE6oztXPmkjTZAVEZHx+Ty+7j58fKNGoYDUEbh51Xt8JSEacWYRGhwos2rHI1LYOKn5+PnMOjJf7UJpSOhpmpXQz3xkWKSX6eIV9aTBIeHobenj7ZYaD2p9Wb1EZnRJwSkUcjlTk+BpHR4bJdp1xD5EGva1Ab0usO9IyaYtrm1tTP3DNA6UmwKU276EiRd0f5zFQWc88Aw9giNvkeH/W6aT6H5sPIsMwGGqoikSDvIH1xqhJ64VB7xmRwZoO64IGMlCnkbZAg2gsBMBUtFbquXJAxTRxryyU9NeEBkJcw2zoYo+ZDQq2ueJwN1tR5tpBnQ69j6IQRn02HyVI6a9rMUhxL988aLJXT3DMwXdhnLQvDXM7wl1QzDMMwmoJ/lohhGIbRFDYrfAT/EC3DMAwzW2xa+BiGYRhmtpifiWcYhmGYKxQWPoZhGEZTsPAxDMMwmoKFj2EYhtEULHwMwzCMpmDhYxiGYTQFCx/DMAyjKVj4GIZhGE3BwscwDMNoChY+hmEYRlOw8DEMwzCagoWPYRiG0RQsfAzDMIymYOFjGIZhNAULH8MwDKMpWPgYhmEYTcHCxzAMw2gKm/4F9tqaerS2tmNocAgjIyNKqHkcHR3h7OKMgAA/RMwLU0IZhmEYrWGzwnf6VAF6unuUo9nh6eWJtPQU5YhhGIbREjYpfOTpVVZUw8PTA1FREfLT0VGnnDXPyIgevT29qKqqlZ/RMZHs+dkQdP8cHOxhb2/d6PzY2BhGR8csPhcMw2gPm5zjo+FNgkTP18/HKuNGcSgupSHUPGZDc3Mr3n/3Y+SfKVJCJiFDOzw0LD+ng4Zks3cfQFNTixJy8bGmXJcber0ehw8dQ9m5CnncJu7Vx7v2ic5OjTy2hqLCc8j+eP/EqACJILXD+LjNjuwzDHOBsEnhIwEhyNObLWoaNY/ZUF/XCHd3d3S0dUgjakxPdy8O7j8iPy8nLtdyzQZvH28sW754Vh56XFw0lixLh7uHuzxubW3DwQNHzrtvDMNoD5sUPnUhy1yGsdQ0lhbDmNLX14+O9k7Mnx+DMeE1dHR0KmcM3sTQsPAmxD/6HB6eXd7k4ZAQz+SRUJ4yzjR5yzIoeaje3WzLRdem9JQPlckY9RzlOXGtWZTFEhNtYCZPGuL08vIUnw5KiAE1jVpWSkvXJnSOjvAUnRw7Ozt5fkSck3UQ7WBaN4ZhtIVNzvEd3J8jP1evzZKfs2Uu6etqGlBaWoEVK5fg7NkSjAuDnrY4Vc450dDl0cO5SkwgINAPS4WHotNNFWYy0ocOHkXKwiQEBwfKsKqKahSePSfz0Y+Ows3NDZlLF0mjTQyKNLnHT0vRdXZ2wpAQk4DAABlHzV/Ng4SBhIaEYunyDAwODVlVLsL4OnaiLFS/uPhoJCTFy7KpZQ8LD0FtdZ0QjzHZeQgS9TAuS3NzC06dyJciQ5tO54D0jIXi2v7yvDnU8lOHgggNDUJ//wBCQoIQJzoapu1GdSwpKkVZaaWs86g4jp8fi3bh1cWK+BSH7knBmSKsWr1MzgmfLSiReRPzIsNFmVKVI4ZhtIbDli1btin7NkN1Va38jFTm62bLbNOTF1FcVAZvb0+ECsMvnAhUVtYgJDQYTk6O8PBwl0a6taUdK1YtQXxCrNlFGKP6UdQI0QgKDpBpmhqbUVh4DoszF2FR+gLExEahp6dXxiGBIW+F5qrIW1khDHiiECEa7qOFPSQoPj7e0hM9c7oQSQvmy3xi46KkaHR2dov8IoWIBFssF3lAJ0+ckddbc9UKJCXHIzAoAEWKINPcqFp2vRC7LCH+dL0gEadMdAZo+NfLywPdXT3IPZEnz2UsSZOiNS4csJLiMgSFBMq2MoU859MnC5CcmoglS9NE+aPR29uP+roGKZZ+/r7ntVt9XRPOiTwzl6XLzgfVub62Uc7BUrtRHGqXFnEcKUQuUKTz8fUWbdKF9RtW8aImhtE4NjnUeanp7+9Dd3c3goW4Eb6+PkJ4HNHyGRapkNdSK7zIiIhQITIGb4jELDYuUnp1NCdHQrRwUbIQraVwdXWRcdzcXMX1yYh3y2PKZ0yoi729YRiQhGph2gIppOZEzhx0LRLc5AUJE0PBdA0pKEKAaEWlSowQJnofkvAUYuclOgODAwPyuL6+Eb5CjMNFnQgqf2RUOOyFV9bZ3iXDTGlqbJF5hCtCT20QFR0BV1FPc1B9GxuaECy8QhJegrzNuPlRcDTjyTIMw5jCwmcFbcJjIuPq4uokh91oRM7HxxNNTW3CWxpVYs0OMuA031RVWYvsjw9MbEcO52JAeGzDyhwkxaNhu1O5Z7B3z0Hs+iBbeD/1wpMyDAu6u7tJD+ZUbh72fLxfrjil4UoaZrQWuhaJpIsiaCoeQtho3mxsdLKOdvbC3Z2GwYEhtLS0Yd+eQxP1oQUl/f39GBwcVGJNhdK4urrK9lUh8VOF3hS13TyVRSsqTo5O0M1hzpdhGO3BwmcBGgasq2uUXtG+PZ/io537xLZXik9He4fwlOb2Er1KcEggklMSJraU1CQ5TOjt7SWNPM1Tnc7Nh5sQuEXCk1u/cY2co1IhwUpKno9rNq1DUtJ8KcyHPz0u01H6Sw0NBxvXh7zIxRkL5VAnwzDM5QALnwVoCHCgfxCr1y7HjV/aNLFtvv5qeHi6o1l4fXNB9bDI0wkNC57YSAhp6JPO0dweeVCL0lOQkBgH/wA/mY6GQo2hoUhHJ0eEzwtF5tI0OTxK812U3hpcnJ2lSPYrQ5YqnR3d0vNyEB6YNdDwpL2DTs4PqvUJCQ2S9VEX65hCaXp7e6cMp1L9BgbMe4jUXpSmtbVjirdN98m0XRiGYczBwmcBmoNydXOR81nG0FxYYFAgWppbpNGWw2x2kAsz1CX1M0ECFjEvXM7z0bfJkPCQd1lSUo79ew/LxRkkOLSSs62tXRp5ikNzbuRpqtDikL27D8gFHzS8SXk0N7XIdJTemnLRu27eXl4oKiiR16V8aHVmdWWNXCxiPAw5E2HhQdIDptWvVA4qb3V1nRzyNH79wxhKQytKy8uqZB0pHS1cmU74iOjoeeju6sapE2fkAiFarHQ2v2TG4V0nR0eDuPcPWHV/GIa5crHJVZ0N9U3SiIWGhcil+7OBRKqutl4Il6PF1X30Hlrh2VK5qEVdSGEMXbuyvBo+ft5yMQjZ3fy8s6gT4kRlMxUM09WJND9HQ5iF+cVyOX9pSYX00mhhirePlxRHWsxSKsSQztM3mZBn5+riIs+RN0UeGc2JFeQXyVWYlActdKHl+nSOVlJaKhflRV/e3Sa8qPwzhXIFa7MQ/PkJsYgSIkOLTkzLThiEmF7qd5OrL52F50hDtOWllSg4UywErFx4jV1IXbTAbPsRlIY852JRdlrBSmmDQ4JBy0FJkM2t6nQR9aL9VuENU8eBRDJ5wXz5DS9qHONVnVRf6gj09w3I+rWLjgN5o1RvhmG0h02+x3fqZL78vk2aD6Ol9rOBFn6QSNA3uKQvvvDvcpEYELM1quqL2+aW/JMnQ4JoL4R2Ou+LrqsXoj5dHGvLJT014RGRp/hZhEHNh4SahNMS1tTRGKqPcfnMvSNpjrneH4Zhrhxs8q+fvBOChghJyIznh6aD4lBcSkOoeVxoyKDOxaiS4JkTPYKEw0l4LDMJAl1zpjjWlovSUz5zqYMxaj7WiB5hTR1VyOM/RF/DJjo/BIkmLTYioXVzM78aVMXadmAY5sqFf5aIsTnImyzIL5bfIDOmvNZBQ5k0pBoWHiyPGYZhpsNmhY/gH6LVNiSANP9H3qK1Q6oMwzA2LXwMwzAMM1t4soNhGIbRFCx8DMMwjKZg4WMYhmE0BQsfwzAMoylY+BiGYRhNwcLHMAzDaAoWPoZhGEZTsPAxDMMwmoKFj2EYhtEULHwMwzCMpmDhYxiGYTQFCx/DMAyjKVj4GIZhGE3BwscwDMNoChY+hmEYRlOw8DEMwzCagoWPYRiG0RQ2/QvstTX1aG1tx9DgEEZGRpRQ8zg6OsLZxRkBAX6ImBemhDIMwzBaw2aF7/SpAvR09yhHs8PTyxNp6SnKEcMwDKMlbFL4yNOrrKiGh6cHoqIi5Kejo045a56RET16e3pRVVUrP6NjItnzY6ag1+thZ2cPBweeAWCYKxmb/Aun4U2CRM/Xz8ei6BEUh+JSGkLNYzY0N7fi/Xc/Rv6ZIiVkkrGxMQwPDcvP6aAh2ezdB9DU1KKEXHysKRcD9PX2Y9+eg+LeFiohM0MiefjQMZSdq1BCZg89B/Q80HNxOTI6anh2xsdtdjaEYcxik8KnGgry9GaLmmYuxqa+rhHu7u7oaOuQBsGYnu5eHNx/RH5eTlyu5brccHN3RebSdMxPiFVCmNbWNhw8cOS8Z51hbB2bFD51IYs1np4pahpLi2FM6evrR0d7J+bPj8GY6AF3dHQqZww946Fh0TMW/+hzeHh2eZP3QEI8U++a8pRxpslblkHJQ/XuZlsuujalp3yoTMao5yjPiWvNoiyWmGgDkzwpL7Vd1DimZVOx5rrTtbWdnR3cPdzh5OSohBiYLr61zNSmxliq23T33/i+UNp20SkzzmO6dCrTlY/2R0QaeV48O6blUvM1DbdUHoa5HLDJOb6D+3Pk5+q1WfJztswlfV1NA0pLK7Bi5RKcPVuCcWFY0xanwt7eXg5ZHT2cq8QEAgL9sHT5Yuh0U4WZDMWhg0eRsjAJwcGBMqyqohqFZ8/JfPSjo3BzcxOexyJ4Kp7poEiTe/y0FF1nZycMCaMSEBgg46j5q3k4ODhIg09zVEuXZ2BwaMiqchHG17ETZaH6xcVHIyEpXpZNLXtYeAhqq+uEMRuTnYcgUQ/jsjQ3t+DUiXxpAGnT6RyQnrFQXNtfnjeFjGLeqQI0NDTL+pFB9ff3m8iT2rbgTBGCQwJRWVEDB1GWUdFOxmUjrLmu2k6jJIoiDgldRuYieHl7ynIcO3ISQUEBiBOdmynlEmI4PKIX3r6bbD83N9fz4pvDUpsa162mqk52qChOckoiYuOizsvD3P1X74ufny8aG5pECjusWLVErmC29NzMVL6KsiqcLSiR8Yh5keGiPVOntIuTI7XLCMIjQpEqnumZyuPt42XIiGEuAxy2bNmyTdm3GaqrauVnpDJfN1tmm556r8VFZfAWBjJUGH7hHKCysgYhocHSQ/AQBjQkJAitLe3yjzw+IXbCIBszqh9FjRCNoOAAmaapsRmFheewWBjfRekLEBMbhZ6eXhmHBIa8kCJxnnreK1YvQ6IwSLQghxb2kGH38fGWnuiZ04VIWjBf5kMGs79/AJ2d3SK/SISKMloqFxmzkyfOyOutuWoFkpLjESgMepEiyDQ3qpZdLwxdlhB/uh4Z/TLRGaDhXy8vD3R39SD3RJ48l7EkTQrCuNCYkuIyBAnjbupNEQ31zairbcAqUT9KR0aUFi+5ubnINqL6VYu2JrFZKeKQUfbx9UaJuB+urq5WX5fa+kxekWjnVGQuoXaKlm1NbRkWFiwMv50ylO0GP39fVIlrtjS3ybomL0iQbdkkDHl//6C8f9TBMI5vykxtSqMO6r2jupEgLctabBhmFfHp+aQOBcWzdP/V+0JCnrVqqSjrfCl0ltJZKl+MeI6onTs7u7B+wyqZnup8Nr8YA+L5WrVmubwXERFhokNYKZ6LUfmqkLnyuAgRZpjLCZsc6rzU9Pf3obu7W/TMg+Sxr6+PMCCOaPkMi1TIiNQKLzJCGPrAIINXQkYpNi5S9s5pTo6M0sJFyUK0lgoj7yLjkAD4SoPULY8pnzFh5e3tHeQxCdXCtAVSSM2JnDnoWiQCZODVoWC6BolofV2DXBGrEiMEg7wJwlOIDnlLgwMD8ri+vhG+wqiSeBFU/siocNgLT7SzvUuGmaLXj8h4tBFUvzVXZU20NeHgoJNCpXoqJLihQqxIMKlTYum6aluHhAWJDkWwjENtnZKaKMXUSQiFKdQJuWr9ygnPm65NAkUrgkk0LDFdm65dt0J6Tyquor5R0RHyXlG55UjAuGgX0eZ0bOn+q9B9UeNYk87a8hkzMDCItrYOzE+Mm3gGaG40RpS/RXjcps+Jem2Gudxg4bOCNuExkeFzcXWSQzmiMyt6zZ5oamoTRnBUiTU7yBjT3ElVZS2yPz4wsR05nCt71DSEpMajIbFTuWewd89B7PogW/So64VHYxihJo+DeuOncvOw5+P9csUpDV3RcJ+10LXI8Jr2zD2EsNHQ49joZB3JM5qOwYEhtLS0Yd+eQxP1ocUR/f39GBwcVGJNhTxluu6+7INyCLq8rEoaWGOcnB3PKxsZ1eHhIdk+lq6rtrWn8CCNoXuqGn1TqP3aRTvmnToryvYpPt65T3pR1rbrdG1KgmHaIZm+RS3ffxXT+2Ip3WzKp0JiTM8/5am2M23nSipm9ZwwzOcNC58FqHdfV9coe8j79nyKj4QB/GjnXmlEOto7RK95bi/Rq9D8TnJKwsSWkpokh+u8vb2k8aI5oNO5+aJn7YZFwpNbv3HNlB45Gamk5Pm4ZtM6JCXNl4bp8KfHZTpKf6mh4WDj+pBHsThjoRxyNAcZWhpOXCu8KxqWraupx34hNGS0LUFzmYqjOOvrWqKivBrHRCfEXlyDPEPyhCjPS4k1998cc01nDQ7CUyZv2LitU4V3mbooSZwz34lgmMsNFj4L0HDQQP8gVq9djhu/tGli23z91fDwdEez8PrmgtrbJq+Dhu3UjYSQhj7pHM3RkCezKD0FCYlx8A/wk+loKNQYGmJydHJE+LxQZC5Nk8Nc9M4hpbcGF2dnaSz7lSFLlc6ObulZkbGzBhq2s3fQybkitT4hoUGyPuqQoSl0XVqsQudpbm6VaGdahNNQRwsjDFB9ad5ShdJ0d/fAycngnVi6LrUxxaE0lFaFFnfQqkPjMII6OzQnGBsfLRdtUD4k0NN5reaYrk1bxf009Winw9r7b4o16eZSPp3wjmkBlSfNdSvtTBu1T0CAv2hn654Thvm8YeGzQFNjizCaLnI+yxgaIgsMCpyY2yCjQGNWvb39ct7JEmSIIuaFy7kn+jYZMkJkcEtKyrF/72G58IEEhxYqtLW1yyFVikNzbuRpqtBrFXt3HxDhTXIYjvJoFt4SpaP01pSLVjd6e3mhqKBEXpfyoVWStPCCFtmQcFhDWHiQ9IBp9SuVg8pbXV0nh8OMX/8whobJDuw/gt6ePnnc19uHLiFQJFQqNIRGw4xkkKlstPilqbFVtF+obEdrrhseHirT1Ii0dJ6G5orOluBsQbFsW2MoT+p4dHR0yfzU9jCsUrSO6dqUFpS0t07ev5mw5v6bw5p01pSPVm1SWup00LNDw+q0sIe8SVpQRFDaYzm5OH0yX8ZlGFvAJld1NtQ3yT+y0LAQOdw1G0ik6mrrhXA5yrmxmaD3kQrPlsqFFrSgwhS6dmV5NXz8vOXCAGE7kJ93FnXCyFDZTAXDdFUnGRIaiirML5bL7EuFCFBvnRam0PJvMsC0KKFUiCGdp28JIc/O1cVFniOvhjwy6mkX5BfJFXmUBy10oaXndI5WNFoqF+VFK/LahMGjby6hFazNQvBplWFU9Dy5WMK07ITBoE6ubHQWXgQN0ZaXVgrjWIxzxeXCa+xC6qIFZtuP8BH17BJx5HULS+WKRlotm5gUJ8tFhpUEKDIyDCeOnZZ1JC+NVguGK/fPmuuatrVsS9EpoJWwJHLGdSEPibz56qo6aeRpdSg9C34inD7VRTQzreqcrk0Tk+PlkCO1KdWtRXjmkeJYvSc0VE3PN3U46N5buv/m7guds5TOmvKRePb3Dcjz7UI0ybujNNQBoVca6H7R6ldqe3pFh/6mzJWHYS43bPI9vlOid0mr62g+jJbazwZa+EEiQd/gkr44VQm9cKi9XjIss4E8EMLckn/qjZMg0nzTdN4XXZcWH0wXx9pySY9J9O7JU5xtHYxR8yGDS0bUEhSfjKZOGE/jzoz6rtuq1cvkuVERb6ayWbquNW1pzEz3xVo+a5vOtswq1qazVD5zz46l541hLmdm/1d4GUC9ToKGCEnIjJdRTwfFobiUhlDzuNCQcZiLcSPDOp1xJQNOS+5nMjB0zZniWFsuSk/5zKUOxqj5WCN6BMWnebSZPHg6Z6lslq5rTVsaM9N9sZbP2qazLbOKtekslY/CTc/R8VzKxDCXA/yzRMxljbHHR8LIMAzzWbFZ4SP4h2gZhmGY2WLTwscwDMMws2Vukw4MwzAMY6Ow8DEMwzCagoWPYRiG0RQsfAzDMIymYOFjGIZhNAULH8MwDKMpWPgYhmEYTcHCxzAMw2gKFj6GYRhGU7DwMQzDMJqChY9hGIbRFCx8DMMwjKZg4WMYhmE0BQsfwzAMoylY+BiGYRhNwcLHMAzDaAoWPoZhGEZTsPAxDMMwmoKFj2EYhtEULHwMwzCMpmDhYxiGYTQFCx/DMAyjKVj4GIZhGE3BwscwDMNoChY+hmEYRlOw8DEMwzCagoWPYRiG0RQsfAzDMIymYOFjGIZhNAULH8MwDKMpWPgYhmEYTcHCxzAMw2gKu7q6unFl3+bo7+vH4OAQ9KN6YNxmq8EwDHN5YmcHnYMOLi7OcHN3UwJtH5sUvtHRUXR1dkOnEzfE1QWOjjpxf+yUswzDMMyFYFw4FCMjegwODEKv18PbxwsODg7KWdvFJoc6SfSoB+Ll7QknJ0cWPYZhmIsA2VaysWRryeaS7b0SsDnho+FN8vSuJLebYRjmcodsLtlessG2js0JH83p0fAmwzAMc2kh20s22NaxOeGjhSw0p8cwDMNcWsj2ysWENo7tzfGNj/OcHsMwzOeAtL1XwAp6m1zcwjAMwzBzhYWPYRiG0RQsfAzDMIymYOFjGIZhNAULH8MwDKMpWPgYhmEYTcHCxzAMw2gKFj6GYRhGU7DwMQzDMJqChY9hGIbRFCx8DMMwjKZg4WMYhmE0BQsfwzDMFcrw0LD88diG+ia50T6FaR27uro6m/qq7eamZgQFBylHtsFYTzuae/Rw9A6Av7s9xob1gE4He+52MAxzEWhv60R1VQ0GBgaVkKm4ubkiOiYS3j5eSoj12KINNkVzwjfW14yzufmo7tBDVlznjpCEFKTF+kB3EYSot/QwPjnbB52bIwISspDpWYndB6rgkroGq2NdlVgXiwGU7zuAwt4gpG9OR7jJzxj2i7LtrQ3D+nVRuFS/Z9988iMcq1EOBHZOrnDzDkLSovkIEZ0CbdCCU++cBJZfi/RgJciEsdpT+LAlHNcvDlRCGMYy4+PjqCyvRmNjM5wcHREUEghnZyc4OTnJ88PDwxgSHl9TQwtG9CMIjwhFZFSEPGctV4Lwacrn0DedRfbeU2h0moeMtWuw8dpVyFrgj57io9h3ugUX/ucVB9Bc2wPvBauwaeNVyIx0BrzjsDRrMdIjL7boGTHWjPy85otQvzniF4XMJelyy1gUjxD7RpzYewTlPcp5DdNfXoSidj3sHR3g7ekhO2qFxS0YU84zzHSMjY2j6GyJFL2QENHZzVyIeZHhQqQC4ePrLTfap7D0zFS5X1fbgJKiMimYWkI7wjfWiaLTtUD4YqxbLrwLH1c4u7jDPzoJ69bOh0vNGeQ3mZiXUT2GBofEphcPlRKmIs+JcLE7pqc4Q9AbK4s4oLBh8Ty5Otsbzo+KcHt7uHt5wUX9LV3jfAZ70Nyu/Ky/aXhr32QZxLn+zha09RjOW8J7Xijcawtxttma2OJ6w4b6DOmN449Bb1pHNYzqpSIKeV6YKe5+CAkLUrZQJC3PQqpPDwrLWpQIBtR2VdvhPJRrTbStKdOcl/kOT81Rhk2prwijdjDTBjK/83oRRvUWeXU1d2LIKOlEXUyuYYpTgAf0p/dj9+l29JUfxceH6mDn66GcZZjpqaqoRmdnt/TiYuKi4ODggNHRUdRW16O46JzcaJ/CdDod4uKjESbitrW1o7amXslFGzhs2bJlm7JvE/T19cHdw105mgXN53CsyhULVsfB11Tund3gghEM2LsjyNswJKBvLcb+T06huLwGFeXlOFfaiFG/MAS6KYlbCrBrfyscHKtw5HAZqisqcK6kAq2OwZjn6yR67keQnVOBjmGgt7EK5WVVGPSLQ4hHK/I+yEGz3FfzacLQUDFOnKhEfacLIqJ94KjkPz5eitxTdWisrkBJlR7+QX04tScX55pbUHOuDKUtOoRG+MDJ7I/S69FRWY2ewDQs9GlEfskgAmMC4KrEHWmvRWW3J2LoehQw1ofqo4dx6HQFqutqUVpYiuo+N4QHe0JnN4zao5/gaI8/4oNcZHp0lmJf9ilUIQgxgcKbJZrz8eH+ZnjOD4GXmW5VX2MZ6hGKhFDje6jDcJsI7/I21F0txynRrnWNqDxXipLKIfhEBUIdDZX3Z99JFFY2oqGqAkUlNRj0jkCwhyHCTOeHa05h95EeBM4XbSFj96A4+yBOVI4jONZfPAuCsRac3pmDJo9YhHmJBtO3o/CTT3G8sBIVlVUoFfe6fsQHEUGuSu/RcF8bhkZwNjcPFTXdcJ43D75OerTlH8YnR8+hvKoOFcXlaHH0gGNzOxChPANG2Du6wdG+Hy0NQjhHdPCOjEVipLi/ZtqSYVT6+/pRVloJXz8fIWgxMkwvemd5pwrQ3t4p5/po6+7uQWtLGwKDAkQf3B4+Pl7o6+0TYe3SAySxtMScbfBlhGb+nHq7uwEvPwSYzHMZcEZQ4gKkzlNuZl8VcnKqoEtYhetu2IgviO2qBHuU5xxDeZ8hioEGNA4l4NobNmDT9SJOojs6zp5Do/AG3OJX4PovrkGyl3Ayl18r9qefzxFqgW7HNGy6QcSbMt/WgA6XJdi0+Spsum4VEp2EyB5oQsjajdi0cQO+sD4RXp3FQvyU6NNiD+/5SZiHapw426mEmTKG5rzjODMUhpVfEPlfuwHXb05HQOsZHCqhMUhnBIf5QN/Ygi5DAvS3tmLExRkDTe3oV8I6WkRhAgKmaefpGMIAtauPm6x7f2UhCoUILryayiHq/gWqey1OFqll70Hp6SqMxSzDdV+4Chs2i7ZPckVDSR16rTjvHBwEX30LmtTs+trROuwM58FWtKn3t7MNTWN+CAygP5EBlH96HOUOcbjq+mvxBbFdtz4OusrjyCkfMMRXaOx2QOa1dL9XIFY8TmP1+SKOPWJWi/b8grhn169CRHs16pT4UxkTInkIpzuDsSwjFN7JaUh2qcOnByqUejGMeRobmuVnWHiI/CTqRKeR5vOChMilZyyUW2BggAyjcyqhYSEYGxsTeTQpIVc+mhG+ftGrsZau6mp0eSQiY7670kD28JifjmSPHlRWG09EhSI+0Uf4K4SIExEG77EB9Cujldaj5HPe3QhFXLTiSTm4w8sbGA+Yh2hPQxA8gxAmPIbenqnG1yy6QCxICwXKz2BCP4zRN6Gm2h6xC+fDVxUtpyAkJ/hgoLZRip1zYDC8+1VxGEJrcw+Ck4TX0t2CVrl4rAdNQvX9wgOFTM7AxBAybX1oPnsaBe3OiIo0LORwixVif206IlX3TnjiIeHuwunqUgR2lEYT4eQg/VSJR/wybFoTBYMDZeG8SyBCvAbQ2mpot6FWIeYhcUgIEuVvNdy8rqYW6ANCEEzuX6fwjDs9kZwZAw+lQ2zvGYOMJE90lddOdASI8ATRfoZBA8EYGmqFQZoXj2Q/pVEdXBGZHA1xK81gD//Uq7AuPQg0sNDVNwLf+MXYuFZcV4nBMOboEF4dLWLx8lKNAzA4MAA7OztERs+Dq6uL3KJi5k2cU6GVnc5OjmhrbVdCrnw0I3xus3DNhwbFQ+Ft8D4mcYWHsFYDg1OXB1+oVxKszsdRN+ebpgtORmrECMpOCQ/CdKpJ9AIHxL/qYweQvXtyO1QkPOX+QSFzAnfhMbsr4qBvR0urH/yC/OHr1Q6hSQbPqd8TwQEzyh5Qfwa7P/pE2Q7heIMQ3KxVSPVTzgvBGBJiU3TqFD6lcuzcjU8KhdpOlNkHsamBGDx3CB9+cAiHc8+hyngO1OJ5V/iHuKKruU3UawytwmP18w9EgJ8n2ttFfUU7tDUNwFvUTdZkaFCEeMD0EXLzFHKkto3KlCFnIexCqWmRyhTc3aYXMvXmBiRjY6q/YV8zf6XMnBHPHYmcKVYvWhFpxyf/QK54NPMn5eYqrFZ3BzrMLm0cQ29zM5q7zZ68gtAhZFEyQnrP4VSlOS/RFcHxiViwwGhbtAiZS1QPxROhYa5oF0Khb2tFo5cQCxchIsGuaGrpNHhOXmEIsdTHmLdYDv2q2xeuXoKkoMmxUZof3X2wDB06P8QuSkfWunW4asFkT5ZwixSe0OarsHrJPPgKn6vsyCHs/LR6YsjV0nnvkBC4traiVd+GlmaDWLsFBMC1oQ0dg21o6vZEWOglXHlrik4H54vxfg1zReLv74vBwSH09EyOSLm4Gp7f6krD+3z9/QOoqjC8S6SeI3q6e+Twp3/ARM/zikczf1n2IeEI1zWj+JyZNfM9VTiVcwo1vYbm8PAURra9c8oQFg3jtbeb6b3bGrpQpC70Q9fZYlQbf4GDsytc7Ueg81JXWypbkB+CQjwnhi69gwOha+1CtWgf1xA/6RV7h4bAsaUDNW3tcA02hM2dATRW98A9cQlWpEaK63vCzUUnPKepQj2m12PM3ll4ZZFIyliCDSuj4NJeh0ZlRNvSefgEIkjXjo7KTrS70hcLUFgIwpza0FbVgXY3JYzw8BLCL+KRM2hEV0cn4OU1wzCkEFNxsku01ZS+dLfIS9llmAtBSJhhbq+lqU1+EuHhIXByckRzcytO5Z7B6ZP5aGlplUOidE6lqdGwSCAkdNpFCFcc2ulS6gKRmhmKsXOHse9ULbr6DXNMvbTa8/A5dPkkIjHE0BxuEfPgN1CBM4XtGKLl6aNDaCvMR9mAHyIjPkcv4ALhHJWCZK9mlBm/OKcLQmy0A6pyT6G6x2CmxwbbUfRpNj7MbZ403H4hCEc1CsuAMCGIEhKRgVohhq7CS5rqmc0eg1j0tbahX76CMCY8yXMorjHyxvXNOLkzG5+W9RiGL8f06Ghox4C9K9xIoS2dl/ggPBKoKqqgikx4tMEhQ6iuEaIuDMPEPJx7CCIDBlB26hzaBmWGskxnSgfgFxMyg9DbIyQ2Es6NJThZPWBow+FOFOVVCXlnmAuHi4szwsKCpci1iI2gVxZoQcu8eeHw8/cRm6/cT1ucKs8RLc1tQgzb5CsQziIPraCpsRRd8EKsW50Iz7YiHNxtmGP65GgNhkLSsXF1FJSV8OIpisDSVYlwrjmO3e9/hPff/wQ5NS5IXpWOSGUlv23jitjMxPMWWPguyEJmSB/y9+7G++98hA8/Oo5a50SsTA8yelB8EBQqPuwDEexjCDGEDWBg2DhsrgixSF2I8J4i7KW2f2c39hQBETFGgipEOi0rCvqSw/jwPRHnPSFylY6IW5WKEPp7tnRewTcwUGiYDkHBk3lT2ED/yJQwEuPIZcuQ7FyPnI+obXZjd049nJOWYWmUBWPhl4SsNC905B3Ah6JN3//oNIbnJ4nOA8NcWOZFRcDb2xOl5yrkO330vh69nhARGYbEpPlii5f76vt9leVVIm65QRAjtfVEave7OvV6DI3Zw9nCC1L0EvMIHC3Gu6IQbpJ+eEQIiDNNNX1uWG57eml8BKP208WxdH4O0HMjnE9Hp1l+16rapo6iTS2/KsUwc2K6ryxzdnYWj+AYRkZG+CvLBPwl1QzDMFcY7W0dqKqskQtezMFfUs3CxzAMc0VC6xhI/GhFJ73uQILn4uoiF73MlSvBBmto/I5hGEZb0IIV8upCw4IREhoEL2/PzyR6VwosfAzDMIymYOFjGIZhNAULH8MwDKMpWPgYhmEYTcHCxzAMw2gKFj6GYRhGU7DwMQzDMJqChY9hGIbRFCx8DMMwjKZg4WMYhmE0BQsfwzAMoylY+BiGYRhNwcLHMAzDaArbEz47O/ljiwzDMMylRdpeYYNtHZsTPp2DDiMjeuWIYRiGuVSQ7SUbbOvYnPC5uDhjcGBQOWIYhmEuFWR7yQbbOjYnfG7ubtDr9ejv61dCGIZhmIsN2VyyvWSDbR2bXNxCvyhMP6ff3dWD4eERnvNjGIa5CJBtJRtLtpZsLtneKwG7uro6m1UN6oHQzdCP6ukOKaEMwzDMBcHOTs7p0fDmleDpqdi08DEMwzDMbLHJoU6GYRiGmSssfAzDMIymYOFjGIZhNAULH8MwDKMpWPgYhmEYTcHCxzAMw2gKFj6GYRhGU7DwMQzDMJqChY9hGIbRFCx8DMMwjKZg4WMYhmE0BQsfwzAMoylY+BiGYRhNwcLHMAzDaAoWPoZhGEZTsPAxDMMwmoKFj2EYhtEULHwMwzCMpmDhYxiGYTQFCx/DMAyjKVj4GIZhGE3BwscwDMNoChY+hmEYRlPY1dXVjSv7NkdzFdDVBAz2AmNjSiDDMAxzQbAXrpGLB+AdDARFKYFXADYpfMP9QFU+0N+tBDAMwzAXFTcvICoVcHJTAmwYmxzqZNFjGIa5tJDNJdt7JWBzwkfDmyx6DMMwlx6yvWSDbR2bEz6a02MYhmE+H64EG2xzwkcLWRiGYZjPhyvBBtuc8PHqTYZhmM+PK8EG2+TiFoZhGIaZKyx8DMMwjKZg4WMYhmE0BQsfwzAMoylY+BiGYRhNwcLHMAzDaAqb+67O07uVHcbmGNb3oqo1B2195eKIHjs7hHinINJvGeztHWUcaxgdG8b4+CgcHFxEDnZK6CRjY3oUNXyA7sEGxAdtQIDnfOWMgfrOU6htP4HU8C/CzTlQCb240DWr244oR6LmdvZw1nkhVNQ/yGuBPNYC/UMtyK97BxF+mQjzSVdCGVsjbaOyY6Owx8dcEkj0CuvfR0d/lTR684OvkaLX1H0WxU0fSbGyloqWg8irfRN6/YASMj217ccwNNKjHH3++LlHI8gzGYEeiXCwc0BF6yEhiDnKWYZhLgUsfMwloVf09AdGOhEXdBUifDPh7xGL6IBViPZfge7+evQNtyoxDYyODWJE3y+9O2MonLy98fFxjIwOzCiYOgdXjIj0dR0nRXzLb91SXnRNvch3XHqkBmQ4hRnlQeUyjWcuzBh7O52oewZig9bKLTXiFvi7x6KlpwQDw51KLOELi+vQ9czVX4XCzZVVxdx5+qRj4zzVaxm3o9kwJa25MhnHHx/Xo3ewSeyPKGcny2KcH8N8nvBQJ3NJaO+rQEnjR2aHHo0ZGe1HaVM2ugbqlBAIkYxDXOBasWc/MYSpEum//LwhMzKwFI/wdpuHGuH1JYZsgq+74QfFTIc6yXDXybBj8jzhovNCQsg14nwA2nrO4VxzNpLDroe3a4Q07sWiLl39dVgQfiM8XUKEcR/C2fr34OjgIq9lJ0TOmOmGV03DO/urca5pt8hvUjjCfNIwz2+ZHA4dEyJS1rIfbb1lylnAzclXXPM6ODt6znhe5+CklNFVHF8ry9g1UCs9cX/3GMSHbISdaGO1vkmhX4CPaL/BkW5Rpo/QN9Sm5Dh5T+ztnSaGL32FN9s9UC/vYWLoZvi4zkOl8GjJqzdgJ+qyEI1dZ3mo08bhoU6GsQIPYdRdHX1Q2rxXClvvULMUHGPGMYbqtmPSO0wKvQ7LY78hPzv7a4R4HYedvYMwqNdKL8nRwR2LIr6CEK9UJbV5Ajzi4S7Eq6b9iPRYzEHDr7Uif/LGlsV8HYsj74Kjzl2UNVum8RDC5ujgJo06MTI6iP7hDlne3sFmGTY00is82i54uYafJ3ozQUPAIoHYsxf7fXIO1M0pABlRd8v6R/gtFeJ4Woi94dotPWVS1OYHX42suG/KNiChb+kptnjewd5ZChkJ2LAyTNw72CI/KUw/OiT3O0U9nXUeohx+Mm158z5Z59TwL8n2iQlYK65RLu+JMR19lUKgl8iy+4h2aO4ukqJH7bo05j6kz7tNCG09xkTHgWE+T1j4mEuCkzCk5DEFeiagtbcU+bU7cKT8zzjX+LHB+AsGh7uF8axApDD2Pm6R0sOhz0DhIZJR1Qvj62DvIsIdxGYnPRd7+5lFhuLQ4pn+4U7haZz/Y2LkvTV3F4rrhCPcd7HMjzwn2qc0JMJOOlchnv7oGWiUQkBDtvbCe/F1jxTC0SgFcGC4HeNjo9L7mx4anjUM4dK8Y23HCen9eLuGwtXJW1zHHWmRt0kvktqL6u/rFgF7Ud/+oXaZw+j4kAynehFuolzpUXcJgVwijy2d93INE2UYEHUT5RV17xHeM3UkxsS/QSHc5Ln2D7fKjoqjqHfPUKP0sOf5LhUdgGDZPkHeidLjIy+exFolyCtRbMmy7OPj5OWXy3YLFV4eia6Lk4/0XBnm84aFj7lkkEGMC1onPJl/FZ7IbQjxTkV7f6UcaiPxG9J3Qy8Mb7XwJHKrXp7YmoW3Miznl+b2tfBebmEIFga5vjNPeDYGD01FPzYiBLdTeiInq1+duCZ5pSRUJBDkwfkKAab9IVEG8vzIiAd4JIj8WqWQdQ7UCpHxk8OK0zE2PorChg9wouolca1/SC+TFrvEBl4lr0FQXjQnmV+3AycqX8IZ0UGgdCSuhL97nPDGPOWQ5fHKv4ty7pVzauo8nqXzbk7+wvP2lkOc5PWR5+rvGQ8XkaZHiPjQSLecb/Rzj5HDniS4JLxuzpP1onASNBJx/Wi/Emq4vyqj4yMyL1dHP9lZUSGvn7xnhvk8YeFjLjnkkZAhpcUtCcHXSg+qb3hy/ijYKwlR/isntrjA9XLoztnRS4kxO8hQ03ySk/CCyMsir80UD+fgKdeMCVwjV576ukXL857C2yGviOazaHiTPCcP5yBxxk4OE5IokrdHns10kIAkh34BmVH3yG157NeREHLthBD0D3XgdM3r0gOl68aLTgLNs9GiGBXyRtPmCa8w7AY5jEtzofn/v727j62rruM4/t36sK2sXQcbBeaY42lqEdhwysMSEEFxgcTIH0tGDMiDC6hBQxQ1EjH+oWIMaFCDEBANJBCGM5sTeVBGimCBjbE1NGxurLNgt46t69qNsm5+vr/7O+ul9GHtuvXe/d6v5OTee8655/zO7Tif+/2d37k0L7Hmd189qOVeCU4cf7z2tU3VbIs+mTHhOConnGAdOq6OA0E3Mrd59B5AEEJcEzCaCD4cEf/ZssJe2fiQqqu2OCdnnyqDjN/XVhqDw0d9ZlOVQscHlQwUKoPxQPDrZds7Ntv2zqY417S/slC97dvfZdWqDLN9Tq6YHrsgq8N6HrpeKW3Z9WbopvSQ8y7Q8eWTrHXXunCNz7tlB+bds+OtrLQiTL2vBb7XvTOMgPSQ965WH5hTovblXwv15V6RVaptH51ygc0+eUFoi1ehHuiDLXfV+iw9qH00qV//9C5ND3Kv/lo71isYp9r4slz15iHpI2iza5nO2+NVpFeW5Zr6kn2u/kXBu1Yz3o3qVT0wmgg+HBFTJp4aTnhvtvzdWtvXhS60/+1YYxu2Ph+6v44pP04nyiqFzqn2Ttsaa2lbG7o/fWDLmuY/27otT+uEmztxl5aMC9f7/Prb+3nXmAbj2/bRix16X8bDp6aqNlRbG7a+EILZg2PdlmfttabHwnyXDQzxAPEw8jb7ez0wfDBJydjSMBjkUHil5V2aOzo2hWP30Hhra12Yl/Hu0TXNi8PIS+8WbdvzdggxH4wzZuzYQZc7H6zjPxjg1WDVhOmhIp5QNlnhv9faOv+reT0DdCYqGKuP+Yg1vftyOE5vV7Oq5nc73grX9EoV5H3x9/v1Pq/mN2xdET7TMEhpW8/IWWC0lNx66613xOdFocV/9ANFZ7xXTKoAfDSgV0g+2m/H7s2h4jij5rJQUfmvsEzSSderFu+S9AD0dX2Uo18bzE6yfpJu290UBqt07W23Yyf69SgfGZnjFYm/z/mtE9616nxAjF9z8hO4h4mfuD0QvF0+vdO2WtPraltDGOF4Ws1nQxdgj/2hSvIAzL8lw4Pcq7OpVdpXXjvy+fWznbvfObDPvvhISu8G9FGcuWNfb1MrZ4WA94D1ys2rX7+9wK8Delu3aR2//jhz6oUK3/JBl7uSsSUhwH1gyvRjZ4f2+KAVr+L27N0ZRmZm1+v8s/O/iQdX8/aVoV07dSzTqs+xk1SV+mfqty/4ddisjRmv+Mr0hcH/1v638uCbMeW8cDxeSeavi+JywinxSZHiPj4ccR5s3u3mJ+L+RmV6eHmFWDKmrN91/CbpMVrWX9gMh98g7/IHZBxpocty//uh2zcL7d68+t3b3RXuzevdZeoGWz4cB9Ouvvjf0keLetU8lPehcHEfHzBEHnh+jau/QHN+ghzsdgXvrhvJ0HMeeKMZes6P2Y99oJDwMOvrOmFmsOXDcTDt6ouv77+iQ+ihUPAvEQCQFIIPAJAUgg8AkBSCDwCQFIIPAJAUgg8AkJSiC7744xMAgFFwNJyDi+4Qxvf8ADwA4Ag7Gs7BRRd8k2riEwDAEXc0nIOLLviOn2FWMbz/Ow0A4BD4udfPwcWuKHtrZ5xJ+AHAkeTnXD/3Hg2K7keq823ZZNbWYrZnl/+AbpwJABgRPpDFr+l59+bRUOllijr4AAAYqqLs6gQAYLgIPgBAUgg+AEBSCD4AQFIIPgBAUgg+AEBSCD4AQFIIPgBAUgg+AEBSCD4AQFIIPgBAUgg+AEBSCD4AQFIIPgBAUgg+AEBSCD4AQFIIPgBAUgg+AEBSCD4AQFIIPgBAUgg+AEBSCD4AQFIIPgBAUgg+AEBSCD4Ujfc64xMUjr1m7fxdUGTGNDc374/PgYL1Rp3Zi4vNvniT2YlnxJnD8ZrZvffG567ErLzSbOplZpdcYlYRZ4+Eup+YNZ1rtnB+nDGYboVIh9m4Y9QmtWvYWsweucPsZE3zauK8w6T+brNV680uusfsY3EeUOio+FDwPPSef1i58L4KDFUYI+H068zO8+kaszkKve1PmC15Oi4cLa1mS29TmOixWMxZqM/wW4QeigvBh4K29rlc6I1VBfT5r5lN/0RccIhq5pqdnU2q9C7S1P5SKJZ6eAW2M07vxXm9eVdfXKdL6w+m09fdFV/k8+20h11alx4/tI72n+1nhLI/6NJ+wnYH6K4MbdbU6TuOn0nWhtJJZqecEF+IrxvW8+Px9/V1rMAoo6sTBWv1M2YvLe4JvRlnxQWHInZ1zvudWW2c5ZpU8f2t0eyqH5hN0etOPV/8Wz3qefm4XEBUftlsoarDzIF19sUZ+ho582a1NZY/vbs6W5arqvyn2exvm336pNy8A3p3wWr5l25XQOtpi96zXJ9Dl39NVdVrVdrGLX1sI3MwXZ0KsPrfmK16Q8/LNGm75R83m/917TPrZtXBP3Wn2UZtr0SfQbeOs/ZaHdN9+rIQP79wTK/2tHXZTco8HW+nqudOtbfbvzDM0PLv5G0XGGVUfChIWeiN0b/QEQu9PF2xivGpWaFT9w+zaTphe+h5tfLcgzrZX6zQusvsq78w+8qNOpErHOu1fqAwWHKP1lEQXq/HRZqu0PONeqzfEdfJEwLiSYVFX6HnztE2FFSVelqrx0UxSLpeN1v6mNnU6zTv17n9zJulwFK7GvurQg9C45+0jc3a1s/jdvU4Va+Xan5XXGf1Qzoe/9KhZTfcrXV+ZNb6qD6zuLw/LWvMzv9Z7j3X64tE5SazF1+JC4ECQPCh4KxUSGShd+kNIx96rv42VUVxWqZKq/tTZuedGReWqvLRyX6hKrzKWKVUnJ0Lxda3cq+bXlAAKJk+d2VYPZim5wt+rGCrjjOiFlU/S3RMtd9T0PRXpfWj4Xm1ba5CdU6cofbUXqN97TZbuzLOGyoF5tp/axtXa1uqHgM9XqHX3Zrf4IGqaZ1C149pZrbOcWYXfyE+H0DN5XpPHCVUOl2Vp465c1vuNVAICD4kybs6F8Xp+p/qBP+22eI7FVLZdTqd+BsVVst+afbg983uvyUUebYvdmu2e1U3LVeV5atWOOTrVJAsVaVYoWpwqKHnOrYrfPOuoQUKv2rtuEvLhkVt96qu+sTcywP02ivODj+2ftapPjY+GUApZxUUOP6JouDMma/q6yqz/QqZZ+4326TK43AqVYV2yc06qW82W71eMxR6y39otqJe8z6jwNKyBQpA5dyQde8xO1eVY+eTCtHX4kwAo4rgQ0E6+1KzCxfkwu+p3x/+8PuAN8w271Lg3a5pntnp01UJ7VYlFBe7KV6FbTBrzr3MUbXY+LKKpWzIo1ReZDbbq725Wvdhs4Yh3uw9WWnbvqnnulugYG5V+Vk1jAoymKL3qmrMum0zXXrdrvmTvU83rtPckFuW2fhmfAIUMYIPBevMi3Pht0+BMtLhlz+4pXWjKry7FVgTzWaepoXH5W5k39QYVg1Bs+rR0Pt3QM0FqgY1Y8UTMeg0rfuLXvuAkA+kVI5fl6udbFan/RzoTu1NlWe5HlqbtLkYnrUXmpXouJfXqc3+Pm/LA9rGBLNZn8yt059wW0TecfoUbjVQoM3Sdlse17a8/9bX1eNyvS7R/Fot93XmqvLeoeN7XMfVqDas0mOdgh0odtzOgIKX3cDutzVcfvMh3svX+7YBp+1WzDSbc61O+vEa3Uad5J96Mvfcl9dcrcc/mpUuMrvinNzszvUKi/vMtilQgiqzs75hdr4qRPehX25RtbdEVWRrreZd1/evxISBMAob3+e8X+VCaMdKs6V/0Nv9VgZXo2Xf7GnrhyjE/HaGvkZfTsvarxBteERt/FduvqtQmF+5UPmrfWZaFXTP/lX7VuCO0+c+X21/VMec3Q7S1+0MlvcZuSH/gg1wmBF8KAoj9pNlQ6HqyG/sLlFCVWRDN/vg9/gpF6xSFeOIUCh16b/K8l779JvDuzWvciR/V22wY/QqMy8I+7sPEigmBB+Khv9I9biRPOljQA0PmNUr0a+80WyKh6JCcsWdZo16vuC7oWcWKEoEH4C+bTNbdpdZc/49eIN1swJFgOADMKDQlev3L450NyswShjVCWBA5RMVeFWEHo4eBB8AICkEHwAgKQQfACApBB8AICkEHwAgKQQfACApBB8AICkEHwAgKQQfACApBB8AICkEHwAgKQQfACApBB8AICkEHwAgKQQfACApBB8AICkEHwAgKQQfACApBB8AICkEHwAgKQQfACApBB8AICkEHwAgKQQfACApBB8AICkEHwAgKQQfACApBB8AICkEHwAgKQQfACAhZv8HvEMmx+hg7KAAAAAASUVORK5CYII=;" parent="WIyWlLk6GJQsqaUBKTNV-1" vertex="1">
                    <mxGeometry x="-12.940000000000014" y="860" width="134.34" height="200" as="geometry"/>
                </mxCell>
                <mxCell id="KgBlzZdilrDWfoYo20FU-25" value="" style="shape=image;verticalLabelPosition=bottom;labelBackgroundColor=default;verticalAlign=top;aspect=fixed;imageAspect=0;image=data:image/png,iVBORw0KGgoAAAANSUhEUgAAAZUAAAEICAYAAACXo2mmAAAAAXNSR0IArs4c6QAAAARnQU1BAACxjwv8YQUAAAAJcEhZcwAADsMAAA7DAcdvqGQAAFViSURBVHhe7Z0PYE7V/8ff7Nkfm9kWNmuMsYyGsYnJhKUo0Rc/IimRP6WoKCVfrdIforJSTP6UFuYbRQoxQpnKZDYzNmzMbP5sM5v9ecbvc+49z/bs2fNsz+YZw+dV1+49595zzzn3Pp/3+Zxz7r11UlNTr4FhGIZhLEBd+ZdhGIZhrhsWFYZhGMZisKgwDMMwFoNFhWEYhrEYLCoMwzCMxWBRYRiGYSwGiwrD3ASuXbuGgoICFBcXyxCGuT3g51QY5gai1Wpx8eJF5OTkKMIisLGxwV133YX69esr2wxzK8OeCsPcIISgnDp1CpcuXVIERYhJnTp1UFhYiLNnzyIzM1PuyTC3LmZ6Ktk4+UcS0uVWhTi4w7+jO6zlJqNSdDoe0clX5FZ5bNxaoZ2XE6ytZABzUyi9TvXQNKAtPOzUcEtw5swZ5OXlKWLSpEkT5e/Vq1eRnZ2NCxcuKPs0a9YMtra2yjrD3IqYKSoxCP3PAuyRWxXiNQxffNoXrnLzdqMoJxu5WlqxcYCzg0YNNIOM9SF48ZtTcssE1o3QdczLmPwIi/LNovQ6NcOoRSEY0EQNv16KioqQnJyseCYtWrSAlVXZ1kNGRobiwTg5OaFx48YylGFuPare/WVtDzfXRqYXl9vZHJ7D5lmvYvyztHx9WIZVHfuGZevMXldlReexb/FMzFyfJgOY2wXRxSUQXoihoAjq1aun/BWD9wxzK1N1T6X3FERM6aCE3nmcw8ZX3sDKE7RaxXqorAWcF78FoXMjEK10q1u2lcyYT015KmJgPj09HXZ2dmjatKkMLeXy5cvKuIroEvP09JShDHPrcQMH6rXIy8xGlrLkoaiimZT5eaX7yaCiXHms0vdkQHFp2nn5MowQXVUmj9GjZD9xvO6EBqj7XELuVRlQqMuj6WOqgn3bvnjj1WDYK1unsGfvOWWtPFWoR31K6pSWSuqjhEqP0ctLdeJNXLcymJ1vI2mVpG+8nkqve+l9xjDM9VHznkpxHo5uWI7Pv49Guv4v18oeXg8/i6lj/OFq0GNW2loMxJs/PIbMjz7Gor+z1Uj98xdnY9/Xn+KrraeQV2I0NPB4ZALefq4Zdk+ryKvQIuOPNZj/ZSRO5MogBQ3cAgfjpUl90dpRBul7KEYIemspJt8nN0xgVgu4OBqhQxYar+eic9i3bKFBWQVU3t5P4PnngtHaQQbpUZS8G199HoE9iXkyRNKwA0ZNG4cBbVUZ08f8Y/TqxbU/5oYNRgs1QuXsFkyfGAGl2gLHIfyNwLJjRX8vwbD3o5TVrlMXY2qP0jGqorPRWDlvOTYb5MGmiT+emPKskXyX3qNez3yEt7134K13tyBVuefK1nnekS346rN12HdWT6SobBPfmYJ2f1vOU7mWexxXz2/HtcKLyvMoogusbt06sLUtP/qvixddY8JbQR1r1GngC6vGfWidZ28wtw4166kUpyHy/ZmY+Y2BoAhIbE78uhAvvhKO2DJGvSwJqz4rFRR9KO2N01/F/F8NjawWqZTu68uOVND6zEPsEjIeHxsKikCL9KgIzJy8AJGnZdCNwsrEwH9uDBZNfKO0rCTIzq6N4KyICJV3RzjlNwJHDVvjp7dg5qsrSsRBHctxgr2wURdisPLNmQj920A4qnRMY3R9oJm6mhGDQ2fVVR1ZMYdUQRH8fQixBvk7+m+MXPNH1/tKy553KByvT1pYTlAEhUJsKA8fba1g3OkSiWKITlDKkkdC9vIbEWUFRUBlW/TfJdh3SW5fJ9fyklF89ANcu7gXuJwAqyuJqFecAtuiZGXbcNHF2xRSjYmwnFhcS10Dbco3MkWGuTWoUVHJ2LAYi6JVQXDuMRpfrF2KiB9p+eFzzB7WCtQeIyMWiXlfx5gQgCis+18WeR6T8OnyzxG++nOEPXevEiPSXpmorMLZfxhmr9SlvRhzJ1ALf9MKrDbhWRT9HY55m1SjZNO2f+mxPy7GF5MD4SwMaCYZmflbkKHs1RgDPhXxH2GUlxKgehLKMZV7KWZzNg2pctXevtTtOPr9CkQqM06d4P/MDKyIoHoIm4Ow8MX49Clp1C9swert+uKbjcjF5CUIQ+7ij4mLFmPF0jn4POwTrPh2BgZ7q/vsWboZJ8WqQtWPcW3fAW7K2ikcPVbWUJ+Ij5drRHEMDhyV6wopiNaJE6XRTtd4z4/B1x9FIlXkwboVBn/4eUk9hy8ajaCGYqdsRH+5GBsNREzHifWbsM+ZvKr3PsKK1VSG5a+jn5hQRWl/+2UUssROVu4Ifu0jhJekPQnBDlFYuV54KdfP1az94l914zq4lik8OTM6EximllB1UYnfikVfrjCx7C41UPnUovxO/kC9yOhP7VHazUUt7dZPzsCs/k7KZh61tH8wIQBu//cWPp3gDw8Xe1jbUQtdmcabhJ//J9N2Cca0t/S6qqi13+KRKZjxf41kgCEp+GFpFPkqhEMgpr49WK+bSwPX4HEkSm3VzRMRWPlHRf34liQPB9ZsKWnZ+3dsJdeA1qNn49P3xmHUC5MwdVAr1WtQ0MDj/8ZgsJy/HRtPreASkhF7SK527IHgJnpekEMrDH95Gia/Nxth8wfqdVlV4xjvzuguz78vWn9GXBIO/CX+tkVQb3Et8nAoTs+7yIjHAVWx4eXfBs7qKk6uC8cexXu0R9Drr2O4XjeXdZMemDx3NNop5T+FlSujjTdGrPwxOXQKBrRvDHs7DezFvUPHZO3aikj5fGG7Ca9hYvfGJd1x1k1IRN/RpW0Bik0NElWNOtfo/rtm6IIyTO2l6qJyNh6RW3ebWI6g5JngwzHYJ38LXQc/aPS5ldZ9gmQr9zwOHDI2MO2O3r2MzIQ5fQSHZLeV18CH0dqIIWjRJxg6p6IMwpjJFq7bI33RycjDbc4PBKOrTHPfwepPHTbOFZzYH419f+gtv67D/Cmv4MMd0tPwHobh+t6PtT082gdiwMOtyj+/UlQE47LXGE2by9W/6NoYdvc0JWPf3t3gWZvqHOMJ//uk4f/rEEqckcSDOCCukWtL9LtfcXGQejBR9RKIooREKaDNENRN91zGORyKPq+uuvbGQL0usRIadkPfQLkeFYNYuVqG+7shyMj4UsIhnefkj+AH1AZNGRr2wIAH5HoNk5tvhZ0xTjiRZsGnKxmmFlB1UanwORWnEqOXkazzWZqh9T1GjIPAyxv3yNUTJ4z1kWtgbezQtDMl3UQeTU08KNbEHR5ytQzJKSXewD0+JqZu2lGedVHH0mQXmKU4jz1LFmL+x3rL4k3YlywNeNNgzHrH+MOjRblpiP0jEqvJKwwNmYmXxr+Ep4Z+gA1GM+iO4P7S48qNxqKJE/DUqJl4d/46bP4jHqlGZ1JV5xhqHAQGqrPWcmMQLbskM6hRobyBoaM3Wnu3QTuxfohEQDbgY6Oj1RXXDmhfMhiehhPyePh6lx30L0FDt43s8is+idPGusA0xm6ac8jQjZHRfdfahC338JRp1yAFRXXw8epmWLuzCeatbY79R0tcZYa55am6qASNw+dhop/d2DJMNR5m4w4vo+7EzYZa7MYtmkUwfPhRLB4de2DUrNkIXzAS7Qxb2blJ2Pj+qxg5kgz8x+FYR17hnn/TkJ6Rh0IH3YB9eZwfnoawN8hjk/GFOSRKuzdh2cfz8MrICRg9LQIHctQ4HdU5Bve2h7/i2Z3H0ePC29Li6GG1e7Jr+3sBlzbopFznaMQqjl8KEuLEX/IWH+hsQjxM49rUaHPhluFwsgPOXSp9FcvvMbrOP4a59anRgfrKoZapibEUs6mR7uZzOF06em1hmmHI++UF+dOQ0Rjg727k3V/ZiPzoA6xUZsBp4NaxL8a8Ng2fLv8EK1YvRUT4NAyo4J04zoEjMSd8MVaEvY03J/RHUEf3kif48xK34MPX1uGkQR1W+Rire+Evu+tio+NRhMOI/VtstUWndsJraIz2AeoYV9zhFKULVR1PsUengKo/6JdxWuen3pq4uYin5ksH393v4qfomduHGhMV1+a69mf5WUEl6M128vJyl2tm0NyzZLwk+qDeDCN9EhNxTK6WQe/YYwlk4IxRTGKni7rH/ea+xywjClvk4LmYtPB5yDD0694WHi5OsDe7O14De1dPdHpkMCaHzCYx+hxTe8sxhbM7EFlmVpaOqhyjQdfu/urqoSScoLqPE6Lj1R7tXNTgFgEdlC6y9IRkZByT4ykOgejSWqzoIM9VHX4h9UnUm5VWltQUOUnDqgWamv0cSWPycOTqiUQcNTqOTh5WgmVmf1XE3Q2L8EAH3ejjNQzpYepBV4a59ag5T+XeDqWD3eu2Gx2XOLpRN9upETq1r8JL9FwD0Vt2/edtXYONhs+TiGdYFm0y/lZlV2o9S0OU/usWHDBiXLK2b8Ue3SQDP3UKczm0JoTS0ujNSjU6BnThEPYZ8/YupGDP+giEhszDRsN4K3t07SorEHm4fFmuVucYiXW7DmrXZ2489mw/rtS9W0DbUkFuLbvIDh3Bz4ePqGFdSHTKeGbk0fjLWXsZO7DhbyN1fGE3Nu6S64HynGbi016X/2hs/NWIIT+7HRvVZzFrHBu9YR8ba54yzNw+1Jyo2Plj+Ag56HkiAjPn70aGbv6neMr++w/w7iZ1tpN9jycwsEpjK054cGgPdRpq8SmsnPIq3l0Wqc6k2rEFoa+GYOUFp5JpqmXxxMDRuoHlKMx/Zx2OlowRaJERuQSvL5bej9dgDA/UH/S1gYPuO0rR+7FPOU4rJmDVHM7UwpaGd8+aTWUf6MuJwbK3w0tnXOlTNxmR32zBnn/jsXKhfhmJnCSs/p/OerZFO513UJ1jdLh0QBfFZqdh81ZRf43QPVBPBK06oIcysyqK4tXnU7p2Li/YLR5/Qs7cysOeuXOxOr70Aciis7sR+voK+RBlM7q//Kv0NmfnBwehn/ScTnzzIeZHppW8vqXoNKX9lnz6n2GYalOzr2lRnqj/uOQBSKOI2U5zyg5Om/tSv9StC/DOlzEl01RLsKLjFgzEiRdNvPKEDFbsEiFqFTyVTUZy4ntTEGzw7r+srfMw/suyXW6GrxgxxvW8qPDoklcxUwqw8jR9Q3vYkjCnXyCD60IGvkE8YsUjKgblTKVzvqKcUyC6s5zhqDtO4vXMbMwZVNr1WJ1jdJSWkXAIxuzwkdDv3SravRAj58tZX/DH5NWTEGSkC088Uf9WiHwA0ihO8H/hNbzxsH4ezLtH8/5egZc/2o0sY2m7BOLNUcCHoUI8r+81LcWnvse189vkVnk2/3UXeUWN4WCrxdwJSTLUOJqOYfRLrfj+YpjaQs0O1Iunlt+ajdnP+MPNsElJxtHrkUn44lMjs53MxOPhKVi4aApGDfRHa2UWlTvaPTwMby6ciQFNK/oR2qPduBB88VrpLKdSxLu/hmF2aHlBETg//AJmD2ur9wCi6NHRf+jQ8rQeMxtvDmymnpMMfFbGecXI2zTvizdDR6KTiavoMWimXhm1yJPHCWyatMXgWZ+XE4fqHKOj9Ol6okv7MoIiKOkiE+g/RW+AffuRmLtwEvp5lz74qEO8+2vUh7MNBMV87O8bjc/eH4au+g92CsS7v94bh043aHZvjw7Z6B94DqP7VdCwYZhbEDM9FUsg3hibC/WrEtZwaKA+5VxzmO9dlXx4i7Cp71T6fZMKkeXROMDZ8Qa1IotIUC7L/q8qfiRMv4zmHludYyyOeEvxleqVuTLEm69zxQ1ZA9ew+PRqXDu3VW5dH5pOS+jfGv2xMIzFqFlPpQzidRlOcFYWSwiKFlmHIrF6h4mW3onS2V+VzSyzdtTly1xBEcjy3ChBEVjbl+SzqsZVv4zmHludYyyOeDVPDeXB2kGmWwPXsI6NheYM2grfjwWFuXW4gaJiSfKw7+NXMP6/4Vi34GN8tD6pzJuKi05HY9F83eyvZgjqwp9nZW4sdV0fABp0lFvVxMoRVs2elRsMc2twA7u/LIx4Hbx4Pb3y9l4VG0d7ICdPdrEJNGg9JgSzB1av/51hrpuCDOV7KlWmrjXqOIgXsd0kD5FhqsmtKyoC8eGqld9g9XbxXioZpqCBvc8DeHriIAR7lR/sZRiGYWqGW1tU9NEN6N7IgXOGYRimDLePqDAMwzA3nVt0oJ5hGIapjbCoMAzDMBaDRYVhGIaxGCwqDMMwjMVgUWEYhmEsBosKwzAMYzFYVBiGYRiLwaLCMAzDWAwWFYZhGMZisKgwDMMwFoNFhWEYhrEYLCoMwzCMxWBRud0o1iK/5BvADHOdaAuQk3+b3U/8G6lRrKZOnRoi102SsOYDfLZyNyK3GS4X4fFQGzSS+1WGNv8ycrV1YathLaspUn75Ap+uPAybzv7wrJeNPaGfYGN+B3RpYSf3uFEkYu30RTjctAd8b9SHNy9EYeE73yJZd874nzBzXkLJPZr5+1K8v6EQnbo2RT3lgNpD7cxbAfavmI+v11+Gx4Otzf6dV4Y29zIKYQPNDfpKsuH5yv5G1LCbghDs3GJY2Wpuq9a9+WXxCsSIkYMNlkDcLaPNIemnUMz56aTcYmoCz95PYNSYx9HZRQbcSTg64i64wd1Cn4dnbOH3+EiMGN8TPjLk+slG1NJQLN2bLbdrmvLnqzW/kWObMWf2ZiTJzdsF80XFxRO+HdoYLG5wlNGiNZAvvuMrXMucy8jJKYC+g6nEiwChzhRf1qPWHSPT0EfZX01Lm52OhJOX1XB9dPvofadeQealzLnk+Y3ur3euEpQ09PYtpH0U15nC05ORkF6ghptAlFs5X7kuBL28FV5GWkIyMkrKTnGZVNak8wb1JCmpYyP1ZeuMu+92rNpHaCtKr6S8pWUxmidCeKLGy2qILHuZc+nVh46qXj8b2+v/+K5+XZgqpznXVJdPU90sJecxUg4DlHo1lo64Nob3qxIm05VBJehdyxKM3fN6aBybwLNxqZdb2e+8BKPXSdYPbRdf0YvTy0OZ33gV8mv8mpg4n6nfiJl1V+HvwIz7R0Gkp94o6v4GO5u+x2o/Zn2kS3R/rcQwzH7CW4YYIrpZFuKgdzDuPhiJgwW20F4hY+vsh1Gv9IePnRq/OVXuTviNnoGhbWklPxmbv1qDPees4GhXTBeOWhJ9RuLphzyg3MqiC2OFFgHdUrF/L91sHsGYOjkQZRoZhUewKmQdrvxnMsZ0qS8DiaQtmB12Fn1mPINAJzpVUiTClkch46qGbigttHUbIejZZ9Cvla26v3IuYNScx0tbZqJLZW4c/F4fi6CGajfF/IONEGiTgKgTdMH9TdRL8Xns/+57rD+cDztnK+RnFcCx4+N4YZgvHBU3XHQPRQC970da1H5cAd1khfURNPZJ1P9tGbZlOEBTmI18eKDf5GcQJFvfJWWgVqSLTTEyRX0NGIPxQbJzokwZ5HXxm4RJPakCjFBZemp5vdDPIxabDxTB7moB5ak+AkZNwKC2st4o78d//gbf7j4PbT0y7FeKcfeAILhs3AnornMZLmP/klD86vYMZg70UINO78T8z/+k+hiLqf3c1DB57Ye+NwR+Nnp51dSHnZZ+tFQ3vcYPRx9PXT5Enf4Od3mtDK+nWhbf8vePRD99l7r5yMy3K1tOc69pv2Bkbo+kdDTIv6KFxisYL4wLhKuuuyfjIFYu3YSELA3s6pFRsfVDP7+z2JxoPG/amB8QEp6PQTNHIkDXiiOO/zgfy872wvSJAUrjLuOvCCz/MRE5den+LqL729kbg8YOQ4C8d4yW39g9r0fZYyr7navH6PJxxc4J9a5mI0eru4fV+jmo7ka4oZ+4VhnqdTb8jcOc/JZck8vQWNOvmsrteG9/PPuUH9V3RecrW2bz6q7i30Gl948eSnq/pMstQmdHKiyP3LeWY37DTrY8ymBtR0JQmkRadCqCXpqBQcJ+5R7B2o/X4efdneHzkBuCJs9A43LiRDfpknAcdH0c0yerP0xt+p9YvOAbrHd7HSM66NJOwBk7MkAfkNAYq1ibNujaxRbLohOQ00X9gYkWQBwZ6/wOg9FZ5IfEYenSKFg9NB4hvRspopKx4xuELv0O9adKI2QuqcnIGToBIROdTFSgFgk/0o1xqQPGv9MLnuLHJurj03UIi2yEqVQfOg6edsT0/06lslN+tlN+ln8Dz4fGUNpk1OkG2/NlGDbvSESQqDNtIrZFHIBVENWFEF2qi/y4nzDv2y3Y71fW4JiFuemlxuLUA2MwewgJdnEB4iK+wKqNexHYthfcKVob8zOW7bZC0PNT0a8F/YC02di/hq4hxfkpCRhSH63beWD9rmNII1ERaWQmJeGKY33kHz2BTBIVYURSjiUC3n3QkgRFvX6xaDxsMiZ3FA0Hef0W/Qz3kCHwFfugBQbMbAaNvVivKunY80MUiu5/BiGPeijXNeP3b+h6HUD3tiQIVbmmsfkYP3OGso9yP38Sie1xneX9nI5tKzYhuWl/TH3NDy4UlH9yJ5aGkYFp4qsmYIDGtzMC64Vjf+xlMryy0UQNqX1/FcB3uJ9yv2sTNmH5D2fR8umpGOpL10Bcp/8txqqwTaj/Ohl8pX4sQ0W/c5Gv7WScPQdPxYjOwpgWUKP0a6zdnYjAId4YOmcS3A0bOhnin/K/8Uz1TwXIa3KqOUbMehy+DhQkr8nyTY0wfWBF5yvF7Lqr8HdQ2f1TFpeeYzHb1VDcKijPjw6YSvVn3N7ULszv/or5CXNmh5ZdDMZHXLv3hJ+8bnBogw7UQs28mCMDjHD6APad9kafIbqWHv2A3O7HIyQQcQcTqIp1+KKXNHqmaNmxHexOxCJO13VamIiYODJq/m2UC5H2936kNQnGk4qgCDRw7f1/6NckHfv+1msxmEOTzniQlMrkBS5MQPRfZGQfl8ZHQPXR70EPZEbHI00GCfy6kwgq5aL83E1CUtQCXbtJr8OqkdLFiPTz6g9M443H3pyKSf1K68KujQ/dkMlIOaNuVwlz0xPlVQw5YWUL344kcBeycUkJIPGmawX/nqqgCDROCOjXRRELUzi29oH7xSQkXRBbl3H8aDp8+vWEb2oSjiu3TDqOxhegpV8rxWgq18+7Jwbp8iHq64E+iscYc1h3p1DL35E8pQruE9OQx5BH5beVZSBce5KRmyQNQlWuaXDpPho3X/iRM3ZRuICC0/E4eMENvR5VBUVg16IX+hhXXxWr5ujgb4sUqmfdr0l7JA5x9Lvw9xWJ0DX46yBy/B9VjaJAXKf/exR+eQcRXVI/lqHC33lBAa4U0zUoETFb+DwxCTMrNYiV/8bLoVyTy/AbIg2wgPIz6JXJmEKG3TyqUHeV/A4qvH/MwUR5hpJ9zKE8xhl2TddSzBeVDuRNzJxcdnm8hYxUsaprLdfMJCebjOVJ/LpgIebPKV3W/ksudWZOyQ9IUKmhaNERgQ3Jff5XVRXtYfrR2QQgoLWyiUvZFO7WyKBrwQmNyWZnZlcgfMawqosKS5qTg4vkhf0TXrZcYb+ReF3U3YSmIMNYUauy8DwSfo/E2q/DKM1QzP7vOsW9115Vo6uMOelVWN5c5JDiuTcxmOLVsFHFP6aGXvBpSMKRRN5vYTKOJjZHS58WaOaRjOOnKf7CCSRcdEPrVuqPWLl+x7dhoV59zp/3E/6lH9rFbGmwrwsPdH/MG5e3hyEkJAzLVu1EVNL50vGAqlzTin5Vyj3fCI0NPGPXJqWejjE8OwfA5cS/JEhiSxVyuy4d4aP8LkxcA6vGFGap+imlwt+5oy/69HZEXPh8hLz7DVb9HIW405cpx5VT5caAck3KT8zQONSHXgdKJVSh7ir8HVRy/5iDifLAlcKQJaJvCcwXFY0tHB3rl13Mv3IV4IbOjzyIfnrLY4MHY8Qj3iWTAMzDDQFd3ZC27wC1Gi/j4N8JcAnsiJbVarVaAif49Cxbrn7/GVjlGXNlIO9r/dwwrIrOgXvAAxg0egymhQw20cVkBpZOr0q4kRfmhOMJychPSkScRyu0dHRCq9ZOSDiWipykJKR5+MJX3/g27VS2Ph95GIOGD8YjbXXNuuvDpfMwTA+ZjEkjAuCJVPyxPAyzl+zX64apgWtqLnd3QlcP8qqjScRy4rA/1gmBnZvLyNqEBp79xmPmO+Px9AAfuGTGYf2XoZj/Y6JZwnIrU/n9c2dgvqjUBE5Oiufg3LzsrDKf1tSKvUfXTWU+Lh07wvMCeSgJSTiY6AQ/0XUkUVqCyafLdFOILpZTyeVbKWVaF1fykS9XzcbRGXdZ5aOeW9ly+bahcvmWzpirMklkTHJ8MXTy4wjq1AYt3ahFdiW3+jetRdJzgAsZ/rSU02WNxpnTSJGrpnBv4w27pNP4h66LS1sv5V5wb+eLeknJ2E+LC90HOs+ywV2iv8UJnvr12cGbRMgbLV0t0bih655fAK1Vfbj7BKDPiJGYOj4QjuQdxAnvwFLXVLnnT+OU8MZK0FJ1VdYFS/fzfR7IPBCPhPhYHG9IgttURkmPO+10WtlrUJiGU2fp3nfV9VURxVdRJFcF2gLLm3ptbgFg1wgtOwWi36ixmDbYGzl746o3dbai/DqTN2xFv+HUsmXISTmC4xnmlqsKdVcJFd4/5mCiPNrUVKRZkXfrLANqOeaLSskUQf3FyNS7CmhAPyikZyBDqwX9T62vzujlnYqfv92J4zlqStqMg1g7bz4WiG6FquLkh67tspGw5R8c9wpEV73mo0vHzmiZ9SfWbU6GcirtZRzf/DN2ZjVHYEd54zRtAR+rOGzemIicQspjdjK2bY+pUhkVbNqge6A1olb9gP3y5tbmUFqL5yNk9ZGqp6dDGqQTx+U05sLz2P/LH5Uab5NYJD0NfMW4UOx2rP0nWy1bbiq2bfircnFq0Q4dsR+bdwF+bWUDoOk98Mk+gP0pZETblTYK3LsEoWXKFnyru37FWmT88xMWvL0Y26oznmRI4RGsfXc+Fu9KVxsVxQVIiT2BTCtnuAjFsNQ1Ve75bOxcvxMpSs+KFplUjp/jlNgKcQzoDN8LSdgWlQzPHp3LjFn5dKVrELOVroHschHXcu1WxNkHoKvsAnbx8oLj2b34eU868ukHmJ9+EOt3pKqzLC3FmZ1Y8O5irI+RXV7abMTFnwIaOqGBsoMDHKmlkHkmTclDRd1DlebXyhtdA+sjbsNPpdeE7MfP367D+midJa/8fObUXaVUdv8YgzxzF5xHWrqwh5R/E+VZuyEBjoGdZVdn7cf8Jp4YqI+R6yX4mpyKaAz3Xn0RcCACoW/thPuj6myMgFHP4MqaH7Bs9p9yLw1cuw3G+OBSg2I+ZOD8fLA2PAEth/iUbT2S4Dw58QrFhWPODhnm7I1+Ex9HgK4x4uiH/ww7ibD/RWDOXtqu1xx9nnsQLQ9HqfFVwLP/GIy4+j3Wzp+rzIISON4bjPFD1IkD1eLubhjaJxnLvp4PJUfUKvIb1h1+/25RoquMpdJr0RfPDsnG8nULEbKWtimdgFF94XdikxpvEg/c0xaIivdG65JWtwjLprAAvTDC2PWzboTAp59BH0v0PZFoDBobiLDlSxGyWYbR9e818TE5s8xS11TUzUic+2oNwt5V73kx5XjoQ1lYdUjZNI2NDzp0+AmrYppj0LO6CQsSugYvPA0sXxWmXgNC0yQAI17qC0+dMfLsjhF90vDtL0sxeyPFk7czdEgXZIiZZ5bi7l4YNSQDy1eHIiRcDVLOM0GdKSh+o359g7EvdB1m/0uNCTHlXAk3ghn5LX9NyH70GIZJJbPxzDifOXVXGWbcP+Vo2g2PdYnByk/mYpucRm20PGQPX+hv7sSDm49Zz6lYGi15ARobg5+h8ISuFMG6XlUG2Ywgnk1ZehmDSqaZlkc8WHSF2juODqZPZDSP1UE8DJWXD9hSuSoagK8KlqorHZZKT1dWS+XLBOJhwCtF1qgnZnrJMMtBZcjJR1HdCu4PC11TpRzFFd+HhijPpuT2R8hIU0Im828w3b8s1DIu1OjN0KoBZB1VlA/zf2Nm5NeMe7jy85lTd5Vhxv1jiPCg6lD59AXM0r/xG8hNEZUaQVwYZGHPV2HY02wkZv6nNg5iMkz1ULpHLvyFxQv2ovnYqXislYxgmFrGbSMqJU+oGjzdyzC3PqVvpHDsMgxThnhbdhyEYSzI7eOpCHe7CLC71XxFhjGHwgLk17W95bpCmDuPmzul2JJYaVhQmNsXGxYU5tbg9hEVhmEY5qbDosIwDMNYDBYVhmEYxmKwqDAMwzAWg0WFYRiGsRgsKgzDMIzFqPWiUvJNbOaWQjyMOjM06o577TfD3OnUclHJRtTSUCzdq/ucI8MwDFObMUtUSrwFbQEykhKRof+BEfHiM91r8E28xlocr+yTr77O2RDj8eLFbHReSrP4iun0xUv5cnKNpFso8lX21fwV5cOYR6SkrbdvhfVQgsy3OEy/btTIcpTkyVgZCCUPVY6XeShTHr186RBvITAMq+h6KnFqWbTZ6Ug4eVkNF8i0TF0nhmHuDMx4TYv63qGDbgGwPrQfKUXy9dFtgfykSIQtj0KGpj7stGSc4IFe44ejj6f8TnN+MjZ/tQZ7zlmJTwfgysUC1NN/d1Hxeez/7nusP5wPO2cr5GcVwLHj43hhmPhmfSLWTo9QPm2r4oZ+r49FkMFnWLUxPyAkPB+DZo5EgN677pW3uZ7thekTA+BYcp7L0FhroC3SwvHe/nj2KT+4Km8GlWX0U1/HryNhzQdYiWGY/YQ3bZmuh7Ko+Ua/YGRuj8QZjS20VwqgaRKIp58PRkvdS5t0dXMWsLvLClqqG3gF44VxgWqe9OvmLjoo+zK0nubGX8b+JaH41e0ZzBwoX5l9eifmf/4n0HsspvaTrwWP/wkzV2gx9L0h8LPRu55XNaBagrZuIwQ9+wz6tZLXU+4f0C0V+/eSoMjXdbtkHMTKpZuQkKWBXT0SF1s/9PM7i82Jvmq8ejTDMHcAVlOnTg2R6yYoQMq+v/FvWgMEvzQWTw3sCV/xocQLUVi88AAaDZ2IKcN74IHgbmhX5wDWRKTArce9iuFL2xGOH1L9MH7GSPR/4H708rPG4V8PoKhNR3jW1yJh/TKsOd8B46eOxIDe9yP4/sZI++VHRBa1xv2tPOH7UAfYxP+N3B6T8MZz3eBpr+ZIn7qNHJD3524cbdAJAc3ku7ELj2BzeCxcHxmCALer6nmSmmPEG+MwrF939TxbNmDHBXcE3nsXuWtqGdObdEGXFqWv6rsQtxsx8EVwu7toy0Q9lOMiDm+Lw8F0G2W/Jx8NovO1hPbgJqw/2RgPdGhE56Oy//IdtuX4Y8zLatl79WiMc5t/QWz9TujkYQNt7K9Y9HsDDPrvOAzv3RUPdHfHuV2/IbVRF7RtTClUGG8Hx8Lj+H1/MdoGtVC+K5N5YDv+PFsHly87oFPXpqhHYSl7N2G/bWcM6NIEtsr13I26fcZj2nMPIfhBcT1jsPZ/MbDp6K/W/fkERP4bD9wzAi+P74+Hu4l00rFt4RrEefTHlClD0De4B+5vdga/rj+Cy/W9cL88F8MwdwZmj6m4du+JgIalLx9K+3s/0rx7YlBH3ceCNHB9oA8CbRIQc1jtTym6ki/e8Fj6RlXXQIyf9QyCREO5MAHRf1kh6PFe8NTt4NAG/R70QGZ0vMFnfyvAqjk6+Nsi5WACcmSQ9kgc4kgM/H0pv8p5LsNvyOPw1X3KnM4zdIgvcv46iLgqTgIwrAdTuPfoU7qfgwf6PBoAu5j9OKhkUgOfgZMx8yUquy5Pdm1wrw95WOIbpsSVfKo7G2r5K1uEnTeGvj4Vg9qqaVYW79jaB+4Xk5CkfADvMo4fTYdPPxLC1CQcV/KQjqPxBWjp10oRHeV6NgnGk711n3Gm69n7/9CvSTr2/a3/ESdf9HrIA3a6bz+cjsfBC27o9agfXGRx7Vr0Qp8b86F7hmFqGWaLilVda7mmcik7myzgNiycsxDzdcu8n/AvGemL2cp3UuHZvQ98cncidNZ8hH79E7btTUaGzojn5FCbPhv/hOsdT0uY+IzwxWxckruZg2fnALic+JeMm9jSIo4Exq5LR/Xzm8p53ODuKuL0cKUwZInoKmFYD6Yo921rZ/Hp0Cxk6uYcFGuRkRCFzavCEUrlnhPyAVb9S+FyfMOxYy/0ckrAqnfnYvbCH7D59yNIk59cFlQWj4Ze8GlIwpF0mYQ1GUcTm6OlTws080jGcfF99AsnkHDRDa1bqY0C5Xq6NTLoqlK/352ZXbaSynxMKCcbmWiExgbdkq5NqvPlToZhbnWub/ZX007o98iDesvDGDR8MB5pK5vfDf0w6vXXMf2Fx9GlOZCyew1C3/0GUbrPR5PR8umpfzwt/xmIESMDUaUvxN7dCV09qEUdTYKUE4f9sU4I7FwbP9JlLb9ep0XCj18idGUMcu7uiAf/7wm88NrrGOGv7KRiQ97NK69i5qtPYEA7F2TGbMLCD7/EzwlSOCqLJyH17eCE4wnJyE9KRJxHK7R0dEKr1k5IOJaKnKQkpHn4wtdADBiGYa6HaotKg7tES9wJnh3akPHSLd5ktLzR0lX2g2gLkF+sgWNTbwQ+9DjGTB2JIMdUMvrUKnZ0xl1W+ajnpn88LW2ohe3rVvb78pXiBL/7PJB5IB4J8bE43pCMpe775s6N4GqVjlOpeq14QpuaijQramE7ywCi+GqRXBNor+v5mJRk/S4jeT40hItyvpOIEV1yI8ZjaE/Ka6tGcHTIR47+Qx1iNpXoPXRrDr+ewRjx0osY5H0ZUf+eNC+ecG/jDbuk0/gn+TRc2nopXoh7O1/US0rGflpcWqthAsWzoP3KdjtSvSXTMU2MDh6pOAkP7DROCe+nBC3OnC5bfoZh7gyqLSruXYLQMmULvt2cDKXXRXTn/PMTFry9GNvOiD20iFszH7MX/4k0aZzzTyUg6SJwlwt5MjZt0D3QGlGrfsD+DNXga3OSsW3xfISsPiJ7gRzgSFYv80wa8sXngiuYquoY0Bm+F5KwLSoZnj06w12Gw8obXQPrI27DT6XnyTiItRsS4BjYWe0iE+LYsj4yft+CPacLoBVThv/ZhN+T5aynapC5ZzO2nSxQ1rUX5Pm6+Mnv5jvChTyElGPkRYgyKXW3Hb+niDiVtMjFmD1vE+Jkl5b2whEcpXiXu1S5rSxeoUU7dMR+bN4F+LWV3VFN74FP9gHsTyEhblfaReXSsTNaZv2Jdbrrqb2M45t/xs6s5gjsaNCVp8/dndHLOxs71+9EitLrqUUm3Qc/xymxDMPcYZg/pdhguq0gPyUKa8MjkZAlA6wbIXDEk3jMVw7el0ybVQ0frGzRsvdwPCkGesV28WXEbfwea/eelyJC5vZeanU/EVg6eJ8RhbDQyAqm8OogEQufi1UxzctNLy5/Hg1cuw3EswPawFE3PpCfim0rV2NnohACDVz8B2JQkz+w7GzPslOKjdRDWeSU4qHDoPktAvtl3ZSdwizqbie+DftTKZdATKXuCTLGdeUUZr1p0CoiT/0x/v/EdGvarCxeokyLjg/A+JC+8KwgTFDuejp7o9/IxxGkmyKuTCkGRs15HD5qiIrBddZ4BWOoTxxWHeIpxQxzp2GRzwmLB/CuFFmjnqMtmbbylMTbU7yewStBdOXk5QO29WEnZwUboi3UQmNjLPVSlGdTcvsjZGQbo/lQHt67UgTrenQeU0kJj6iOxng+zUKKiiKAVK6cisqlxhdZ28HRVIbEQ5wFFeS5svhqIB7IvEKy7+hQtQSV61xc9eMYhrl9uL6BeonGrj4cTQiKoCTelKEWnwJ2NC0ogooERSuEIP1P/PoXEBhoQlAEGlvKRyXGV3M9gmJIZeVS400KisCmkjxXFl8NNA6Up2oIg3KdWVAY5o7GIqJyc8lG1JdzEfLJTlwOeBx9WslghmEY5oZjke6vm05hAfLr2lq0tc4wDMNUndvAUyFsWFAYhmFqA7eHqDAMwzC1AhYVhmEYxmKwqDAMwzAWg0WFYRiGsRgsKgzDMIzFYFFhGIZhLAaLCsMwDGMxWFQYhmEYi8GiwjAMw1gMFhWGYRjGYrCoMAzDMBaDRYVhGIaxGCwqDMMwjMVgUWEYhmEsBosKwzAMYzFYVBiGYRiLwaLCMAzDWIwa/JywFhnHEnHuitzUUa8RfO5pBEt+qDHzz3CsPN8VLwz0hqbwPI4fKYZrBzfUl/EMwzDMjaEGPZVcHP11HTb/lYSjx/SWlCwY6sx1Y2OH+jb11PWcRPwaHoWz6hbDMAxzA6lBTyUbe0IXIu2hGRjaVgaZQJt7GVes7OAoPzSvbIO2Hcr7MxXFKVyIwsK56eg753F4yyCGYRjmxnDzREUx/ilw7ZKF44n5KMrOR/P/DIZX9E/YmW1Nh1+GdcAwTBniTRJCZBzEyqWbkFTkBEfygnLs/DBicl/4UGTm70sx/2xPzH6CZIRFhWEY5qZRJVG5cP4iLmXnoKCgANeulR7W1tdHrumjisph78Ho3lQGCe5qCt+m9aXx/wvNx7+Ax1qR13F6J+Z/GQPPkRMw1NcWyCcRefsfeL0xFkEuBTj+82rsdO6PMUGNKJECxK36ApsbPYWpD7lVSVTi4xLkGsMwDCOoU6cObG1t0cDJEQ0b3SVDq4dZolJYWITUU2dgY2sDZxcn1Ktnh7p1KxuOUUVlWxZ5FqQRJfg+hqmPNS8x/n3I+KuSlIi103+H++skIg2NbUu0Bci5kkMiswZr6/ZVhIQ9FYZhmOpz9epVXLmSj6zMbBQWFMKj2d2wsbGWsVXDrIF6ISgNnBvAo6k7HBzszRCUUnyHTsLU6XqLEJRqkBO3BQtDPkDIB18j7OstiDmfL2MYhmGY60HYdGHbhY0Xtl7Y/OpSqTqILi/hoTRs6CJDbgLFidgcnohWY15HyCwSpldG4rEOzjKSYRiGsRTC1gubL2x/dahUVMQYiujyuvnYwU7ODkN+Mv7Yl66uMwzDMBZF2Hxh+6tDpaIiBuXFGEp1ObjiA8ycrr/8hCoPlVt5o+ejGuycPxez58zH7E/3QdPcTUYyDMMwlkTYfGH7q0OlA/VitpTx2V03AWWQngrsaGvRJ/IZhmGYslTX9ps/4l4b0NjCkQWFYRim1nJriQrDMAxTq2FRYRiGYSwGiwrDMAxjMVhUGIZhGIvBosIwDMNYDBYVhmEYxmKwqDAMwzAWg0WFYRiGsRgsKgzDMIzFYFFhGIZhLAaLCsMwDGMxWFQYhmEYi8GiwtzeFOUhK1crNxiGqWlYVG4JzmHjK2Mxff05uW2CnBgse3Eshv1nLEL/lmECCv9u2ktKuFhGTwvHvgsyTkdxHg58Pw8vDVX3GTZ0OuavT0KejC5HsRZZiTHY9+s6LPoyAht3RCM2OQ9FMrp2kIfID1/C+Ke/wwFlOwahhnXDMIxFYVG5TciKWoFXRi/AIde2KPP5suIUrH5tAXY1eAyzwj5BWNjbGO62H/OnrcABvc/8H102Ex/+Zo3ub85G2PJP8OnLbXH6uw8wb2u23EOHFqm/LsRLwyfg5c+2Yt+JSxSWh9T4vVg98xWMHLsAG4+YlKIbjD16jJ+GqbMHoZMMYRimZql5UaEWbV5mNrJoyTNoxhblUJieYRMU5dK+Jd0V6rHKcfnZOBmdhKxig3DRvSHSzzHexaGkp5zfVCvaIH9KfsvvK/Jq9DzK+dX9decyLFMJuryK/ZVylKfkPKa6bErqUz+P57D7f4nweY3EYHx7MqV6HN2NzWf98fTrfdHO1QnOrp7o9+pTCMrcjd2H5D6Ix18HrRE8YRKG+7srnxL16D4az/ezR+zuGGTJvURdHV0WglcitOg/dzFWfDENk18YjYnKMgmzVy7EFyPtsfG/c7HxtDxEn/yy10rUV0ld6dfjhRQcOJRWWkcUl0FekUlPqKRe5TXUw9q5OXyaOsgtc9G7J0xdS11ZjNwrSpxSRkonOR4HErNL96G41EMxOHnBxPVlmFucGv3yY96hCLz17hak2jjBrW4u0vMcEPzGbEy8T5g90aXzBvY88BHmDGqsHkAcWDAWH2IKIqZ0oC3RXbEARQ8HI2F7JAlKM4xaFIIBTdRwPDUMGWsicNpGgzwywjZth2HO7L7wsKJDi9MQ+dHHWPR3NuwbOlFTngyEcw+8GToanXQ2Jjce3834DBuStbB3oDQKm2PUVD/s+egMhv84Tm3dluxD7V5XG2gzqBWuf56/l2DY+8DwMeew7ps0aOrmkWHToPWYEMwe6C5SUNCvC/tCygtaYfB7L2N4GykBuvOctoFzQ9qfzmP/8BR89kIHEglZVx2HwWtXBPbk26Mwl/LRUFceMl65GioDpXN2C6ZPjIDHW0sx+T7aFgb3MuDgYg9r5UREcTRChywEdPuYQLkWV8Yh/I1A9dj4cIyfeQwDFtA1aErbogvsxGEkXGkM/3sbo+hSIawb2KPoz4UYHe6OuQsHo4WoIyJ16wK8s5gEqq497K/mwebBKRhetABbPOX1l/U4eFgyNv9KZcsT16svZs1ywupp63DaxUjd66drR4IJMvL5Tnr3GJCxPgQv7uqGLz7tC1d5P1VYbr17woYKXUjX0mPgy3h/TNsSsS4tiwY2RVoUNuyAie9MQbCoE0I95z0YTB7h5mNF0F6gfPuPxpxHkvDO3P1AA7odKcy55PoyTO2jFn75MQUbFm6B9rEZCA//BJ+vXIxPn2qEqP/tRqrcw1z2Ha+HaSuWIuJHISgykNgTlYunKXxF+GKELxgMj/gIrI5SW4AZm8Px7fFWmLiIWtRLP8GKiNkY3mA3FnyfpMSLVuS+L+dhQ90HqYWtphGxKBhHl6zDCbmH2OfA90uwzbov7UPphH2O78InoUtKBJZu1+8WisK+S08g7IfPsWItlfNJdxz9Zh326Vq5ZOjfCYlC08mfIILqQtnniUKse2t5yT4nf1qBDQWUl9WfI0yc54thcN37M7aTmOk4sTMR7eYupTx8joiVkxCUvxvLfkqhGCkoxrC2J89DT1CILBLoPQ6B6NFeBuiheltpVO4F+GqXEwY+LgVF1NfPkbAdOEoVlNwYLBo/AS++E47vPv8A48a/jpefnYvN50h8ewzA4KubsCFaOZAyvg4ffUme1ISPEL6W6ojqaVqDn7Fsl4wvIQpHXV7DipVUR6vF9dqCj2bsR9dPZd1TnXgcjcAPunTPRmLpN8nwmUTpUr2GhS/FpyMaIPKz9Tgqd6kaJN5v0z1hPRCfrqV6piV8wUDYbJpX0g1YFL0C73yZjHav0TWg6/gdlWVqh2Qs+m/Z7kSciEFe/9l071G+6Vp1SfgO05cW4fkVdH0pbMVbgcDWddh+Vu7PMLcJNSgqRcjLIQNTr7Qd5jFoBlbMoVam3DaXoP8bjNaOckMPJVwaU+vmXRDkRWKSkalsu/afRj/oSQhuIj8+bOWOrt3dkZeQiAyxnf8P9vxBaTw5rDTthoEY+3+t5IZAg07jyMDN0zu/gz+6+gOxiXrWHoEYPKKVbHFSy/aBbvAqPocM2W90clskTvgNwvM9yGNSoH0GPYF+dtHY87cqgornUc8BJdrQVAjZDAxoLrcJj/6DEURejIKjP3p0AdLPlXZOmUPekXX4cPEZBL08Ep3sZKAesV+/ivHPzsSHEYfRdMTLGNxaRuAwDkTZo1MXtX5iv1uC6A5TELZyDj4ng79kUgcUKjECT/j4Uov+tDqx4OQf+5Du9RhGPdxYCpQ9Wo8YhOBy5w/EgEdkHVm7w6sF1Uv7YPSTHgCa+iPIszRdNAnGLBKTqcG6dKmOAu+DR+4xJCgXuYok7sbWRPKGp/WHh0zQunl/vP31J3jzQZEvEtatu5HVezQmB8r72soeXV8cjaBLuxEpr6WCVzAeay/3cWwGL1ctXIL6lnjJ9vd1RTucwolT6jbD3C7UoKi0wmNjOyBzzUyMHDkT785fh836/eRVQXZ1lMNUuIKYnbQbq79ciJnjp+OlURPwyndpgO78WdkkLvRjbya3Jc6NSrviFIq1SI3egu/mz8MrlM74kWMxfzeFG3Sk21SQl8wL54FDEZgu8qFbnl+CXdSyzTivimDrAcPgf2kdXhn+El4JWYLVv8Yj1aA/38bqOr/Of5o8prc2AU+9hsmye8iQTlOER0gt9C8mwHXnOxgdQkZURGRSfRU3RGMXsZGEv3bZI7h/adeNtb8/SGtLcPVwx4k0qm9CKX8Ld7gqWxKrRmhcJsAE1CjR97IMKcpMQeT3KzB/uqjXl/DUi+tUT/iqEl01Mi8gnZo8TfW8YYG9ixOsleubicx00gvP0m5NBWqweJHY6a6lKewd6sk1hrl9qdGBetdgaslSS3Lu1GC0xnFsencmnp0ZqXoKNUzGhtkYP309jtq1xYCJk/Df0E/x6TMGClIpWhxY/Dpe+XA3LrYMwvCXXsbcRYsxtbeMrgrePfDUM0/oLU/h+VcnYdR9ipWmVncPvBG2GGFzxqEveQdHf/oMr4z6AJst1T1yIQrz/xuBwn7T8PYgA6NoBGvyCia+3B9uh7Zjt7hgBXnIVaOIXBTmW8PGiKejIyM1DV7ulZ/nuji7BTOfewer4+3hO3Akps6ejbAFw0AOK8MwN4kaFZWi3DwUWTuhhX8whk+dhs/f6wuX+F3Yp2coC8kTKEWL3Cty9bo4h307TsFjxGuYNSYYXf094epij8wMvYczGrvDw+oU9h0oO2X26OFEuSY4jN1bsxE0dTYmDwpE1/bucHbMRWYVDb1L40b0byP4dPdH15KlA9p37IB2TaX3UaQO8Dt7d0C/J8dh1sLXMdAlCTv2yq6e6yE3BqHTliCh4xS8P650wLmEjEh8NP4DbCwdTCpPE6ovuj5FyuVqjtb3piH6kF7dnUjEMbmqu44ODjbKlocniflfhxCr76XmHkFcReczg4y9e3Gi6WC8/d4w9KP6bOHqBPtL58nbqCbNPEmQEpFgkK/Uf6NxMlMUvDGathBFPVXWUc0/haMpVM6mBl4uw9yB1Jyo5Ecj9OmXMHN9itrlVZyHo/sOI92qMVydxQ6N4dPeCanrw7ExkcSHjGpq5HL8kGC8W6ZquMD1bjIGsfHIUH79WmQdWofV2/KUWAWrDhjyVDMc/fodfPR9FA5Ex2CPGJzeqW8unOHaBDh2MB55Shm0lMcIrKviKHCLvo+h3dFwfPhdPLJE8ko6i/HyyLewWjFgWuz77CWMnrkJJ2WXV97R/ThEHoKrq/RkqktuEla/vQB/eY3EjKeao1BOlS0zXbahN1rUTcLKhRE4IKbtUv7ykqOx6LNNSPfuhq5KN5U7vLx0QuKEHoN6IOPrj7Ho12gS8HX4aM4OZJJI79kWj9RDG7Bxf1sEBajjI64PD0aQDQnXq+HYTPV84I9ILJqxHsdNTS4wExdXMuKn43HorNowKcqMx+rvd5l+YNMQ8t5Cp8xE6G4pjk0C0bf9eaxbuA6xioio903oewvxQ6w6YtTp4WA4//EdQiNlV25+GiI//w77GgSjn37/H8PcodScqNj54/mQvihc8w5GDhmLYUNIYLbWx+D3n0VX2W3S+olJGNwyGSunvYSRQ1/BR4cCMHagbiT6etCg65hxCDoVjheVJ8Qn4MXvgeDHynZ/eQyaiS9eDUThvvVYtogMXk4PvD2hrYwVeGLgy/3htG0eRitlmIB3DrTH4PtltLk07IFp7w+Dy455GC/yQ+m88lUaAt+YgeFKXw3l94VpGFi0Aa8PF/kdSwKzGw7DZuD57tc5jnI4EuvI+SqMDsfrY8UgfOnyzq/SC7LyxPCPp2BwvSh8OIWuBeVv9JTFiGs6DLPfEVNxBY3R4+FWOPrTdpwkY2rtPxqfzQ4G9pFY/34JXd78FGHvj4THoRX46Ovj6DTrBQTrLqVDB0wOnYGn6FpvonpeFhEPj+cnYYA5YyoVYB34FCbffwbLJk5Q6mzk+PXAQw+a3/116QyOJafh2CmdxyWmI8/AKJc9ePdZkeYEjA/ZA5fnyFPtIRs7bUdi7hsBOP3VTPW+Hj4Ty04HYOq8kWhd4Rgfw9wZ1OhzKiriQbJcFGoc4OxowkAWaVFUVyMHQy2LeJgwFxWcW7Q29c8rn5d4U/ecioIsgw2l43B9Rl5M2c0ttC773IgeJfENKP5mGCnhpcjnTcqdXzydP+kdRLYah7kkxs5VyZ9hPZt4TqlaiIcNRXebJeus0jQtd08wTG2kFj6nokOjzJ4xadQF1jUjKAJrR1PnzsOBUGqxf7JbdpERRWlYtyaKWqOtDFq7sgwWMB7WDpSOCUERlMTXUH1UipUoq4nzC49m/jQ8cHo5xo+fh0Xro3EyQ9edlobYHVvwXaR4bsaA5C2Y/nQIVseXdkzlRf2IjSfs4eNtgXEIO/ksjiXrrNI0LXdPMMztxA3wVGoxok/9reXYI/vkBTbNg/HSrJHoaoleuNsWLTIO7ULkpij8cbx0sN6pZQC69uqBfoHuBqKZh6Pff4kPfpBjUwIrJ/g/NQmTB+me72EYpjZRXdt/Z4uKROkiE7rCXRk1i/LKGOEW3sTuPYZhzKIWd3/VfpQuMu7KqHmUV8bc5O49hmFqFBYVhmEYxmKwqDAMwzAWg0WFYRiGsRgsKgzDMIzFYFFhGIZhLAaLCsMwDGMxWFQYhmEYi8GiwjAMw1gMFhWGYRjGYrCoMAzDMBaDRYVhGIaxGJWKSp06dXD16lW5xTAMw9zuCJsvbH91qFRUbG1tceWK7ruzDMMwzO2OsPnC9leHSkWlgZOj8hEmhmEY5s5A2Hxh+6tDpaLSsNFdKCwoxIULmTKEYRiGuV0Rtl7YfGH7q0OlH+kSFBYWIfXUGdjY2ijfw6hXzw516/IYP8MwzO2AGEMRXV7CQxGC4tHsbtjYmProecWYJSo6Lpy/iEvZOSgoKMC1a2YfxjAMw9RixKC8GEMRXV7V9VB0VElUGIZhGKYiuA+LYRiGsRgsKgzDMIzFYFFhGIZhLAaLCsMwDGMxWFQYhmEYi8GiwjAMw1gMFhWGYRjGYrCoMAzDMBaDRYVhGIaxGCwqDMMwjMVgUWEYhmEsBosKwzAMYzFYVBiGYRiLwaLCMAzDWAwWFYZhGMZisKgwDMMwFoNFhWEYhrEYZn/50dTng/mzwgzDMLcm4jPCxjAVbg6ViopONNS/dCL6K/5jGIZhbh/qCPuuiMm1ElGpjrhUKCpCSNRF2cLB34DjB+oi80wdXNUquzAMwzC3OHU1gMvd19Cy01X4PSRCSGIUjRF/qyYsJkVFJyjCKck6dxWRy61wIaXqqsUwDMPcOjT0vIbgZ4vh3Liu0JYqC4vRgXp9Qbl6jQRlWV0WFIZhmDsAYeuFzRe2X2hAiR6YicnZXyINkejBrXSSUzxJjGEY5k5B2Hxh+4UGVEFPFMqpRakqXcPVq9dw4l8WFIZhmDsNYfuFBggtqIq3YkIx6igJXL16FZlpLCoMwzB3GsL2Cw1QxeQ6x1QoFfG/kiDP8mIYhrnzELZfFRXaUP4xD6OiQpKiqJPq+jAMwzB3IkIDlK4v+s9cTPZtKS5PFdSJYRiGuc0QglJFHSgnKroEeAIxwzAMo9MCc8WFR+EZhmEYi8GiwjAMw1gMFhWGqdUUIOt8JNIK5SbD1HJYVBgLQ0bwzDSE/eKBdzfI5bdx2HvxkoyvaSKxTpzzQKTcrl1otRm4XHAJpmfqG+Q/cw7C/hyFJdGrkK+GVE7uYnxFaXyVmCIDGObGwaLCWJSspIEI/WcVshwn4JHOSzC00yy00/yC3/Z0xYaMArnXncuJQ53wyZYZOCG3K8V5Igb4UF369IedDGKY2gyLCmNBjuFQSixgPxnP9piF++5+FG2bTcDgXhG4z+oS/j3xi0ELvQD5BaLlnoH8Yhmko/iS2qIXE06Uddqv0IQo6eK1ZojWNfWcyvnouHPn/0CW/rl1aZnyJuTxRvOsw0Qa2sIMFCjHFKCgouPL4ASvFhPRvkEDdVNJ28x60UeXb3P2ZZjroNyr73WP5Rdri1FYWITw1x1kDMNUxjHs3tELO4onY9yD0+Fe0bz0K+sRsetFHNGzcY1bReBZ3+5KizwrsRdCDwPd7u2MQ4dX4bK6C+p7rsQLHYNLWu3nyDP6Km6/3AKa3DsdjQ7PQWyzlZjVKViG6iG6hra/C7SYAIfkxThJd3+7rqkY7HYJpxOewrKE0rRgG4wB3VeiU311M//8u1i+dzHO6f1imvruxJhW98ititJIwd4d3fBbjgwnGt+7F897e8otHaL7a1Rp/nX5lfuaVS8Gx+BaBmL/6Yl1aZ54KHgLusnyMExljJybCxsba1hprJTX39etW7kfwp4KY0HuQXvPdkBeKJZsG4bfTv6Bc0a9BzKwUSQoxY9iQPBxzBpwHM93fBQ5ScMQkZIh9xEcw960xhjU5wBe7bsTA9xscTnlOey4KKMvvoXlJCh27vPw/KPHMePRLeh0/iuQr1Qp507+Cme/LZjc9wAebUReRPoMfEti0OSeCLzaPxUz+kagR71IbNz1Fk4rIrIfO/aRoNSfjucpftaAeIzxvgenj8xFrHRHKk7DE/d1P4DBd4s9H8VgOu+zXoaCYi6V1EsZLuHYv0JQnHHf/WtZUJgah0WFsSjOrTZgcucJaIE/sDdmGL76pSXe3dQXG86klHYFXVyMHTm2uK/LEmrB25K/bIvGnu+jtwtw8uR6ZMndqJmP+9pOh5e9K+rb3oNOPhNQHwU4d1kVnmMpK5CPYDzUaQQaa2yh0bTDfX7T0VSJrRhNi3kYSALobOsKO6sMHEpaD63L+3iybXfUt6J42+7ofe9oaLQrEH1OHJGNK6K7yr4xHMWvpk4DNL13J2b1X4J2GhFfeRoaG1fYUrgol61yXrFeHSqul1LOKYKy6pTwxrbgkUayC41hahAWFcbC2ML57ll4+iFqqT+6F+M6z0I7+1j8+083LEtSZyNlZf5DAlOAA/s74ZPfdEtf7BBqknWITKEOTzjXk6sCa2eIzdxCMQ8qBefFhDLHIHgpRl1SrzO8SKcqw8W+mVwTxOLUefqTNQdhJfmhZf8qRQhTL4l8B6PHveSFpU/D3I0t8cmuUfgtMRLnSsZFzEnDUlRUL6Wcix+IVcLzazQLj7qxoDA3BhYVpsbQaDzhfvcEDO69Fw85AmdTftXzQlzRpvX7eMS3dBkQsARDO0+Eu9zDPApQJNdUCpCvPzpeFVxGlMnPI+2/oPwsQb8mbkp0Y+8tmNF3C0Z0IE9Mk4i/D48iT2xcSfeXQiVp3FgC0LHZPcD5aQbdigxTc7CoMJYjbzHCNnjgk8N6A9UKZOj1Zjo5u3SGBhkosApCWzFDTC5eLu3g5dYO5nX7e6KZC7kkOdtw8ooMEtD2MbNmVenTDs0a0Z9ccnzcS/PT1rUz3Bs9CC/RRSdmT+XFIvNqO9zTYjoG378XM+4bROG/4OgFM9O4wTRu+wUGdlyCh5yBk/+Owl7dqD7D1CAsKozlsB+E+8iwXk58CsviVuBYVgrOnV+PHVHDsDsPaOL5CMi+AXdNQG9aOXbwKfyWcUyZFntOPDD5WzeElhMk0zRtOR2NsR+//jkN8TkZuJzzCzb8s1jPGzIXV7T3HgG7gsWI2L8CaXmUVt4f2PtPT4RuHoUDQrTy1yFiW18sORCKEyK+4BgOnN5OEZ5wsTczDaKeRohLLE6eT0FWwQ14ILTOPeh2/xK0s4rFb7umVUNwGaZqsKgwFsQVnbpswEPudjid9BZW7eqGr/58EbvPAW3u3YCnW+lmO3mSoaP9Gp/C3qhe+GRLJ3z1zypo3efh2XYBch8zcJiAZwMnoHHeKqzd0Qmf7HgL+a1XKl1tVUXjOg8v3DcC9dLewpJtlJaYvXZB5PNrdBIDFvVGYNj9E+ByYQ5WivgtvbDxrBs63vcTesvzVZoG0bTt1+hoewx7/yQB/Xd7medYagzNo3i08yDYaVdhfUyk+U/mM0w14OdUmJpBdBcVZpPRtIOdbQPoj6WXQTzAp82HRnM9s6HEg33ZwqpfRxqliIcU8+GE+jbGu6wqixdUmoaWvBRNBfXCMLUAfk6FqT3UsSUxEVNeKzGcVg1on+sVA/VclhAUgZj6W5FgVBYvqDQNFhTmNoVFhWEYhrEYLCoMwzCMxWBRYRiGYSwGiwrDMAxjMVhUGIZhGIvBosIwDMNYjEpFpS7Pe2QYhrnjqK7tLycq4gEXge6JSCe3G/LML8MwDFOL0Nl+nRbotKEyTHoqSgK0NGtf9h2wDMMwzO2PYvtJA8wVEx1GRYWSURKqW7cO7u2lhfPd7K0wDMPcKQibL2y/0AChBeI/czHuqSjqRJF169ICdBuRx8LCMAxzByBsvbD5wvYLDVAcFeUf8yj3QknxMkndUlx8FUVFRdBqi5W/R3bZIjXWFpcyrHC1uGouEcMwDFM7qWt1DQ1ci+HRrgBtHiiAtbU1NBor5a+VlRAW6bGYIS7lREUgBOXqVSEsV5W3FQtR0RYXk8jQQusiXBwk9mMYhmFuXdTuLfG3rvI2YisrK2jEItaVtxOLHivzBEVgUlQUwaD/r+qEhQTl6lWxUBitK3oiz8HiwjAMc2tRIhJkvsVqXRIStctLFRUhKHVJUISdN9dLERgVFYGhsAjPRXxrRV1EuNHDGIZhmFsNEgzhjajj6KpnUh1BEZgUFYFOWFT9KF3XhZt/GoZhGKY2Isy7TjiEdqgCUrpeFUERVCgqAiEepX8pcSEoSjYYhmGY2wWSD6EitEYOgxSSqgqKoFJR0aETF0NMhTMMwzC1G1OiUR0x0WG2qDAMwzBMZdSVfxmGYRjmumFRYRiGYSwGiwrDMAxjMVhUGIZhGIvBosIwDMNYDBYVhmEYxmKwqDAMwzAWg0WFYRiGsRgsKgzDMIzFYFFhGIZhLAaLCsMwDGMxWFQYhmEYi8GiwjAMw1gMFhWGYRjGYrCoMAzDMBaDRYVhGIaxGCwqDMMwjMVgUWEYhmEsBosKc0MoyJMrzA2n8DItxXKDYWoY/kY9U+PE7wH2/gA88jzg3loGVsCe94C4M3JDUB+wbwL4jwZ8G8owS/AvsHgxEPQVpSuDKkNL4niF/jraq9vVJW4ZlZP+ThijbtcYicDX86n+BgNPPiTDGKYGYU+FqVGEoOwKB4qLyCBrZaAZ2PgDgWRwlWUY4GlFRvgj4EiB3OEmkbAa+J6WWwYvVcx7dpfbDFPDsKgwNUbsTlVQ6pIgPDweaHavjDADWw/A777SpScZxoaXqeEdL3eQCM8h55K6mNIs0f2j7GNOFxyJltg3z0hiSjeSEDUT++TJfORYUvjoHEqatJjswpL5yaH8CZQ60eWB6t6lBS02clvsK/fT1YuxsjJMdeHuL6ZGOLgNiPqhVFCad5ARZiC6v1ICgCcflQECMob/exmwJ3F5VKRFBvavhcABEhmrBrSdS0EOQNDbgK+ua0pvH1jTQt6STVs6fhLgRvkq1/1FxvhnOj6TvKQhI+hcIkwPw245jwnAYx1phY7bOhc4kU7r8jz2vSkN8rBM9ZKZ0/2VdwT44Uv6e1UGUBPQ6wWqzzZym0jfAfxC9VxIcVa0n1VnoCP9jW9SWn8/U51B5jX9F+DH/VTeZpSHaPUYoVXNnqN6EWVhmOuEPRXG4ugEpQ7dXVUVFB3F+bL1LZYMYC8Z4QtkCAPk4Ef670BMKtDlHeC5ObQsANrUp/1+UuMFR1aSoJwi0aD4CaG00N/GtL0xQu6gjxSUc5S+MUERBP2XFvKaQMsEEiJFUIg9n5GgkCfw2OfqecbOIGO9i4z3b2p8tSCB+vELSuchSo/+TqDlMVo/QX/3CPESUFm2UlkcSbzG0nmfo7heJLB/kVhUCAnjeR81r6LeAv0oqf8BVJ0Mc92wqDAWJZpawjpB6UOt3+oIiiCPDPL30+VCxj7mOLWuh0gPg3ALVsWkk6u6Lbp52pCRLz5BBlNsk2cTu4+8iZF0nPBkBPT3YRKGJ4fKbR0kKL+QOJ0lL+aJ0aa9C6MkA8fIuPuOpXNp1CANid+D5CXkRJLHpQZVmZQ/6Hg3SmcApSfDPGjdl8KOUZwg5W/K+t1AjwdK9/F6nLwOW7lhCkqjWze5TvUmuhdxAchSQxjmumBRYWoljmRAhTegLNQC/w8ZyyPkEfz8r9yByCIBiSRv5Ps3geWvUcueBE305ShDD2QhC+mPs7vYKMWGhMVeZ4El0SROp0iE7hteRUERZKrncSFDrY8bGXuRhxx1s8rkCAvvodj/MrhQWKG0/kb3IZFo4CzXTSGFmWFqAhYVxqL4Uws9kDyKa1eBbV9TQz5GRlwPZATdgoCetKRuVw11Onkya+YD56hV7jsCGEAeyGMkRNXBqiu18OuTh0Wila4oEsMw1YVFhbE4fn2A7k+owrI1zELCYsCxKPIq+gJPDKPzdQAakQeSR15DCY2oxU5idP6k3JZkJdKxujEJiR8J4cMvkHd0Bti+RQaaC3lCjvTn/Cl1U0dqMv1D3gplo1o0akL/HC8/znGewhxFHKHsE0fl0RfCPOCs/jM+DHODYVFhaoR2vVRhuUoGrzrCUmagnpYjPwF79gLO/qoRdyRrnXeUjKycDpt1BPh7n7quQILi0508j/8BB6SIFNLfnYvJI5FjEmUgAfjPc5TmxrJdbIY4iq4lsvSpdF7luRs3wNtbnRRwTHZLibz8Tp6UM3lWht1XZRDTe/XKqCxyuq/b/XQ8pff7OkpPnIeWY7R+hMK8KU7Zh+rYg37Bke8Be6l+j/wN/DKX9q9yHx7DWA6eUszUKLqHH8XU4n7kDZjzrEq5J+oF9cmAPgIEB8txjwvAj2RA08kQKzQHurQE/kogcfivNOYkaHHfU3p/KnsoiKm+/xlC4iDGFYw8UZ9OovIjeSu+MyhcjIsYIgf1T9F5xbiPMm2XwvZ8TefSPUNDaTek8EdpMWXflSnFJALlEOIm859HXtUvS6ioujKSN+Y7jvJFIlYCxe1dQ4JCHgxsgXueor+ryk7JNjaluKSOBNV4swDDmIJFhalxqvqalqogHuCjBj8cSXRMQq188eCjFVl4w0H66qKlk2oMZ1kJz4MWWwfARoiWhaiwjKLry+BcRp/zYZgbBHd/MTVO2yBg5PuWFxSBDRnaCgVFQELiaGTW1/VQTlAEFCbOY0lBEZgs4yng+6lAJHlnOnKiyWshL8+ZvDaGuRmwp8IwtzAnfgK2/0YOi26w3oyuN4apSVhUGOZWR3bvCSzd9cYwVYW7vxjmVkd279VE1xvDVBUWFYZhGMZisKgwDMMwFoNFhWEYhrEQwP8DOuwZr4m4BqgAAAAASUVORK5CYII=;" parent="WIyWlLk6GJQsqaUBKTNV-1" vertex="1">
                    <mxGeometry x="-70" y="140" width="172.99" height="112.76" as="geometry"/>
                </mxCell>
                <mxCell id="KgBlzZdilrDWfoYo20FU-33" value="" style="edgeStyle=orthogonalEdgeStyle;rounded=0;orthogonalLoop=1;jettySize=auto;html=1;" parent="WIyWlLk6GJQsqaUBKTNV-1" source="KgBlzZdilrDWfoYo20FU-26" target="KgBlzZdilrDWfoYo20FU-32" edge="1">
                    <mxGeometry relative="1" as="geometry"/>
                </mxCell>
                <mxCell id="2E-xNjZSVxp7kiR47ArA-3" value="" style="edgeStyle=orthogonalEdgeStyle;rounded=0;orthogonalLoop=1;jettySize=auto;html=1;" parent="WIyWlLk6GJQsqaUBKTNV-1" source="KgBlzZdilrDWfoYo20FU-26" target="KgBlzZdilrDWfoYo20FU-29" edge="1">
                    <mxGeometry relative="1" as="geometry"/>
                </mxCell>
                <mxCell id="2E-xNjZSVxp7kiR47ArA-4" value="no" style="edgeLabel;html=1;align=center;verticalAlign=middle;resizable=0;points=[];" parent="2E-xNjZSVxp7kiR47ArA-3" vertex="1" connectable="0">
                    <mxGeometry x="-0.2393" y="-1" relative="1" as="geometry">
                        <mxPoint as="offset"/>
                    </mxGeometry>
                </mxCell>
                <mxCell id="KgBlzZdilrDWfoYo20FU-26" value="is link&lt;div&gt;valid?&lt;/div&gt;" style="rhombus;whiteSpace=wrap;html=1;strokeWidth=2;" parent="WIyWlLk6GJQsqaUBKTNV-1" vertex="1">
                    <mxGeometry x="190" y="737.5" width="80" height="80" as="geometry"/>
                </mxCell>
                <mxCell id="KgBlzZdilrDWfoYo20FU-28" value="" style="shape=image;verticalLabelPosition=bottom;labelBackgroundColor=default;verticalAlign=top;aspect=fixed;imageAspect=0;image=data:image/png,iVBORw0KGgoAAAANSUhEUgAAAcgAAABmCAYAAABPwAHAAAAAAXNSR0IArs4c6QAAAARnQU1BAACxjwv8YQUAAAAJcEhZcwAADsMAAA7DAcdvqGQAAC5RSURBVHhe7Z0JeBTHmff/c0oaSUigA11IQhICBOIQN+K+zWHjCx8bbGft7G42WWez/vbLl91k17vJrvdKsvbacT7H9jphP4htcIQxmAACBAgQ4hIIISQhdN8CiZFG0pzfWz0tMTOaQwc37+95+pnuqa7uqreq619vdXW3orSs0gaGYRiGYZxQyr8MwzAMwzjAAskwDMMwbmCBZBiGYRg3sEAyDMMwjBs8TtJRdHYAXd1QWMyAjefxMAzDMA8RCgVsKjUQ4A9bYJD8pzP9PUizGYqWFij0eijMJhZHhmEY5uGDtE1onKR1pHlC+1zpJ5CKtja7MDIMwzDMI4AklKR9rjgJpBhWZXFkGIZhHjUkkRS3Fh1w9iC7uuUVhmEYhnnEcNFAZw9STMhhGIZhmEcQVw109iB5Qg7DMAzzqOKigf0m6TAMwzAMwwLJMAzDMG5hgWQYhmEYN7BAMgzDMIwbWCAZhmEYxg0skAzDMAzjBhZIhmEYhnEDCyTDMAzDuIEFkmEYhmHcwALJMAzDMG5ggWQYhmEYN7BAMgzDMIwbWCAZhmEYxg0skPcTnQ04X3oDj94nqy1oKi1BZae8ed9xv6ePYZg7wf0hkFarfblXFG7H5r/4Md4vlLfvEk0H3qPzvoc9LWKrGzlb3sPP3vk1tl+Tgt3iHOdOcgN7/vXHkl36L9txXt7rtnBtP37yzhb8aMsZGOS/bie+bObTpkNI390rJ4Zh7hT3hUCqzhdIy6ONP2atXo+1a2hJkP+6HwiIwqzMGVjstIzFSDn4tpCwAC+vycRLqydBJ/91X3G/p49hmDvCPRdIRU8P1LnHpEWs3xf0dKO9vRsm4dRK6x1o77TYwwRWCwzivy6H/yTk/93t63Z/ZzRRk7B2QRJ0TqXSG19Oz0DpTbebeKYu+X+x3t6Aoppue4A7wqbh+ec34jWnZQbsGu4mv0Tf8fvs58WWEgFIW7AAmTH+9k2HOKauFhS5DDubOsXxafFozyHazCOe0+c5T26Q9zXcJ9WcYRjvqF5//ftvyutQdHTIa3cPdU4OlLW11KZRA9NjhDUpSQ65izQV4fdnGjFm5jLMiqTNw/8Xf/n+OZj86vDBLz/FF9m52HPgMA7djMOSyWHQKJqw899+gV8UBmH53Djy/WRqDuL//OT/IUc9CatTg2Ao3Ysf/fMWbDtA8Q/Ssv8Y8nrikTlxJDS0e2d5PvZdAdKXzMY4ck0u/u4n+PGWm0hZm4YocbyuEnz4k3fw7h4R/yh2nriOsIhOFJbfitMfC+oO/Ab/65dfYqdIt4iXXYiepKlID1NLe/Sep6vnK/z8o2M4VhmIBQviESiF9tKN0twTKEQKVvcL68WGS1nv4Me/vQD/mXJ6ui7gvR9+gK3tcVg5PQI3ZFtqI27i419swae9tqwOwbSMGAQrKE7rCfzj3/8GxwKmY1lSQJ/9u4xX8O4He5CTZ7DbpKsa29/7T/zb50dle7ocRzAEm7mWQz88pM9j/aAo/Y7ZfgHvvPUrfFgUjIVkz770MgxzX2ELCpbX7rEHqWhphaqgAPAniaFFdaEAitZWOfRe04ADJIDf/vEP8O5Pv4fXpvqjLfdz7KCGFiRfs2aMBK6eRq7DPabKggtowhisWUDyZirB1o9zURezGH//Lz/BlrffxE/XhaPu4Db5GL7oQM6HW5BzMwpPvP4DfPzzN/Hu8wHIOdQgh7vHVPh7/MPOcoRmbsa7//EmPv7pN/FETDP2vLcNOe3yThIFONWYgTf+hvL33bmgfoF7rF24KXljDkuf56bCtCc3YnFQA7ZtO4N2EtXTn+1CvnYqvrUpzWE4sgGff9WMtT/4W8rHD/DDVVFoK8zCz772lpcG7CMxeemv/4rsvx6TSPjPb/8tdlaE2+3xX2SP1xcj9HIW3tpRLccZms2Ghrf64QKJ9vv//jnyA+bih9/JRMz9ceefYRgf3NNLVZ19gOTaBvP8TJjnZUrr6gP0332BP5asW4G0sCCEhIRj8ao5JCLdqK23e9kJCzLJt2pAdl5v49uA/PwbQPJUzA6hTU0qXnuLhPGvViBFuF9KFRKmTUYMHaOkkvbzRWsBDpQAkUsfxzPjgqDRqBAyeR1ent/nr7qhA8cPFcAQlolvPZ2KED8VNCFJeOb5xYi0lOOASF8fY/D4CyswLZryF6iS/3NDXQ7+4Uf/iu86LtuvyoGEXypefnEGQkv2YuvnX+E3p4H531iPmQFyuMysJzZhcbQ/5SMIaRtexkvJ5KnnF6JSDu+PP1ZtIvGNH0n2p3jt57H3VDdSnnnZbg8S55BxK/AC2aMt94x90tCQbDZUvNePPvTk0b61BccxFW/81TqkudiFYZj7l3smkKqyUihramALC4Nl6hRYpk2BLTRU+k911aEBvmeEIsxxJoouQPKIOrvku2EhkzBfNPJn5Ea+qhAnyPmdtWgmhD5KdDYg5+ssvPOLn+ONN/8Jr/7TAdSJ/wdwuwqNzaign5TkMfZtmXHJ3oag61AqTDc2HimOJRtH2/RTUd9s35YYhYi+hHpBeMA/FV6Sw/IMZdwBTdoGvDobOH6kAG1TN+DlKa6CFIWUBEcRDsLYWNqntQ2euwou9q+txiX6qdr9AdlS2NO+vH+6m+xZizrhyQ/JZkPFR/2QaMCO/yKPljI56bH1mMbiyDAPFPdGIC1WqLIPSavm5SsoFZQMWswrVkr/qQ5kS/vc3wRhyaI0oPkC8muAsrw8NKnSMH+SLATtZ/Avf/sePsy7AV06eTqbXsVbf70CifbQgeNiBkO3lwk1dwJlAEaECC/JYQlw8TitzSi71g2tRk0qXI26fkVngdksr8p0WIaWj/i5a/DC47eWl59/Ad/75mOYduu2wb23mSPxczE/Drj0uesQN8Mw9zv3RCDVZ09D0aGHNTkZ1jFx0Oz8UlqsCfHSJB0RJva539FMmopZqhsoKL6A85e6oZs/BzP95MDqa7hkGYknXvsmXlsxBTPTohAJ08Cf84sdg0n0c77Y8aaWBaUl3m5gJiNtMv1cuoYiR5G4Vo4y+pmUFGPfvs1U7t6KndeT8NJfP4lZHSfxdt89wV6aca7MceixAWUl9BMROvDHRWR73EQwZmak9S1pydFIm5SEGGH3IdnsThKFp7+xDt9+eQ11jMrx4a9z3XQeGIa5X7nrAqkwGKA6fpLcRPIYly6x/1dbC0UduWGEedlSKUzsI/a9r/FLw4r5/qg4vBc5rf5YMNNhKE8aciPxPFeOJjGxpb4IH27JQZMc7JOQaVgz2x+Go9vxswPiGDdQdGArtl20z0R1jwrzl81FaNdJvP+bPFS2ivOewTsf5aIpZAbWzAyS9xsEXfUoOFuE005LOep6H1WoOoB39t1A4voNWBw9Bc8/EYW2I9uwxUWTyr74DbYVtaC9vQWnf/cZdjaTYC+fKz8uMgCEPTKD0XRoG94/1iDZtKk0F+//+8/xpx+ICULyPoO2WS89qCzyks/hEJWJH/7xVOgq9+Ktz0oewTclMcyDyV0XSNWRo6SCJlimZ8AWEir/ewvxn2VahrSP6ijte5+TNnMadO16tEXMwSLHW11Jy/G9ZRGoO/DfeENMbPn3AwhcnDmIIVYVpj3/p3iJPMLzO8Uxfo6fFcbj9T8SPpIXktbhp9+aC93Fr/CjN+m8/5yFAm0aXvvuRkzr9W4HQ2sBfvvf2/C20/I1zuspzNqA7Z+Q6MetwLeXhUu7Ry5+Ds/G6bHv490o6lOCKDz7ylzU/e5tfPdHb+Pt3BuIWfZNvJ45GMEme2z6c3yPOiSnP31Psukb7+xFSSiJz2sz5Pu+Q7SZxA0c/9xDPm8Duinr8e3ZwWjLzcKHhfdwyJdhmAGjKC2rtMnrUDbUy2t3BmVjIzT/8z+wBehg/NZrgEY8MUY/O7+Ufk1PPC79wmiC9sMPoegywLR5M6yRHh9CuP8RD4dTe6gL9odmqN0RcQyzxvts036Ih+W7YNIG9L9neBcRr1x7Yyfwwt9/B2vD7WmCLgg6e9EPDfHyBT0dx5+O40n0h2QzhmEedaxR0fLaXfYgVdkHpV/Lgsw+cRQIYewTR4FWA0sm7UNIE3YeZPz87Y8pDMfS4hiDbuhV0LmbUHNPsadpWOIoUMrH8eYRD8lmDMMwt7hrAqkqLoayvg62iEhY0tPlf+0o6+qkxRHLlHTYwiOkOKriK/K/DMMwDHN3uDsCaTJDdThHWjUvXQoonN+zpc7aCfXOLHlLhvYxL1smraoOHybF5Ol/DyKRK76DLf8lhlflPxiGYR4Q7opAqk/lQ9HZAUtqqvRYhyvWWTNgnTlT3rqF2Nc6bpwUV513Sv6XYRiGYe48d3ySjkKvh/ajDyUP0DJpEjBiIK9vceBmO1SXLpEbqYTx1T+BLdj9a7MZhmEYZrg4TtK54wKp3rUbqpJieWt4WCZMhHndWnmLYRiGYW4vd1UglVWub1UZHtZ45/dsMgzDMMzt4q4KJMMwDMM8KNyz5yAZhmEY5kGBBZJhGIZh3MACSbQ11KOiyv3SKr0vvQetVa1o47dMP3AYWutR1+7uGVrHMrWi6swRZF/rlEK8M4i6oC/H1/svo+l21htTI07sz0OJh3fEWtpbUdF6O96w7o7B2GnoOOZBX3IMuwque/6EqqENFQ16z+HDwaRHXVXbwL/Ac5/h03aD5QG3x1BggSRutjSgukEsVTifn4dTV3u3G9BqFHu04ULuRVQ/aO+YbijEZznluE3v234gaSmh8qzrkrcccS5Tf/VAL4XB1AU1tAP5kMig0MDP4Zj60hP47GyrvEV6UXcR2SVt8tbtZ+B2GjpOedBoyIpeuFGK7PONd6bR7m7EqdxSiG9xP5D4st1gedDtMQRYIIn4ydOxcLZYJiM5EIhI7d2ejlTXD46YTDB0m9z3ynrDBvjSH0tPj3gv+y28xbeKMNrf7bGtMFKYoccl0NIFfddAEmOP75QWB0Q6h5TnQdrDE9L5XfPmgEc7ypu+USJy6gIsH+vyjK1VtstQ0x8cj+VLJyLS8d2zXsvRBXf204xCxtI5SO39QLS5B/oel69RSwyjTIl+NpXwYCcf5/KGr7INHjsHj00dBae36g62XHzVB6lMvNcXb+n0astBXAO+ysQz7u3v1naEa9l6P+/Qy/ZhgGexOtGJi3v3oyV9I5bGyn9JNOLQtsvAeD/UX2uHxdINo18CVq6Zjnjphdkm1J09in2lXdDqAGNXANIWLcTsKDdv5daXIeurZoQkt6P8ajfCpq3Exolar/Hbrp7AnjPXgQAVLNRVHj0zE6uS5RayvQr7Dp9FnUUHrY3cmohpWLsgHqFN5D0eJ+/RpEKAToOUWavoePYovegvH8ZnN2Iwu6MY57u01EPshmrsPDwzezRoC+hpxansXFyksGC1BQZzCGasWIB06V0Pcp7LusSnL2EwBGD84oWYJ6XZU1gnzu46jPaMXvtex4kdR1CWuAibZ4wSf6DqRBbOhgqbUCPskDeV2QDLqPFYu5AER9jcnR3Hq1F+8hAOVVsQ4E8XfuB4TNYVonKkfDwn7GUavn4J0smUjueV1pECXVMlWiwWdJm0SF2wHAtjRd6c4xkbLmDXketIWr0I00Nc+ptSGm8g44VZiKdNr+XohLf6dOv8iQ0nsOtCI7osGgQHjMLkZfMwporKtGUU0m9W4wrpptFgQeT0pdgwQT6PVY+SY7k42mBBMNnRgFGYv2QeUkWZuq2bznZztJNUfzycy1B6BNsq4/DCiiRQFiSk/ZuSsHlxPLQOZatDNwyaRCxbNUW6nqT92ibi1XmjndYFhop8ZOXVwuJPBWzWYdrEAJyqGolNa1LQz5KOeaX6qzeHYjrZKCPcfl2JvOTbEqCtqUSTJRYr5XLqQ7JHK0aP70RZhZGKpRuWsMnYuCwFoaKoh3x9uOCxTKxoKzyCHWSzF5bFk52sqDq1D8cs0/EM2aPHx/XrZDu314vVc10gjC2X8YeDV9CqpuvPZkViWhxaz3f11eeHFZ7FOiTa0K6djOeeXoPNz6zDwlGVOFlsHwayVJ3F101x2PjsOry4YR02r45DXc5plHgchqNGMmo5Xn1ho9TQeI1vqsGZUyakrxNhdO71aQhoaKfUCNpw9shFaKavwytPrcKLTz6G+eqL2HNeHH8yNs2hgg4Zjw0b+otjH5V1MM9Zj81P0LE3zkN07QkcrbJ3d9uqStAYOQebKc+bnlhHaTXjVGG9vafZWoZj10ZiGdlik0jz4mgYGm9CGpH2GBaKhHgdahoofdJ+jagODEVwXSPsg4TXUVunQ3ykaJRF3s7CkLpcypuw+ZLASuw6LZ9fwtmOhmv5ONQahw3CjpTeF6d1o7RS3nWQtLZrMZvS/uJTj2Pz7JEoOVsmp/EWogHZQ+KYunpJf3F0xWs5OjPQ+hQ8bh42pIUCY2aSnechrVfLmnoQuYLikQ1eWZmErnNFKJc9gNZLJ5CnnirZU5Tpi9PVyDtY6PAhb2eb+sTDuXSJ45DYWoWrfeP7bSgta0Pi2DhqvEk8rlbAMt5etpueegxLwqpx0tfQsKEKOXk3kLKcykTU1ycno+tqrRzYH5HXo90peFrkVZTj/AAUZ59FhYM31HYzEAuf2Uj59dTot6A7fCE2P0Xne3YR0roKcWa414cLnstEidC0GcgwnsUJkejmQhyrDcOCDLkDK/By/fbHuWy91gXrdZw5egW6Wfa2ZfOTyzG6pf818LDDAjlgQpGcEGwfrlBqEB0eCr1BTCSworKyHjFJsdAaxVBFD3r8IpEwqhG1HgfrI5Ec39uT9BFfFQCdVo+m2jYYxIUdGI+FmXGUGqK1HmXmMUiOtErxDEYrIuNiyKtpcdvwuiUuBVN6G3e/0Zg5IRQVNY3SZqhogGfSxSgNaXXCYqX99J32+z0BfggwtqO2US8NdamiJmL51DD7heslLCyGlFoWRH1TI7QJ45GgakSdaEiFYGrHICGM1purcMmYhPkTZb+AbJ44OQVhVTWo7rv+He3Yg5rKFsSkjUOknB1V+DhMszsegyYsIdbuJRDa8DCEdXTAcWqK+UYJ9hxsRAJ5jnaPwQfeytGJodQnF2LikSi8bEIVHoEIdKFTEtc2VFZYkTJ2FMzysc2RcUg0N6G2XdqdcLTpAPB0Lk00xsW34XKFXBPbqK5SeU6ME0bVICZjER4TXq00vNlNudZA3+F9cpGhvgp1ERMwOVwuGCV5zWme3oJ/HSUlJqRNl709QhuXRmVVj2v26i3hWM7ucbAHnS+KTqfvst/THvL14YSPMlEGY/q8ydCfy8PXZ+owZu4MedRKxsv12x/HsvVx3tYalFmTkD62N+8apE5IcpP+hxuvVYMZCNQgUMvZWJiLr/bnyMsplHbrYOoayGw/H/GVYZi9Ih3KypPY8UUWPvniCE7UyA1Jdwf0xmoc64tHS0EzdBaj/SIdCGqN0z2K4BHkNdzslCb2GKnHmL3rS3z0+33I2n8G55sdXBhdElYvGY22c0ew9dMsbNmdh4stctfcW1hYLFKMQhB7UF9vJG8xGrGjO9HUapUEsydmNIQ+gi5aY6AOAVIkmeBghJBMURvkBjN6qHvu7+/YevjB3+kAtwvybk8Wo80mpuEM8BLyVo5ODLc+eaMH7R3dKDvlUF/2X0S9v5mOLe9yG4kfm4SeinqpM9RaWY2exDjEyOYy1FxA1g6yQ9YhfHWwAGUdcv3wgsVoloSnd8hWoHMqb0dM6DYGIshf3pQIRAh1ZtrdV6BBM+Trw4kBlElIAtJCW1AnBCvapb55uX694+O87q4/f13/YeyHHBbIYROAQKqTYzJWYNOGVU7LqnEDGKIaQHxVSDyWrlyDzc89jk3zR6Hx6AlcFNe4fxCCxYXoEm/ThsmIkWIOgC7qPcqrAj1dXKCLLJiE6MrpQmDyY3hVDCFtWITlqSPlvexooyfisbXr8Aqla8ME4Hx2Iap8hZFQxMa0oaaBPKL2KMSRGkZGRaK6njzD+k6kxNrvRUp56zRA7zhapNejnRo59++rV8OPurcdklffSw86bk9b6MIIZKxej41TgFMH81Hl3fHpw2M5OjHc+uQNP4QE6TBpgfNxxeJxCH44RMVjEqpR2UreXBkwKVkuW2sj8nIbELP4cfsQ69oFmDfGd95UYkow9R4c66vB4EnZRV47Xcq/E+3kHYXclg8eDO/6uIXvMjHWnEdeTwqmBxfjcLFLhfF4/frCx3m1ftC6Xn9iW159VGCBHDZKJCREo6K4SNyOsdNTj0O7jqCob9jKGz7it5Zgx658VEhhSugCHAY5wqKRgnKcv9op35ez39TferrRvq2kBsVkcnvfo4/GYhQ0yD1bOu/p4jYkxvWOS2rEyIodaw+KSm7d7zFW5GPLgRK0iQtISenyu1WVvIUJYmOj6bTFaI4ajUjxR3Q8ElqKUdgciVjpD0LkTVuOU8XyM25WEyoKy6BPjMcYt7XWD3EJ4WgqvCDbitJRe4F69fb124sSaspX6MRMrIxqxf6cMnteveGtHJ0YZH0Sn1Y1D3TmYygSEoFLRVV9DZ+lvQS7dl6Ax9tWw8J+vrJzhagOScEEp/FkLTQauSB7WlFY5vumgI7qSQzZMa+mt76S0BbK97P7Ic6tQdEFuR4Sxpoi6pDEInmIw+79Gdr14YyPMumpwdHcG5g0azIypqUBF/Jx0bEeeL1+veHjvGFxSFE6Xn96XLxQ7tCWmNBUWoiLved+SPFUaswgUMVnYENsG/6Q9SW27NqNT7IKYEqZjJSB3JsivMYPG4t5sXocztqNrSJsbzl0s2cgXeoEhyJj+VQoi7LxyY692LrjS2RVhWJ+2mj7sMvoFMwOKEXWtixkV8hXgSt0lQQVfo1PvqBjf5GP6wkLsTBeVItAjE+PQX3ubmzZuRdbfp+L7hG3Zndp4ydgDgnYju278dlO2ue4HuMXT5YmOngLE6iiYzGmw0AaGGH/QxmBhFDqncbFIbavRoq8zURIqcgbHePz3TjalYDVGXLe3KBLnoPHEshWX5AdadleNhoTE+TAO4IG8XMykWEtpJ69j4fVvZajM4OpT8FjJyL1+ml8sm0fHB6H9EjYpMXIVBdjB9lzK5XNJ3+oQfiM8ZCK/A4QlpyCgObrCEiIvTU0qhyN6VOVKNhjz9+WvSVQhfe/G9sPXTyWL47D9eOirtKypxyx452mmzsh8ro0iOoh5XXLjixsyevBhMXTMJhbrJ4Z+vXhiscyIREqOXUarRNmI0PcdwhOwfIpwJk8hw6Zx+vXN17rgnIU5i3LgK73+tuej46xKfbbHxJ6qcN6puamvP1wwo953E7EzXqjBSqtRny+cvB4iy8mM1D3zc/DscWzTD3UYHvuqfbHcRq4iG/R+EHb77w+8iSe8yJl8PN3vhci4S1sEEhpU1LaBtqwifNaVYOyxV3DRzk6Mdz65I3edAyzbIbFUNMwWLvcyfownOvDlUHaY0DX70Dwel7KXzd5iWLI9Q6Y736EH/O4UyiV0IpKNlSreouvJPHzcmyVn9+wGgAR3+0F4CtPGjld8qYT3sIGgZS2wfT6xXnvR3EU+ChHJ4Zbn7zRmw55854w1DQM1i53sj4M5/pwZRhl4vH6HQhezyvy9+iIoyuPaLYZgSo0BqnSU/cMwzxo8PV75+EhVoZhGIaR4SFWhmEYhvEBCyTDMAzDuIEFkmEYhmHcwALJMAzDMG5ggWQYhmEYN7BAMgzDMIwbWCAFhjZUVNU7LI1o7XZ4NZtJj7qqtoF/IYN5aDA2qlFUI18mLRps/7UGlUb7pjec4jEPDTdr1ChvFC/AZR4F+AoW3ChFdv4VXG1oQLVYKi9jz859OFQrv4i3uxGncksx0M/xMQ40FOKznPIH9isAHVeUOHiq9zKxia8LDQjneN65fkqDj/eq5a37GTUO/qcG5zy9H/wRoJ7KNPcKC+SjAgtkL4FxmD17OhaKZeESPJcZhpqTlx2+tO6KeEdhDww9Hl4CLt5vSOHiY6n98BpmP65xgC/JF+9gdEqDj/j99h8U3vPs9tiWLui7fJ9vUOmyKmDQKz3kUQEjhRm670AjFm7GxldMSHD9EIeRzqdXwCxvDhpKq8Hd8ITJnk/zAM1i7nbJt5QuT/G92clzWOdNBXwXkxzf6KEM5Hy5LT9vYV7zM1ConAye8i2Qwx3TPtzyZR5Y+E06gtp8fHRxJDatSbn1HTV9GbK+qkHy+iVIh1i/gYwXZtnfxt9ehX2Hz6LOooPW1g1ETMPaBfHyl8lNqDt7FPtKu6DVqUgfLAifIn89nWi7egJ7zlAXPIDCqFEcPTMTq5LtYUbytnYdKYPBTwf0dEOXkokNGe6+Qt6IQ9suAclqVF69DkviPOmFxV7j91zH2aPHqPevQjA5K+a48Ui5XojO9I1YGgtUncjC2dCV2DhR/ryElP8B5rmnFaeyc1HU7Q8duqH3S8RjK6Yg5gZ5j8fJezSpEKDTIGWWm+8OOhxXxDVoErFs1RTnr6bLXPlCi1PkxQVUKnDdQvaiZCQ9Y8LaCXIVbtRg+1YFWihMKRrYMTY8+aIJEWY1sv5Fiag/N2Ku+AC9XoNPf0EN4BoznpstWlslTv5KjeYlJmzoPZbM9SNabG2x4rtPUfPYosGWXwKz/86E8eRN7fpHyvxsG+rP2RtTo78NK79NYf4u8axKnPsfNfKDrPjGRjN0Dt1S4T1uzyZBoXVdgA3TXzJh+igFKvdq8PVpShkVh7ETSFhvxoZp7pRBTsdUG2oLqBGfLM5puRU/iE7fBaQ+Z8KyJBc70apSfOM3luz0DbKTSJcnGyqF96hEifh4A1VX7UQr/pjs54iU5yYbZrYqcF4IPqVbmW7FK0+Y5TrskC85XSMXUxnMF/lSoPmUGr8nW4iv9Fo7qD+yyoxnpPKR452j81KYkcKSKU0rKT8NB7TYflO2M1G5R4tdhTZs+N/UkRF/FGvw7mHgxT8zYZRL3qzhNqzfbEKc+KiyXLahU+lcBUDIEjM2LwAublcjp4TOS+VgDbIhfaQC5ZEUtmhYKs3cxzi+SUf1+uvff1Neh6KDat6jiL4O55oCMCllFPra5Rs1yK/SYnxGNEKM11Fc0o3o9FiEiK/J7z8N07TH8OTcVKRPSEJw3QkcbAlHejRdve2VOFGmxqzVC7EgLQVT44BLudXwHx+HUGsNcve3ImnDSqyYTGFjtagrMyIkfgT8TfU4vLcaMWtWYfVUCpsYg54Lh1GkGovkka7Db52oKLyK9rj5eHb5VMwYQ62Nj/hNBTnIsaVj85pZmJKWivHGUuwv68DIhAkYO4KSXVOMev9kTIiQ5XgQeW69dAwn/WbgGyumIn3iOET1VKJBORrRVNEmjbiJc+1xeGrdLCRRMp2hzkRRIeqjKR8L0zBpYhJCW88hryMSk0Y7fQpeovWyCkXk0q+hxm7xQismBylxMFuJ+LlWBJHI5XxEnY4VZvwRidCMTBLSUhX2VSswY7wFploVyhQ2TCYxMNJxztxQSF/un0INuEqvRm42MG6DBaNd3tjcVanCRYMNs0kQYFCJz/EhdrEV4XS+khwF2hIteOklM2aJ81WocJLEYXqS9Va88dTIfqZGXgAJBTXi/i6OS0CsFWNttK/Oij/9phmiChkLNNh2Elj+lyasXmhBRioJ7O9UuJ5qQWI/G8rpSLHgZYo/l9IpxS8EnvoLslOmBdPGKXH8N0pYp1sR7afAxS9VaJpsxiub7HZSVpGHFGrFaLKnRxummDF2rgL1dK7k14zYMKW/QEh5zlcg7I9MeGalBTNnK1C3l9IXaMUE0TFq0OAA2W8OdSJWL6Bwka8dSmio/CIsauz/hI79F2Y8sYTCpipRQccKJcEPrNfgi/1kjzdI5EV+4pS4VK5APNl5ZIAShYcVGJVpRSh1Fgp2k4cbqIAtlmxFQl5JolsTYcP8JEh5a8sw45sv2POmq1Lh60sKTKNzqKSyVcA/k8TvWTOmJthwM1+NLy8DG79vwlJx3ggVDu5XQJVolcKZhxNbUJ+bxEOsfZhuoFqaoFODi2fzsONIOYKnpvb/fltrPcrMY5AcaYUYJjUYrYiMiyHvrYVkhAhJwqqVdg9IDBvqqWOroq6yXvTUVQHQafVoqm2DQfTOA+OxMJOEk1YttVWoiIxHip99+NVg1CI+fhSq6z1/EDY5IbjvDfze41/H1QoL0ibE972VXzt2HNL6u6bu8ZHnAJ0/6WkjatvFh3uViEmfg4yogdys0yAmQ/aupWHnbljpP31H75eC+xOSZoH90NTAUeGEkEcjfT+2XoWrJhsmkdsghuEMJH6J5A1aqSFtpn2TU2xoLlOSp6bANfovgjyAWPq9Ru288SrQTOHjB2oPB8ZNtVKzTCjpeNQZMjh+Ho+OXZSlxgmt3XMc2OGp8SePNGKRRfJEBeooatDTyMsv9ny59qWD8neFGv2IaRaMEEOuYrgy0IakCAVqSOgEI8jcN0jMa9ppm9I9/XET0oWAebXhAEmxYl6ULB7+ZmTOBmpIZCWiSDi/JTxs+zDmdboGtFYFbgqbUeID6f+GSyrcFMObISasfd4M6Yuh5L0Fditw9ap96FWdZMJGEnHp+5LRNoyhPFeIwa8WBarIi58xgWxVKmylRgV5f8mT6CK8psLlHhsyez0/ynfaIhtCShQo69N6G1JJLO0ocbWI7DjPgji5KqvjLZju7oOOzEMLC2Qvxk7US5N0mqnRD8OMVeuwcYKbr9l2d0BvrMax/Tn4qncpaIbOYrTPcu25jotH9+GTT3fj0305OEwuT5cUkVCGYfaKdCgrT2LHF1n45IsjOFFjFwNDF+3VfBlfOxw3+2o3gk0krtIe3vEe34RuYyCCnJwyPwS5yZ5bfORZlzwPK2NvIj/7aynfO46W3foavg8MNReQtYNskXUIXx0sQFmH6DkMAVJJcV/pwEdq/K53OaCA1gjJfjpqNCMkQVShqsyGRGrI4+KoQW6UBZO2h6CP3ilS4sgV+6p6EFdaD3WmdCP6Wm3ChohwyuL1gRyEPGMSnBvHHOzwkRJXqHr0dAiBtCFhjRlztArs+aUG776lxdYv1bgpTufDhgOC6pijHUdFkliScEndvG41Tm7V4lc/1eDjD9TYe0QahbWjNGPpS+TJXVJi679p8Kv/0GIP2U9ihBkbnrfh+kE1Pqb0/updDU5W9briFqROtAuioZz6udTRSSPvrrOGxFQIppHKWoyYUX00j5BGh28RbqNuJgm0hz5o/3Kw0ra8yjwSsED24jhJJyMFiaEePCD/IATrkrB6wypsclomI4aC9eUXcAoT8OKz6/Ai/b9h4Th7L1hGFRKPpSvXYPNzj2PT/FFoPHoCF6mV0AUEUG94Kp52Pe7iJOeL2gPe42vgr+1ER19rRFi7nbe94SPP4nty8ekL8PRTj+PVpxYhHVewq6BRiuoVayPychsQs/hxvPIUHW/tAswbM1DVdiGEbBBkw+N/acQfOy0mJInwERYkhFODeZpEMZK8CvLqEiigqlQtCWbyBMeG8DaRasVr37ciulyJ7UcGeqnZEEiNsKHNcX/y4Fooi6MGkkZ7/KgVJhc7GOX7eYSGvMZnjPiTHxrxZ9+xIqpOia9O0vl82XAg3FQ4PQ51vYmEjIRolFg/pcRpEpmX/obOTcd98UUSfvtuEsJT3vAtStOPTHjxKRtat5OgSuJlgy7VhOf+3B729Fzg/G/VID2UwhLG2dBersKVGgXGJJO3SAIZW6nApTIS4IkULnYTeaOOg97RhCSgbRR/hEicG/xI7J3LQQm9NEzEPCqwQA6WsGik0KV5/mon9V0FVrQVHsHW043yNvWgVSSusmUNpaXyhUy0lmDHrnxUSN6VkkTtVl9bFRuPxLoynGmWPSirCRUn9mFXycD67t7jj0JyogpFF0rQJjcQbVcuosjheb6RoaForay1h4u4hWVotQf5yLMJ5cd3Y1eRnE6NP+XfviqhVFO33iRNQnGPFhqNbKyeVhSWDbEFirYgWaHAydNKebYhCWG2Bh/sUsvbViSOA6pPUIOdZJGG50alkXdzVoFqEpSkO+EZUPGq/anR30znOaLGruJer8cFMTZK3ordRjaMn2RD8zEqL719f3ODGmeKgHF9w3/esMevOalGpRwfejr32xqclp5TUiP3l1oqL3uYOsh66767TxtSPaOi6vHm5JNnl0seuYS4t3sKiBvXe2XQ+YRNpOImz+2kApXSv0SNBlsojUXiVoQQLYd+kqGA0vBrDZpF9pU2hEhjqw4k2RBXr8C5ahvihRoqyascT9t0/Njec4u8+VHaqKMi5cWqRNER8rYn25DithW0Ipnqh2M5GItVOFsjrdppVyNnr9qeLuahhCfpCNxN0nHEacKKP6LH6FB56jgOFV5D8eVLuGSIxsJZyRhFuug3IgA3L5zEoUsVFHYF14IjEdXchcDURIwOHYHQzlJkHy9C0bVSnLncjlGz5mD+aDqrKhhxUV24dOQEcourcLGwCLW68Vg0KRqB9ptLDohJOi3Uq6Zj9ibYR/zAqNEIqruAvXlXcOlKMWoCx2EceXCm0fZJOn4jgmEuP4fDZy7jXHEtAhJiYW0wDyDPKowc4Y/Ks8dxtKgKRUVFuGpJwpp55LmKdAcGQVNzBtl5l3EjOBVJoXLjKVAEYaS6CjlHC3CxogwXSg2IiNCgifyKDDHxyAUxSadW5zBBwmnSjA2JExUo3aVC9iEVzlPDdpmq80Ix8UYeWg4KUOLccQXGrjRLEzjEdNI2akRvTLRgfu8MTxd8TdIJnGVBnNxgO+7rFI9EaHy4Ekd2U6conbwml0oWEKFAy2ElDuxXoSuVGvIUG2K6lNj/GTXI+SrknVEgcp0Zy92msX86VFEUv12JPdsp/lkV8o8q4DfXhkWUFhU1/FFhSpzZocKJ0xSeo0RzhA3rHrMgUOHLhjaEkrodEZ5drQLTxAQn6Yx2pDzrbBhbpMJXFP80nVdMDHpygX2/gNEKNGVTPg/bj301DIggry9IpJ3SHNpG5+1NM5VLyGozVpEtNOTxK0mcvt6jQiGl+eQlBSa8YEbGSPt5obLBVK1CWaANK6bYzzWiR4mThcCM9RZESIm0563iazoHnf8sCWWlnw3rnzRTHaRgp7K14xdrw+ibtD/ZSpTDeeq7TYqh+hJor4MGyucfyPbBZIeYADkS88DjOEmHH/MYBmISTg800Pn174KKMIvSD1p3I7ViQgq5C34UKHrkrniNOwC8xb+V5i5c3LsfLfJjHgPFV549hXml1x7+ZA/5r+Egngc0UoOo83cveg8M4plA8qi0wTZ5As4gEc+LdiqgpQa9/z1Q8ayiAmYSCZ22v52GYsNbj7ZYYDaQOGqsbuqgmKBD51a7P689zx7SLJ5H7LEN3R4SPs7vDnFeM+1P4s88/Dg+5sEC+cjSOSSBvFd8uUWNqmuDFF7mrvHdvzM6Pfv57j/e9ilP9zVPv2JGdDyPtT4MsEAyRA+qCovQHTcdqeI5E4YZJoYSDQ7ftGDtTBYK5sGFBZJhGIZh3OAokDxmxTAMwzBuYIFkGIZhGDewQDIMwzCMG1ggGYZhGMYNLJAMwzAM4wYWSIZhGIZxAwskwzAMw7iBBZJhGIZh3MACyTAMwzBuYIFkGIZhGDewQDIMwzCMG5wFUuHwrT6GYRiGeZRw0UAngbSphv6VNYZhGIZ5kHHVQGcPMkD+9DrDMAzDPGq4aKCzBxkYBJt6iJ+xZxiGYZgHFKF9QgMd6TdJxxYayiLJMAzDPDJI4kja50o/gYRaDVt4OGzBwXah5Ik7DMMwzMMGaZskjELrSPOE9rmiKC2rtMnrDMMwDMPI9PcgGYZhGIZhgWQYhmGY/gD/HwtfgfFTE4QEAAAAAElFTkSuQmCC;" parent="WIyWlLk6GJQsqaUBKTNV-1" vertex="1">
                    <mxGeometry x="460" y="744.39" width="296" height="66.21" as="geometry"/>
                </mxCell>
                <mxCell id="KgBlzZdilrDWfoYo20FU-48" value="" style="edgeStyle=orthogonalEdgeStyle;rounded=0;orthogonalLoop=1;jettySize=auto;html=1;" parent="WIyWlLk6GJQsqaUBKTNV-1" source="KgBlzZdilrDWfoYo20FU-29" target="KgBlzZdilrDWfoYo20FU-47" edge="1">
                    <mxGeometry relative="1" as="geometry">
                        <Array as="points">
                            <mxPoint x="390" y="820"/>
                            <mxPoint x="790" y="820"/>
                        </Array>
                    </mxGeometry>
                </mxCell>
                <mxCell id="KgBlzZdilrDWfoYo20FU-29" value="Display error message&lt;div&gt;&quot;Invalid or Expired Link&lt;/div&gt;" style="whiteSpace=wrap;html=1;strokeWidth=2;" parent="WIyWlLk6GJQsqaUBKTNV-1" vertex="1">
                    <mxGeometry x="330" y="747.5" width="120" height="60" as="geometry"/>
                </mxCell>
                <mxCell id="KgBlzZdilrDWfoYo20FU-35" value="" style="edgeStyle=orthogonalEdgeStyle;rounded=0;orthogonalLoop=1;jettySize=auto;html=1;" parent="WIyWlLk6GJQsqaUBKTNV-1" source="KgBlzZdilrDWfoYo20FU-32" target="KgBlzZdilrDWfoYo20FU-34" edge="1">
                    <mxGeometry relative="1" as="geometry"/>
                </mxCell>
                <mxCell id="KgBlzZdilrDWfoYo20FU-32" value="Enter new password &amp;amp; confirm new password" style="whiteSpace=wrap;html=1;strokeWidth=2;" parent="WIyWlLk6GJQsqaUBKTNV-1" vertex="1">
                    <mxGeometry x="170" y="830" width="120" height="60" as="geometry"/>
                </mxCell>
                <mxCell id="KgBlzZdilrDWfoYo20FU-37" value="" style="edgeStyle=orthogonalEdgeStyle;rounded=0;orthogonalLoop=1;jettySize=auto;html=1;" parent="WIyWlLk6GJQsqaUBKTNV-1" source="KgBlzZdilrDWfoYo20FU-34" target="KgBlzZdilrDWfoYo20FU-36" edge="1">
                    <mxGeometry relative="1" as="geometry"/>
                </mxCell>
                <mxCell id="KgBlzZdilrDWfoYo20FU-38" value="no" style="edgeLabel;html=1;align=center;verticalAlign=middle;resizable=0;points=[];" parent="KgBlzZdilrDWfoYo20FU-37" vertex="1" connectable="0">
                    <mxGeometry x="-0.02" relative="1" as="geometry">
                        <mxPoint as="offset"/>
                    </mxGeometry>
                </mxCell>
                <mxCell id="KgBlzZdilrDWfoYo20FU-40" value="" style="edgeStyle=orthogonalEdgeStyle;rounded=0;orthogonalLoop=1;jettySize=auto;html=1;" parent="WIyWlLk6GJQsqaUBKTNV-1" source="KgBlzZdilrDWfoYo20FU-34" target="KgBlzZdilrDWfoYo20FU-39" edge="1">
                    <mxGeometry relative="1" as="geometry"/>
                </mxCell>
                <mxCell id="KgBlzZdilrDWfoYo20FU-34" value="is new password&amp;nbsp;&lt;div&gt;valid?&lt;br&gt;and&lt;div&gt;confirm password&amp;nbsp;&lt;/div&gt;&lt;div&gt;is same as&amp;nbsp;&lt;/div&gt;&lt;div&gt;new password?&lt;/div&gt;&lt;/div&gt;" style="rhombus;whiteSpace=wrap;html=1;strokeWidth=2;" parent="WIyWlLk6GJQsqaUBKTNV-1" vertex="1">
                    <mxGeometry x="150" y="910" width="160" height="190" as="geometry"/>
                </mxCell>
                <mxCell id="KgBlzZdilrDWfoYo20FU-36" value="Set New Password button is disabled" style="whiteSpace=wrap;html=1;strokeWidth=2;" parent="WIyWlLk6GJQsqaUBKTNV-1" vertex="1">
                    <mxGeometry x="410" y="975" width="120" height="60" as="geometry"/>
                </mxCell>
                <mxCell id="KgBlzZdilrDWfoYo20FU-42" value="" style="edgeStyle=orthogonalEdgeStyle;rounded=0;orthogonalLoop=1;jettySize=auto;html=1;" parent="WIyWlLk6GJQsqaUBKTNV-1" source="KgBlzZdilrDWfoYo20FU-39" target="KgBlzZdilrDWfoYo20FU-41" edge="1">
                    <mxGeometry relative="1" as="geometry"/>
                </mxCell>
                <mxCell id="KgBlzZdilrDWfoYo20FU-39" value="click on Set New Password button" style="whiteSpace=wrap;html=1;strokeWidth=2;" parent="WIyWlLk6GJQsqaUBKTNV-1" vertex="1">
                    <mxGeometry x="170" y="1130" width="120" height="60" as="geometry"/>
                </mxCell>
                <mxCell id="KgBlzZdilrDWfoYo20FU-44" value="" style="edgeStyle=orthogonalEdgeStyle;rounded=0;orthogonalLoop=1;jettySize=auto;html=1;" parent="WIyWlLk6GJQsqaUBKTNV-1" source="KgBlzZdilrDWfoYo20FU-41" target="KgBlzZdilrDWfoYo20FU-43" edge="1">
                    <mxGeometry relative="1" as="geometry"/>
                </mxCell>
                <mxCell id="KgBlzZdilrDWfoYo20FU-46" value="" style="edgeStyle=orthogonalEdgeStyle;rounded=0;orthogonalLoop=1;jettySize=auto;html=1;" parent="WIyWlLk6GJQsqaUBKTNV-1" source="KgBlzZdilrDWfoYo20FU-41" target="KgBlzZdilrDWfoYo20FU-45" edge="1">
                    <mxGeometry relative="1" as="geometry"/>
                </mxCell>
                <mxCell id="KgBlzZdilrDWfoYo20FU-41" value="is password&lt;div&gt;reset?&lt;/div&gt;" style="rhombus;whiteSpace=wrap;html=1;strokeWidth=2;" parent="WIyWlLk6GJQsqaUBKTNV-1" vertex="1">
                    <mxGeometry x="190" y="1210" width="80" height="80" as="geometry"/>
                </mxCell>
                <mxCell id="KgBlzZdilrDWfoYo20FU-43" value="Display error message&lt;br&gt;&quot;Failed to reset password. Please try again&quot;" style="whiteSpace=wrap;html=1;strokeWidth=2;" parent="WIyWlLk6GJQsqaUBKTNV-1" vertex="1">
                    <mxGeometry x="350" y="1210" width="120" height="80" as="geometry"/>
                </mxCell>
                <mxCell id="KgBlzZdilrDWfoYo20FU-45" value="Display success message&lt;div&gt;&quot;Password reset successful&quot;&lt;br&gt;&amp;amp; redirects to Login page.&lt;/div&gt;" style="whiteSpace=wrap;html=1;strokeWidth=2;" parent="WIyWlLk6GJQsqaUBKTNV-1" vertex="1">
                    <mxGeometry x="170" y="1330" width="120" height="100" as="geometry"/>
                </mxCell>
                <mxCell id="KgBlzZdilrDWfoYo20FU-49" style="edgeStyle=orthogonalEdgeStyle;rounded=0;orthogonalLoop=1;jettySize=auto;html=1;entryX=1;entryY=0.5;entryDx=0;entryDy=0;" parent="WIyWlLk6GJQsqaUBKTNV-1" source="KgBlzZdilrDWfoYo20FU-47" target="KgBlzZdilrDWfoYo20FU-4" edge="1">
                    <mxGeometry relative="1" as="geometry">
                        <Array as="points">
                            <mxPoint x="920" y="890"/>
                            <mxPoint x="920" y="170"/>
                        </Array>
                    </mxGeometry>
                </mxCell>
                <mxCell id="KgBlzZdilrDWfoYo20FU-47" value="click on new link to reset password Link" style="whiteSpace=wrap;html=1;strokeWidth=2;" parent="WIyWlLk6GJQsqaUBKTNV-1" vertex="1">
                    <mxGeometry x="730" y="860" width="120" height="60" as="geometry"/>
                </mxCell>
                <mxCell id="2E-xNjZSVxp7kiR47ArA-0" value="&lt;div style=&quot;color: #cccccc;background-color: #1f1f1f;font-family: Consolas, 'Courier New', monospace;font-weight: normal;font-size: 14px;line-height: 19px;white-space: pre;&quot;&gt;&lt;div&gt;&lt;span style=&quot;color: #c586c0;&quot;&gt;await&lt;/span&gt;&lt;span style=&quot;color: #cccccc;&quot;&gt; &lt;/span&gt;&lt;span style=&quot;color: #9cdcfe;&quot;&gt;RestApi&lt;/span&gt;&lt;span style=&quot;color: #cccccc;&quot;&gt;.&lt;/span&gt;&lt;span style=&quot;color: #dcdcaa;&quot;&gt;post&lt;/span&gt;&lt;span style=&quot;color: #cccccc;&quot;&gt;(&lt;/span&gt;&lt;span style=&quot;color: #ce9178;&quot;&gt;`/api/forgot-password`&lt;/span&gt;&lt;span style=&quot;color: #cccccc;&quot;&gt;, { &lt;/span&gt;&lt;span style=&quot;color: #9cdcfe;&quot;&gt;email&lt;/span&gt;&lt;span style=&quot;color: #9cdcfe;&quot;&gt;:&lt;/span&gt;&lt;span style=&quot;color: #cccccc;&quot;&gt; &lt;/span&gt;&lt;span style=&quot;color: #4fc1ff;&quot;&gt;email&lt;/span&gt;&lt;span style=&quot;color: #cccccc;&quot;&gt; })&lt;/span&gt;&lt;/div&gt;&lt;/div&gt;" style="text;whiteSpace=wrap;html=1;" parent="WIyWlLk6GJQsqaUBKTNV-1" vertex="1">
                    <mxGeometry x="-330" y="375" width="500" height="40" as="geometry"/>
                </mxCell>
                <mxCell id="2E-xNjZSVxp7kiR47ArA-6" value="&lt;div style=&quot;color: #cccccc;background-color: #1f1f1f;font-family: Consolas, 'Courier New', monospace;font-weight: normal;font-size: 14px;line-height: 19px;white-space: pre;&quot;&gt;&lt;div&gt;&lt;span style=&quot;color: #569cd6;&quot;&gt;async&lt;/span&gt;&lt;span style=&quot;color: #cccccc;&quot;&gt; &lt;/span&gt;&lt;span style=&quot;color: #569cd6;&quot;&gt;function&lt;/span&gt;&lt;span style=&quot;color: #cccccc;&quot;&gt; &lt;/span&gt;&lt;span style=&quot;color: #dcdcaa;&quot;&gt;isValidResetPasswordLink&lt;/span&gt;&lt;span style=&quot;color: #cccccc;&quot;&gt;(&lt;/span&gt;&lt;span style=&quot;color: #9cdcfe;&quot;&gt;email&lt;/span&gt;&lt;span style=&quot;color: #cccccc;&quot;&gt;, &lt;/span&gt;&lt;span style=&quot;color: #9cdcfe;&quot;&gt;token&lt;/span&gt;&lt;span style=&quot;color: #cccccc;&quot;&gt;) {&lt;/span&gt;&lt;/div&gt;&lt;div&gt;&lt;span style=&quot;color: #cccccc;&quot;&gt;&amp;nbsp; &lt;/span&gt;&lt;span style=&quot;color: #569cd6;&quot;&gt;const&lt;/span&gt;&lt;span style=&quot;color: #cccccc;&quot;&gt; &lt;/span&gt;&lt;span style=&quot;color: #4fc1ff;&quot;&gt;result&lt;/span&gt;&lt;span style=&quot;color: #cccccc;&quot;&gt; &lt;/span&gt;&lt;span style=&quot;color: #d4d4d4;&quot;&gt;=&lt;/span&gt;&lt;span style=&quot;color: #cccccc;&quot;&gt; &lt;/span&gt;&lt;span style=&quot;color: #c586c0;&quot;&gt;await&lt;/span&gt;&lt;span style=&quot;color: #cccccc;&quot;&gt; &lt;/span&gt;&lt;span style=&quot;color: #9cdcfe;&quot;&gt;RestApi&lt;/span&gt;&lt;span style=&quot;color: #cccccc;&quot;&gt;.&lt;/span&gt;&lt;span style=&quot;color: #dcdcaa;&quot;&gt;get&lt;/span&gt;&lt;span style=&quot;color: #cccccc;&quot;&gt;(&lt;/span&gt;&lt;span style=&quot;color: #ce9178;&quot;&gt;`&lt;/span&gt;&lt;span style=&quot;color: #569cd6;&quot;&gt;${&lt;/span&gt;&lt;span style=&quot;color: #4fc1ff;&quot;&gt;API_URLS&lt;/span&gt;&lt;span style=&quot;color: #d4d4d4;&quot;&gt;.&lt;/span&gt;&lt;span style=&quot;color: #9cdcfe;&quot;&gt;v0&lt;/span&gt;&lt;span style=&quot;color: #d4d4d4;&quot;&gt;.&lt;/span&gt;&lt;span style=&quot;color: #4fc1ff;&quot;&gt;USER&lt;/span&gt;&lt;span style=&quot;color: #569cd6;&quot;&gt;}&lt;/span&gt;&lt;span style=&quot;color: #ce9178;&quot;&gt;/reset-password?email=&lt;/span&gt;&lt;span style=&quot;color: #569cd6;&quot;&gt;${&lt;/span&gt;&lt;span style=&quot;color: #9cdcfe;&quot;&gt;email&lt;/span&gt;&lt;span style=&quot;color: #569cd6;&quot;&gt;}&lt;/span&gt;&lt;span style=&quot;color: #ce9178;&quot;&gt;&amp;amp;token=&lt;/span&gt;&lt;span style=&quot;color: #569cd6;&quot;&gt;${&lt;/span&gt;&lt;span style=&quot;color: #9cdcfe;&quot;&gt;token&lt;/span&gt;&lt;span style=&quot;color: #569cd6;&quot;&gt;}&lt;/span&gt;&lt;span style=&quot;color: #ce9178;&quot;&gt;`&lt;/span&gt;&lt;span style=&quot;color: #cccccc;&quot;&gt;)&lt;/span&gt;&lt;/div&gt;&lt;div&gt;&lt;span style=&quot;color: #cccccc;&quot;&gt;&amp;nbsp; &lt;/span&gt;&lt;span style=&quot;color: #c586c0;&quot;&gt;return&lt;/span&gt;&lt;span style=&quot;color: #cccccc;&quot;&gt; &lt;/span&gt;&lt;span style=&quot;color: #4fc1ff;&quot;&gt;result&lt;/span&gt;&lt;/div&gt;&lt;div&gt;&lt;span style=&quot;color: #cccccc;&quot;&gt;}&lt;/span&gt;&lt;/div&gt;&lt;/div&gt;" style="text;whiteSpace=wrap;html=1;" parent="WIyWlLk6GJQsqaUBKTNV-1" vertex="1">
                    <mxGeometry x="-650" y="1120" width="560" height="100" as="geometry"/>
                </mxCell>
                <mxCell id="2E-xNjZSVxp7kiR47ArA-5" value="&lt;div style=&quot;color: #cccccc;background-color: #1f1f1f;font-family: Consolas, 'Courier New', monospace;font-weight: normal;font-size: 14px;line-height: 19px;white-space: pre;&quot;&gt;&lt;div&gt;&lt;span style=&quot;color: #569cd6;&quot;&gt;async&lt;/span&gt;&lt;span style=&quot;color: #cccccc;&quot;&gt; &lt;/span&gt;&lt;span style=&quot;color: #569cd6;&quot;&gt;function&lt;/span&gt;&lt;span style=&quot;color: #cccccc;&quot;&gt; &lt;/span&gt;&lt;span style=&quot;color: #dcdcaa;&quot;&gt;isValidResetPasswordLink&lt;/span&gt;&lt;span style=&quot;color: #cccccc;&quot;&gt;(&lt;/span&gt;&lt;span style=&quot;color: #9cdcfe;&quot;&gt;email&lt;/span&gt;&lt;span style=&quot;color: #cccccc;&quot;&gt;, &lt;/span&gt;&lt;span style=&quot;color: #9cdcfe;&quot;&gt;token&lt;/span&gt;&lt;span style=&quot;color: #cccccc;&quot;&gt;) {&lt;/span&gt;&lt;/div&gt;&lt;div&gt;&lt;span style=&quot;color: #cccccc;&quot;&gt;&amp;nbsp; &lt;/span&gt;&lt;span style=&quot;color: #569cd6;&quot;&gt;const&lt;/span&gt;&lt;span style=&quot;color: #cccccc;&quot;&gt; &lt;/span&gt;&lt;span style=&quot;color: #4fc1ff;&quot;&gt;result&lt;/span&gt;&lt;span style=&quot;color: #cccccc;&quot;&gt; &lt;/span&gt;&lt;span style=&quot;color: #d4d4d4;&quot;&gt;=&lt;/span&gt;&lt;span style=&quot;color: #cccccc;&quot;&gt; &lt;/span&gt;&lt;span style=&quot;color: #c586c0;&quot;&gt;await&lt;/span&gt;&lt;span style=&quot;color: #cccccc;&quot;&gt; &lt;/span&gt;&lt;span style=&quot;color: #9cdcfe;&quot;&gt;RestApi&lt;/span&gt;&lt;span style=&quot;color: #cccccc;&quot;&gt;.&lt;/span&gt;&lt;span style=&quot;color: #dcdcaa;&quot;&gt;get&lt;/span&gt;&lt;span style=&quot;color: #cccccc;&quot;&gt;(&lt;/span&gt;&lt;span style=&quot;color: #ce9178;&quot;&gt;`&lt;/span&gt;&lt;span style=&quot;color: #569cd6;&quot;&gt;${&lt;/span&gt;&lt;span style=&quot;color: #4fc1ff;&quot;&gt;API_URLS&lt;/span&gt;&lt;span style=&quot;color: #d4d4d4;&quot;&gt;.&lt;/span&gt;&lt;span style=&quot;color: #9cdcfe;&quot;&gt;v0&lt;/span&gt;&lt;span style=&quot;color: #d4d4d4;&quot;&gt;.&lt;/span&gt;&lt;span style=&quot;color: #4fc1ff;&quot;&gt;USER&lt;/span&gt;&lt;span style=&quot;color: #569cd6;&quot;&gt;}&lt;/span&gt;&lt;span style=&quot;color: #ce9178;&quot;&gt;/reset-password?email=&lt;/span&gt;&lt;span style=&quot;color: #569cd6;&quot;&gt;${&lt;/span&gt;&lt;span style=&quot;color: #9cdcfe;&quot;&gt;email&lt;/span&gt;&lt;span style=&quot;color: #569cd6;&quot;&gt;}&lt;/span&gt;&lt;span style=&quot;color: #ce9178;&quot;&gt;&amp;amp;token=&lt;/span&gt;&lt;span style=&quot;color: #569cd6;&quot;&gt;${&lt;/span&gt;&lt;span style=&quot;color: #9cdcfe;&quot;&gt;token&lt;/span&gt;&lt;span style=&quot;color: #569cd6;&quot;&gt;}&lt;/span&gt;&lt;span style=&quot;color: #ce9178;&quot;&gt;`&lt;/span&gt;&lt;span style=&quot;color: #cccccc;&quot;&gt;)&lt;/span&gt;&lt;/div&gt;&lt;div&gt;&lt;span style=&quot;color: #cccccc;&quot;&gt;&amp;nbsp; &lt;/span&gt;&lt;span style=&quot;color: #c586c0;&quot;&gt;return&lt;/span&gt;&lt;span style=&quot;color: #cccccc;&quot;&gt; &lt;/span&gt;&lt;span style=&quot;color: #4fc1ff;&quot;&gt;result&lt;/span&gt;&lt;/div&gt;&lt;div&gt;&lt;span style=&quot;color: #cccccc;&quot;&gt;}&lt;/span&gt;&lt;/div&gt;&lt;/div&gt;" style="text;whiteSpace=wrap;html=1;" parent="WIyWlLk6GJQsqaUBKTNV-1" vertex="1">
                    <mxGeometry x="-620" y="717.5" width="560" height="100" as="geometry"/>
                </mxCell>
            </root>
        </mxGraphModel>
    </diagram>
</mxfile>
